<?xml version="1.0" encoding="UTF-8" standalone="no"?>
<!DOCTYPE svg PUBLIC "-//W3C//DTD SVG 1.1//EN" "http://www.w3.org/Graphics/SVG/1.1/DTD/svg11.dtd">
<svg width="16px" height="16px" version="1.1" xmlns="http://www.w3.org/2000/svg" xmlns:xlink="http://www.w3.org/1999/xlink" xml:space="preserve" style="fill-rule:evenodd;clip-rule:evenodd;stroke-linejoin:round;stroke-miterlimit:1.41421;">
    <g id="status">
        <rect x="0" y="0" width="16" height="16" style="fill:#3f7ab7;"/>
        <path d="M8.612,5.375c0,-0.627 0.511,-1.138 1.138,-1.138c0.627,0 1.137,0.511 1.137,1.138c0,0.627 -0.51,1.137 -1.137,1.137c-0.627,0 -1.138,-0.51 -1.138,-1.137m-1.225,0c0,0.627 -0.51,1.137 -1.137,1.137c-0.627,0 -1.138,-0.51 -1.138,-1.137c0,-0.627 0.511,-1.138 1.138,-1.138c0.627,0 1.137,0.511 1.137,1.138m4.367,2.691c-0.169,0.651 -0.508,1.246 -0.981,1.72c-0.711,0.71 -1.656,1.101 -2.66,1.101c-0.328,0 -0.656,-0.042 -0.975,-0.128c-1.294,-0.347 -2.313,-1.366 -2.664,-2.686l-0.057,-0.336l1.426,0l0.062,0.175c0.265,0.739 0.863,1.298 1.597,1.495c0.2,0.053 0.405,0.08 0.612,0.08c0.63,0 1.223,-0.245 1.669,-0.692c0.229,-0.228 0.41,-0.526 0.537,-0.883l0.061,-0.175l1.458,0l-0.085,0.329l0,0Zm-3.754,-7.066c-3.866,0 -7,2.743 -7,6.125c0,1.604 0.71,3.058 1.863,4.15l-1.863,3.725l4.39,-2.195c0.807,0.285 1.687,0.445 2.61,0.445c3.867,0 7,-2.742 7,-6.125c0,-3.382 -3.133,-6.125 -7,-6.125" style="fill:#fff;fill-rule:nonzero;"/>
    </g>
</svg>
