<?xml version="1.0" encoding="UTF-8" standalone="no"?>
<!DOCTYPE svg PUBLIC "-//W3C//DTD SVG 1.1//EN" "http://www.w3.org/Graphics/SVG/1.1/DTD/svg11.dtd">
<svg width="16px" height="16px" version="1.1" xmlns="http://www.w3.org/2000/svg" xmlns:xlink="http://www.w3.org/1999/xlink" xml:space="preserve" style="fill-rule:evenodd;clip-rule:evenodd;stroke-linejoin:round;stroke-miterlimit:1.41421;">
    <g id="status">
        <path d="M0,0l16,0l0,16l-16,0l0,-16" style="fill:#cc4c33;fill-rule:nonzero;"/>
        <path d="M12.025,2.75c0.689,0 1.25,0.561 1.25,1.25c0,0.689 -0.561,1.25 -1.25,1.25c-0.689,0 -1.25,-0.561 -1.25,-1.25c0,-0.689 0.561,-1.25 1.25,-1.25m-5.025,11.25l-0.688,-2.114l0.859,-0.778l1.278,1.322l1.496,-1.496l-1.145,-1.383l1.057,-1.053c1.357,0.481 2.928,0.191 4.014,-0.894c1.506,-1.504 1.506,-3.945 0,-5.45c-1.504,-1.505 -3.946,-1.504 -5.45,0c-1.084,1.085 -1.375,2.654 -0.894,4.01l-5.723,5.722l-0.804,3.114l3,0l1,-2l2,1Z" style="fill:#fff;fill-rule:nonzero;"/>
    </g>
</svg>
