<?xml version="1.0" encoding="UTF-8" standalone="no"?>
<!DOCTYPE svg PUBLIC "-//W3C//DTD SVG 1.1//EN" "http://www.w3.org/Graphics/SVG/1.1/DTD/svg11.dtd">
<svg width="16px" height="16px" version="1.1" xmlns="http://www.w3.org/2000/svg" xmlns:xlink="http://www.w3.org/1999/xlink" xml:space="preserve" style="fill-rule:evenodd;clip-rule:evenodd;stroke-linejoin:round;stroke-miterlimit:1.41421;">
    <g id="status">
        <path d="M0,0l16,0l0,16l-16,0l0,-16" style="fill:#3f7ab7;fill-rule:nonzero;"/>
        <path d="M12,10c-0.552,0 -1,-0.447 -1,-1c0,-0.553 0.448,-1 1,-1c0.552,0 1,0.447 1,1c0,0.553 -0.448,1 -1,1m-2,0l-4,0l0,-1l4,0l0,1Zm-6,0c-0.552,0 -1,-0.447 -1,-1c0,-0.553 0.448,-1 1,-1c0.552,0 1,0.447 1,1c0,0.553 -0.448,1 -1,1m0.632,-6.734c0.038,-0.114 0.248,-0.266 0.368,-0.266l2,0l0,0.5c0,0.277 0.224,0.5 0.5,0.5l1,0c0.276,0 0.5,-0.223 0.5,-0.5l0,-0.5l2,0c0.12,0 0.33,0.152 0.368,0.266l1.244,3.734l-9.225,0l1.245,-3.734l0,0Zm9.868,3.734l-0.833,0l-0.334,-1l1.167,0c0.276,0 0.5,-0.223 0.5,-0.5c0,-0.275 -0.224,-0.5 -0.5,-0.5l-1.5,0l-0.684,-2.051c-0.174,-0.521 -0.766,-0.949 -1.316,-0.949l-6,0c-0.55,0 -1.142,0.428 -1.316,0.949l-0.684,2.051l-1.5,0c-0.276,0 -0.5,0.225 -0.5,0.5c0,0.277 0.224,0.5 0.5,0.5l1.167,0l-0.334,1l-0.833,0c-0.275,0 -0.5,0.225 -0.5,0.5l0,3c0,0.275 0.225,0.5 0.5,0.5l0.5,0l0,2c0,0.553 0.448,1 1,1l1,0c0.552,0 1,-0.447 1,-1l0,-2l6,0l0,2c0,0.553 0.448,1 1,1l1,0c0.552,0 1,-0.447 1,-1l0,-2l0.5,0c0.275,0 0.5,-0.225 0.5,-0.5l0,-3c0,-0.275 -0.225,-0.5 -0.5,-0.5" style="fill:#fff;fill-rule:nonzero;"/>
    </g>
</svg>
