<?xml version="1.0" encoding="UTF-8" standalone="no"?>
<!DOCTYPE svg PUBLIC "-//W3C//DTD SVG 1.1//EN" "http://www.w3.org/Graphics/SVG/1.1/DTD/svg11.dtd">
<svg width="16px" height="16px" version="1.1" xmlns="http://www.w3.org/2000/svg" xmlns:xlink="http://www.w3.org/1999/xlink" xml:space="preserve" style="fill-rule:evenodd;clip-rule:evenodd;stroke-linejoin:round;stroke-miterlimit:1.41421;">
    <g id="status">
        <rect x="0" y="0" width="16" height="16" style="fill:#3f7ab7;"/>
        <path d="M15.5,4.999l-0.5,0l0,3l0.5,0c0.276,0 0.5,-0.223 0.5,-0.5l0,-2c0,-0.275 -0.224,-0.5 -0.5,-0.5" style="fill:#fff;fill-rule:nonzero;"/>
        <path d="M13,9.999l-10,0l0,-6l10,0l0,6Zm-1,3c-0.551,0 -1,-0.447 -1,-1c0,-0.553 0.449,-1 1,-1c0.552,0 1,0.447 1,1c0,0.553 -0.448,1 -1,1m-8,0c-0.551,0 -1,-0.447 -1,-1c0,-0.553 0.449,-1 1,-1c0.552,0 1,0.447 1,1c0,0.553 -0.448,1 -1,1m2,-11l4,0l0,1l-4,0l0,-1Zm5,-1l-6,0c-1.656,0 -3,1.344 -3,3l0,9c0,0.553 0.449,1 1,1l0,1c0,0.553 0.449,1 1,1l1,0c0.552,0 1,-0.447 1,-1l0,-1l4,0l0,1c0,0.553 0.449,1 1,1l1,0c0.552,0 1,-0.447 1,-1l0,-1c0.552,0 1,-0.447 1,-1l0,-9c0,-1.656 -1.343,-3 -3,-3" style="fill:#fff;fill-rule:nonzero;"/>
        <path d="M0,5.499l0,2c0,0.277 0.225,0.5 0.5,0.5l0.5,0l0,-3l-0.5,0c-0.275,0 -0.5,0.225 -0.5,0.5" style="fill:#fff;fill-rule:nonzero;"/>
    </g>
</svg>
