<?xml version="1.0" encoding="UTF-8" standalone="no"?>
<!DOCTYPE svg PUBLIC "-//W3C//DTD SVG 1.1//EN" "http://www.w3.org/Graphics/SVG/1.1/DTD/svg11.dtd">
<svg width="16px" height="16px" version="1.1" xmlns="http://www.w3.org/2000/svg" xmlns:xlink="http://www.w3.org/1999/xlink" xml:space="preserve" style="fill-rule:evenodd;clip-rule:evenodd;stroke-linejoin:round;stroke-miterlimit:1.41421;">
    <g id="status">
        <path d="M0,0l16,0l0,16l-16,0l0,-16" style="fill:#3f7ab7;fill-rule:nonzero;"/>
        <path d="M1.018,8.509c-0.032,-0.45 -0.022,-0.902 0.032,-1.35l0.001,-0.007l0,-0.005l0.003,-0.024l0.002,-0.014l0,0l0.002,-0.013l0.005,-0.042l0.003,-0.02l0.002,-0.013l0.002,-0.017l0.003,-0.019l0.001,-0.007c0.003,-0.017 0.005,-0.035 0.008,-0.052l0.001,-0.01l0.002,-0.011l0.002,-0.014l0.007,-0.039l0,-0.004l0.001,-0.004l0.007,-0.04l0.002,-0.012l0.001,-0.006l0.001,-0.005c0.477,-2.718 2.523,-4.896 5.168,-5.567l0.004,-0.001l0.003,0l0.012,-0.003l0.04,-0.01l0.005,-0.002l0.023,-0.005l0.016,-0.004l0.004,-0.001c0.126,-0.03 0.253,-0.056 0.38,-0.079c0.069,-0.012 0.138,-0.023 0.207,-0.033l0.01,-0.002l0.016,-0.002l0.008,-0.001l0.003,-0.001c0.215,-0.03 0.434,-0.051 0.655,-0.062c0.023,-0.001 0.046,-0.002 0.069,-0.003c0.026,-0.001 0.052,-0.002 0.078,-0.002c0.064,-0.002 0.128,-0.003 0.193,-0.003l0.012,0c0.026,0 0.052,0 0.078,0c0.024,0.001 0.047,0.001 0.07,0.002c0.222,0.005 0.442,0.02 0.658,0.045l0.037,0.005c0.07,0.008 0.14,0.018 0.21,0.028c0.129,0.02 0.257,0.043 0.385,0.07l0.042,0.009l0.046,0.011l0.019,0.004c2.937,0.667 5.172,3.181 5.42,6.256c0.031,0.384 0.031,0.772 -0.001,1.156c-0.296,3.566 -3.266,6.374 -6.899,6.414l-0.008,0l0,0l-0.002,0l-0.014,0l-0.005,0l-0.001,0l-0.002,0l-0.017,0l-0.001,0l-0.001,0c-0.008,0 -0.017,0 -0.026,0c-3.598,0 -6.562,-2.715 -6.956,-6.207l0,-0.004l-0.001,-0.006l-0.002,-0.023l-0.003,-0.03l-0.001,-0.01l-0.001,-0.004c-0.002,-0.017 -0.003,-0.034 -0.005,-0.052l-0.001,-0.013l-0.002,-0.017l0,-0.007l-0.001,-0.008c-0.002,-0.024 -0.004,-0.049 -0.006,-0.074l0,0l0,-0.002l-0.001,-0.013l-0.001,-0.004l0,-0.004l0,-0.006l-0.001,-0.004l0,-0.003Zm6.911,-6.009c-0.257,0.005 -0.513,0.025 -0.768,0.064c-0.512,0.078 -1.013,0.23 -1.483,0.449c-1.043,0.488 -1.921,1.305 -2.483,2.31c-0.262,0.469 -0.455,0.976 -0.569,1.501c-0.134,0.615 -0.161,1.253 -0.082,1.878c0.069,0.538 0.218,1.065 0.441,1.559c0.274,0.605 0.658,1.158 1.127,1.627c0.485,0.485 1.059,0.879 1.688,1.154c0.648,0.284 1.35,0.438 2.057,0.456c0.714,0.018 1.429,-0.101 2.096,-0.355c0.641,-0.244 1.235,-0.61 1.744,-1.072c0.49,-0.446 0.9,-0.98 1.202,-1.57c0.256,-0.5 0.435,-1.04 0.527,-1.594c0.099,-0.599 0.099,-1.215 0,-1.814c-0.089,-0.532 -0.257,-1.051 -0.497,-1.535c-0.523,-1.051 -1.383,-1.922 -2.427,-2.457c-0.69,-0.353 -1.446,-0.55 -2.218,-0.594c-0.119,-0.005 -0.237,-0.007 -0.355,-0.007Zm0.071,5.125c-0.966,0 -2,1.034 -2,2c0,0.966 1.034,2 2,2c0.967,0 2,-1.034 2,-2c0,-0.966 -1.033,-2 -2,-2Zm-2,-3.625c0.552,0 1,0.672 1,1.5c0,0.828 -0.448,1.5 -1,1.5c-0.552,0 -1,-0.672 -1,-1.5c0,-0.828 0.448,-1.5 1,-1.5Zm4,0c0.552,0 1,0.672 1,1.5c0,0.828 -0.448,1.5 -1,1.5c-0.552,0 -1,-0.672 -1,-1.5c0,-0.828 0.448,-1.5 1,-1.5Z" style="fill:#fff;"/>
    </g>
</svg>
