<?xml version="1.0" encoding="UTF-8" standalone="no"?>
<!DOCTYPE svg PUBLIC "-//W3C//DTD SVG 1.1//EN" "http://www.w3.org/Graphics/SVG/1.1/DTD/svg11.dtd">
<svg width="16px" height="16px" version="1.1" xmlns="http://www.w3.org/2000/svg" xmlns:xlink="http://www.w3.org/1999/xlink" xml:space="preserve" style="fill-rule:evenodd;clip-rule:evenodd;stroke-linejoin:round;stroke-miterlimit:1.41421;">
    <g id="status">
        <rect x="0" y="0" width="16" height="16" style="fill:#3f7ab7;"/>
        <path d="M8.09,1.001c0.327,0.006 0.652,0.03 0.975,0.08c0.654,0.1 1.293,0.294 1.893,0.574c1.403,0.655 2.569,1.78 3.275,3.159c0.301,0.586 0.518,1.215 0.642,1.862c0.139,0.728 0.162,1.479 0.069,2.214c-0.091,0.715 -0.294,1.415 -0.599,2.068c-0.357,0.763 -0.853,1.461 -1.456,2.05c-0.624,0.609 -1.361,1.101 -2.165,1.441c-0.832,0.352 -1.731,0.539 -2.634,0.55c-0.906,0.012 -1.813,-0.152 -2.656,-0.485c-0.813,-0.321 -1.563,-0.795 -2.202,-1.39c-0.616,-0.574 -1.128,-1.259 -1.504,-2.013c-0.319,-0.644 -0.539,-1.336 -0.647,-2.046c-0.112,-0.734 -0.108,-1.485 0.014,-2.216c0.108,-0.652 0.309,-1.288 0.596,-1.883c0.673,-1.396 1.811,-2.548 3.198,-3.238c0.617,-0.306 1.28,-0.521 1.96,-0.633c0.291,-0.049 0.586,-0.077 0.881,-0.09c0.12,-0.004 0.24,-0.005 0.36,-0.004Zm-0.161,1.499c-0.778,0.015 -1.545,0.184 -2.252,0.514c-1.062,0.496 -1.953,1.335 -2.513,2.366c-0.257,0.473 -0.444,0.984 -0.552,1.512c-0.122,0.593 -0.144,1.208 -0.068,1.809c0.072,0.561 0.23,1.11 0.47,1.622c0.28,0.6 0.67,1.149 1.145,1.612c0.49,0.479 1.07,0.865 1.702,1.133c0.653,0.276 1.359,0.423 2.068,0.432c0.712,0.009 1.424,-0.12 2.086,-0.381c0.639,-0.252 1.228,-0.625 1.731,-1.093c0.484,-0.452 0.887,-0.99 1.182,-1.583c0.251,-0.505 0.423,-1.048 0.509,-1.605c0.091,-0.6 0.084,-1.215 -0.023,-1.812c-0.091,-0.509 -0.255,-1.005 -0.486,-1.469c-0.532,-1.07 -1.415,-1.953 -2.485,-2.485c-0.696,-0.346 -1.455,-0.534 -2.23,-0.568c-0.095,-0.003 -0.189,-0.004 -0.284,-0.004Zm0.174,1.501c0.169,0.007 0.337,0.019 0.505,0.045c0.422,0.065 0.833,0.198 1.213,0.392c0.773,0.396 1.407,1.045 1.784,1.828c0.171,0.355 0.289,0.736 0.349,1.126c0.061,0.402 0.061,0.814 0,1.216c-0.06,0.39 -0.178,0.771 -0.349,1.126c-0.209,0.434 -0.497,0.829 -0.846,1.161c-0.349,0.333 -0.758,0.602 -1.202,0.79c-0.491,0.208 -1.023,0.315 -1.557,0.315c-0.534,0 -1.066,-0.107 -1.557,-0.315c-0.444,-0.188 -0.853,-0.457 -1.202,-0.79c-0.349,-0.332 -0.637,-0.727 -0.846,-1.161c-0.171,-0.355 -0.289,-0.736 -0.349,-1.126c-0.061,-0.402 -0.061,-0.814 0,-1.216c0.06,-0.39 0.178,-0.771 0.349,-1.126c0.377,-0.783 1.011,-1.432 1.784,-1.828c0.38,-0.194 0.791,-0.327 1.213,-0.392c0.168,-0.026 0.336,-0.038 0.505,-0.045c0.103,-0.001 0.103,-0.001 0.206,0Zm-0.168,1.5c-0.374,0.014 -0.738,0.101 -1.072,0.272c-0.669,0.343 -1.161,0.986 -1.312,1.723c-0.055,0.27 -0.066,0.549 -0.031,0.823c0.031,0.245 0.099,0.484 0.201,0.709c0.124,0.275 0.299,0.526 0.512,0.739c0.213,0.214 0.464,0.388 0.739,0.512c0.303,0.137 0.632,0.212 0.963,0.22c0.335,0.009 0.67,-0.049 0.981,-0.172c0.281,-0.111 0.541,-0.274 0.764,-0.477c0.223,-0.202 0.409,-0.445 0.547,-0.713c0.112,-0.218 0.191,-0.453 0.234,-0.694c0.048,-0.272 0.052,-0.552 0.01,-0.824c-0.114,-0.746 -0.575,-1.412 -1.228,-1.788c-0.323,-0.186 -0.68,-0.291 -1.05,-0.324c-0.086,-0.005 -0.172,-0.007 -0.258,-0.006Zm0.065,1.499c0.552,0 1,0.448 1,1c0,0.552 -0.448,1 -1,1c-0.552,0 -1,-0.448 -1,-1c0,-0.552 0.448,-1 1,-1Z" style="fill:#fff;"/>
    </g>
</svg>
