<?xml version="1.0" encoding="UTF-8" standalone="no"?>
<!DOCTYPE svg PUBLIC "-//W3C//DTD SVG 1.1//EN" "http://www.w3.org/Graphics/SVG/1.1/DTD/svg11.dtd">
<svg width="16px" height="16px" version="1.1" xmlns="http://www.w3.org/2000/svg" xmlns:xlink="http://www.w3.org/1999/xlink" xml:space="preserve" style="fill-rule:evenodd;clip-rule:evenodd;stroke-linejoin:round;stroke-miterlimit:1.41421;">
    <g id="status">
        <rect x="0" y="0" width="16" height="16" style="fill:#3f7ab7;"/>
        <path d="M4.5,11c-0.967,0 -1.75,0.783 -1.75,1.75c0,0.967 0.783,1.75 1.75,1.75c0.966,0 1.75,-0.783 1.75,-1.75c0,-0.967 -0.784,-1.75 -1.75,-1.75Zm7.875,0c-0.967,0 -1.75,0.783 -1.75,1.75c0,0.967 0.783,1.75 1.75,1.75c0.966,0 1.75,-0.783 1.75,-1.75c0,-0.967 -0.784,-1.75 -1.75,-1.75l0,0Zm2.188,-9c0.238,0 0.437,0.197 0.437,0.438l0,8.75c0,0.146 -0.079,0.27 -0.19,0.349c-0.384,-0.971 -1.329,-1.662 -2.435,-1.662c-1.14,0 -2.102,0.733 -2.464,1.75l-2.949,0c-0.362,-1.017 -1.324,-1.75 -2.462,-1.75c-1.123,0 -2.075,0.711 -2.451,1.704c-0.183,-0.054 -0.371,-0.15 -0.484,-0.264l-0.255,-0.255c-0.172,-0.171 -0.31,-0.507 -0.31,-0.747l0,-2.625c0,-0.241 0.088,-0.614 0.195,-0.829l1.358,-2.468c0.108,-0.215 0.394,-0.391 0.635,-0.391l1.812,0l0,-1.562c0,-0.241 0.197,-0.438 0.437,-0.438l9.126,0Zm-9.563,6l0,-3l-2,0l-1,3l3,0Z" style="fill:#fff;"/>
    </g>
</svg>
