<?xml version="1.0" encoding="UTF-8" standalone="no"?>
<!DOCTYPE svg PUBLIC "-//W3C//DTD SVG 1.1//EN" "http://www.w3.org/Graphics/SVG/1.1/DTD/svg11.dtd">
<svg width="16px" height="16px" version="1.1" xmlns="http://www.w3.org/2000/svg" xmlns:xlink="http://www.w3.org/1999/xlink" xml:space="preserve" style="fill-rule:evenodd;clip-rule:evenodd;stroke-linejoin:round;stroke-miterlimit:1.41421;">
    <g id="status">
        <rect x="0" y="0" width="16" height="16" style="fill:#3f7ab7;"/>
        <path d="M1.5,15c-0.276,0 -0.5,0.225 -0.5,0.5c0,0.277 0.224,0.5 0.5,0.5c0.276,0 0.5,-0.223 0.5,-0.5c0,-0.275 -0.224,-0.5 -0.5,-0.5Zm3,0c-0.276,0 -0.5,0.225 -0.5,0.5c0,0.277 0.224,0.5 0.5,0.5c0.276,0 0.5,-0.223 0.5,-0.5c0,-0.275 -0.224,-0.5 -0.5,-0.5Zm3,0c-0.276,0 -0.5,0.225 -0.5,0.5c0,0.277 0.224,0.5 0.5,0.5c0.276,0 0.5,-0.223 0.5,-0.5c0,-0.275 -0.224,-0.5 -0.5,-0.5Zm3,0c-0.276,0 -0.5,0.225 -0.5,0.5c0,0.277 0.224,0.5 0.5,0.5c0.276,0 0.5,-0.223 0.5,-0.5c0,-0.275 -0.224,-0.5 -0.5,-0.5Zm-7,-2m0,0c-0.276,0 -0.5,0.225 -0.5,0.5c0,0.277 0.224,0.5 0.5,0.5c0.276,0 0.5,-0.223 0.5,-0.5c0,-0.275 -0.224,-0.5 -0.5,-0.5Zm3,0m0,0c-0.276,0 -0.5,0.225 -0.5,0.5c0,0.277 0.224,0.5 0.5,0.5c0.276,0 0.5,-0.223 0.5,-0.5c0,-0.275 -0.224,-0.5 -0.5,-0.5Zm3,0m0,0c-0.276,0 -0.5,0.225 -0.5,0.5c0,0.277 0.224,0.5 0.5,0.5c0.276,0 0.5,-0.223 0.5,-0.5c0,-0.275 -0.224,-0.5 -0.5,-0.5Zm3,0m0,0c-0.276,0 -0.5,0.225 -0.5,0.5c0,0.277 0.224,0.5 0.5,0.5c0.276,0 0.5,-0.223 0.5,-0.5c0,-0.275 -0.224,-0.5 -0.5,-0.5Zm-11,-2c-0.276,0 -0.5,0.225 -0.5,0.5c0,0.277 0.224,0.5 0.5,0.5c0.276,0 0.5,-0.223 0.5,-0.5c0,-0.275 -0.224,-0.5 -0.5,-0.5Zm3,0c-0.276,0 -0.5,0.225 -0.5,0.5c0,0.277 0.224,0.5 0.5,0.5c0.276,0 0.5,-0.223 0.5,-0.5c0,-0.275 -0.224,-0.5 -0.5,-0.5Zm3,0c-0.276,0 -0.5,0.225 -0.5,0.5c0,0.277 0.224,0.5 0.5,0.5c0.276,0 0.5,-0.223 0.5,-0.5c0,-0.275 -0.224,-0.5 -0.5,-0.5Zm3,0c-0.276,0 -0.5,0.225 -0.5,0.5c0,0.277 0.224,0.5 0.5,0.5c0.276,0 0.5,-0.223 0.5,-0.5c0,-0.275 -0.224,-0.5 -0.5,-0.5Zm0.5,-1l-6,0c-2.2,0 -4,-1.349 -4,-3c0,-1.103 0.816,-2.062 2.008,-2.584c0.046,-1.339 1.14,-2.416 2.492,-2.416c0.338,0 0.658,0.069 0.952,0.19c0.662,-1.293 1.994,-2.19 3.548,-2.19c2.21,0 4,1.791 4,4c0,0.323 -0.048,0.631 -0.12,0.932c0.689,0.539 1.12,1.268 1.12,2.068c0,1.651 -1.8,3 -4,3Z" style="fill:#fff;"/>
    </g>
</svg>
