<?xml version="1.0" encoding="UTF-8" standalone="no"?>
<!DOCTYPE svg PUBLIC "-//W3C//DTD SVG 1.1//EN" "http://www.w3.org/Graphics/SVG/1.1/DTD/svg11.dtd">
<svg width="16px" height="16px" version="1.1" xmlns="http://www.w3.org/2000/svg" xmlns:xlink="http://www.w3.org/1999/xlink" xml:space="preserve" style="fill-rule:evenodd;clip-rule:evenodd;stroke-linejoin:round;stroke-miterlimit:1.41421;">
    <g id="status">
        <path d="M0,0l16,0l0,16l-16,0l0,-16" style="fill:#3f7ab7;fill-rule:nonzero;"/>
        <path d="M8.048,11.776c-0.716,0 -1.299,-0.577 -1.299,-1.287c0,-0.728 0.57,-1.297 1.299,-1.297c0.71,0 1.286,0.582 1.286,1.297c0,0.699 -0.588,1.287 -1.286,1.287m-0.672,-9.289l1.305,0c0.456,0 0.506,0.294 0.506,0.42l-0.281,5.038c-0.042,0.397 -0.237,0.478 -0.518,0.478l-0.693,0c-0.282,0 -0.476,-0.081 -0.519,-0.49l-0.28,-5.026c0,-0.126 0.046,-0.42 0.48,-0.42m0.624,-1.487c-3.866,0 -7,2.742 -7,6.125c0,1.603 0.711,3.058 1.863,4.15l-1.863,3.725l4.391,-2.195c0.806,0.284 1.687,0.445 2.609,0.445c3.868,0 7,-2.743 7,-6.125c0,-3.383 -3.133,-6.125 -7,-6.125" style="fill:#fff;fill-rule:nonzero;"/>
    </g>
</svg>
