<?xml version="1.0" encoding="UTF-8" standalone="no"?>
<!DOCTYPE svg PUBLIC "-//W3C//DTD SVG 1.1//EN" "http://www.w3.org/Graphics/SVG/1.1/DTD/svg11.dtd">
<svg width="16px" height="16px" version="1.1" xmlns="http://www.w3.org/2000/svg" xmlns:xlink="http://www.w3.org/1999/xlink" xml:space="preserve" style="fill-rule:evenodd;clip-rule:evenodd;stroke-linejoin:round;stroke-miterlimit:1.41421;">
    <g id="status">
        <rect x="0" y="0" width="16" height="16" style="fill:#3f7ab7;"/>
        <path d="M13,14l0,1l-10,0l0,-1l10,0Zm-7,-5c0.134,-0.127 0.238,-0.298 0.299,-0.547c0.875,-3.5 -0.924,-3.078 -0.924,-4.828c0,-0.875 0.875,-2.625 2.625,-2.625c1.75,0 2.625,1.75 2.625,2.625c0,1.75 -1.799,1.328 -0.924,4.828c0.061,0.249 0.165,0.42 0.299,0.547l3,0c0.482,0 1,0.52 1,1l0,3l-12,0l0,-3c0,-0.48 0.52,-1 1,-1l3,0Zm1.234,-3.425c0,-0.002 -0.673,-3.044 1.168,-3.754c-1.46,-0.402 -2.516,1.257 -2.079,2.406c0.438,1.147 0.91,1.348 0.911,1.348Z" style="fill:#fff;"/>
    </g>
</svg>
