<?xml version="1.0" encoding="UTF-8" standalone="no"?><!DOCTYPE svg PUBLIC "-//W3C//DTD SVG 1.1//EN" "http://www.w3.org/Graphics/SVG/1.1/DTD/svg11.dtd"><svg width="16px" height="16px" version="1.1" xmlns="http://www.w3.org/2000/svg" xmlns:xlink="http://www.w3.org/1999/xlink" xml:space="preserve" style="fill-rule:evenodd;clip-rule:evenodd;stroke-linejoin:round;stroke-miterlimit:1.41421;"><g id="status"><path d="M0,0l16,0l0,16l-16,0l0,-16" style="fill:#50b289;fill-rule:nonzero;"/><path d="M3,2l10,0l0,1l-1.057,0l-7.886,0l-1.057,0l0,-1Zm6.357,6l2.643,4l-8,0l2.643,-4l-2.643,-4l8,0l-2.643,4Zm2.586,5l1.057,0l0,1l-10,0l0,-1l8.943,0Zm-3.943,-5l1.8,-3l-3.6,0l1.8,3" style="fill:#fff;fill-rule:nonzero;"/></g></svg>