<?xml version="1.0" encoding="UTF-8" standalone="no"?>
<!DOCTYPE svg PUBLIC "-//W3C//DTD SVG 1.1//EN" "http://www.w3.org/Graphics/SVG/1.1/DTD/svg11.dtd">
<svg width="16px" height="16px" version="1.1" xmlns="http://www.w3.org/2000/svg" xmlns:xlink="http://www.w3.org/1999/xlink" xml:space="preserve" style="fill-rule:evenodd;clip-rule:evenodd;stroke-linejoin:round;stroke-miterlimit:1.41421;">
    <g id="status">
        <rect x="0" y="0" width="16" height="16" style="fill:#3f7ab7;"/>
        <path d="M15.791,9.992l-5.791,-4.256l0,-2.736c0,-0.75 -0.75,-3 -1.5,-3c-0.75,0 -1.5,2.25 -1.5,3l0,2.736l-5.79,4.256c-0.131,0.094 -0.21,0.244 -0.21,0.406l0,0.102c0,0.154 0.071,0.301 0.193,0.394c0.121,0.096 0.279,0.129 0.429,0.092l5.378,-1.447l0,4.185l-1.777,1.289c-0.139,0.094 -0.223,0.25 -0.223,0.417l0,0.07c0,0.156 0.074,0.305 0.199,0.398c0.126,0.096 0.288,0.125 0.439,0.082l2.862,-0.98l2.863,0.967c0.151,0.043 0.313,0.013 0.439,-0.082c0.125,-0.094 0.198,-0.243 0.198,-0.399l0,-0.07c0,-0.166 -0.083,-0.322 -0.222,-0.416l-1.778,-1.279l0,-3.221l0,-0.961l5.379,1.447c0.15,0.037 0.308,0.004 0.429,-0.092c0.122,-0.093 0.192,-0.24 0.192,-0.394l0,-0.102c0,-0.162 -0.078,-0.312 -0.209,-0.406" style="fill:#fff;fill-rule:nonzero;"/>
    </g>
</svg>
