<?xml version="1.0" encoding="UTF-8" standalone="no"?>
<!DOCTYPE svg PUBLIC "-//W3C//DTD SVG 1.1//EN" "http://www.w3.org/Graphics/SVG/1.1/DTD/svg11.dtd">
<svg width="16px" height="16px" version="1.1" xmlns="http://www.w3.org/2000/svg" xmlns:xlink="http://www.w3.org/1999/xlink" xml:space="preserve" style="fill-rule:evenodd;clip-rule:evenodd;stroke-linejoin:round;stroke-miterlimit:1.41421;">
    <g id="status">
        <rect x="0" y="0" width="16" height="16" style="fill:#3f7ab7;"/>
        <path d="M11.938,7.125c-1.444,0 -2.626,1.181 -2.626,2.625l0,2.625c0,1.444 1.182,2.625 2.625,2.625c1.444,0 2.625,-1.181 2.625,-2.625l0,-2.625c0,-1.444 -1.181,-2.625 -2.625,-2.625Zm-7.437,7.875l-0.875,0c-0.241,0 -0.341,-0.172 -0.223,-0.382l7.446,-13.237c0.118,-0.209 0.411,-0.381 0.652,-0.381l0.875,0c0.241,0 0.341,0.172 0.223,0.381l-7.446,13.237c-0.118,0.21 -0.411,0.381 -0.652,0.382l0,0Zm7.437,-6.125c0.475,0 0.875,0.401 0.875,0.875l0,2.625c0,0.474 -0.4,0.875 -0.875,0.875c-0.474,0 -0.875,-0.401 -0.875,-0.875l0,-2.625c0,-0.474 0.401,-0.875 0.875,-0.875Zm-7.875,-7.875c-1.443,0 -2.625,1.181 -2.625,2.625l0,2.625c0,1.444 1.182,2.625 2.625,2.625c1.444,0 2.625,-1.181 2.625,-2.625l0,-2.625c0,-1.444 -1.181,-2.625 -2.625,-2.625Zm0,1.75c0.475,0 0.875,0.401 0.875,0.875l0,2.625c0,0.474 -0.4,0.875 -0.875,0.875c-0.474,0 -0.875,-0.401 -0.875,-0.875l0,-2.625c0,-0.474 0.401,-0.875 0.875,-0.875Z" style="fill:#fff;"/>
    </g>
</svg>
