<?xml version="1.0" encoding="UTF-8" standalone="no"?>
<!DOCTYPE svg PUBLIC "-//W3C//DTD SVG 1.1//EN" "http://www.w3.org/Graphics/SVG/1.1/DTD/svg11.dtd">
<svg width="16px" height="16px" version="1.1" xmlns="http://www.w3.org/2000/svg" xmlns:xlink="http://www.w3.org/1999/xlink" xml:space="preserve" style="fill-rule:evenodd;clip-rule:evenodd;stroke-linejoin:round;stroke-miterlimit:1.41421;">
    <g id="status">
        <rect x="0" y="0" width="16" height="16" style="fill:#3f7ab7;"/>
        <path d="M13,2c0,-0.55 -0.45,-1 -1,-1l-10,0c-0.549,0 -1,0.45 -1,1l0,2c0,0.55 0.451,1 1,1l10,0c0.55,0 1,-0.45 1,-1l0,-1l1,0l0,4l-7,0l0,2l-1,0l0,4.5c0,0.829 0.672,1.5 1.5,1.5c0.829,0 1.5,-0.671 1.5,-1.5l0,-4.5l-1,0l0,-1l7,0l0,-6l-2,0Z" style="fill:#fff;fill-rule:nonzero;"/>
    </g>
</svg>
