<?xml version="1.0" encoding="UTF-8" standalone="no"?><!DOCTYPE svg PUBLIC "-//W3C//DTD SVG 1.1//EN" "http://www.w3.org/Graphics/SVG/1.1/DTD/svg11.dtd"><svg width="16px" height="16px" version="1.1" xmlns="http://www.w3.org/2000/svg" xmlns:xlink="http://www.w3.org/1999/xlink" xml:space="preserve" style="fill-rule:evenodd;clip-rule:evenodd;stroke-linejoin:round;stroke-miterlimit:1.41421;"><g id="status"><path d="M0,0l16,0l0,16l-16,0l0,-16" style="fill:#3f7ab7;fill-rule:nonzero;"/><path d="M2,8l2,0l0,3c0,0.552 0.448,1 1,1l6,0c0.552,0 1,-0.448 1,-1l0,-3l2,0l0,4c0,1.104 -0.896,2 -2,2l-8,0c-1.104,0 -2,-0.896 -2,-2l0,-4Zm6,1l-4,-4l3,0l0,-4l2,0l0,4l3,0l-4,4" style="fill:#fff;fill-rule:nonzero;"/></g></svg>