<?xml version="1.0" encoding="UTF-8" standalone="no"?>
<!DOCTYPE svg PUBLIC "-//W3C//DTD SVG 1.1//EN" "http://www.w3.org/Graphics/SVG/1.1/DTD/svg11.dtd">
<svg width="16px" height="16px" version="1.1" xmlns="http://www.w3.org/2000/svg" xmlns:xlink="http://www.w3.org/1999/xlink" xml:space="preserve" style="fill-rule:evenodd;clip-rule:evenodd;stroke-linejoin:round;stroke-miterlimit:1.41421;">
    <g id="status">
        <path d="M0,0l16,0l0,16l-16,0l0,-16" style="fill:#3f7ab7;fill-rule:nonzero;"/>
        <path d="M14.3,6.137c0.337,-0.111 0.591,-0.39 0.673,-0.736c0.081,-0.345 -0.022,-0.707 -0.273,-0.958l-3.183,-3.183c-0.251,-0.251 -0.614,-0.354 -0.959,-0.273c-0.345,0.082 -0.624,0.336 -0.736,0.673l-0.398,1.191l-2.762,2.762l-0.473,-0.473c-0.274,-0.274 -0.68,-0.37 -1.048,-0.248l-1.377,0.459c-0.167,0.056 -0.294,0.196 -0.335,0.369c-0.041,0.173 0.011,0.353 0.136,0.48l2.177,2.176l-0.923,0.921l-3.819,5.703l5.662,-3.861l0.921,-0.921l2.177,2.177c0.125,0.125 0.306,0.177 0.479,0.136c0.173,-0.041 0.313,-0.167 0.369,-0.336l0.459,-1.377c0.122,-0.367 0.026,-0.774 -0.248,-1.047l-0.473,-0.474l2.762,-2.761l1.192,-0.399l0,0Z" style="fill:#fff;fill-rule:nonzero;"/>
    </g>
</svg>
