<?xml version="1.0" encoding="UTF-8" standalone="no"?>
<!DOCTYPE svg PUBLIC "-//W3C//DTD SVG 1.1//EN" "http://www.w3.org/Graphics/SVG/1.1/DTD/svg11.dtd">
<svg width="16px" height="16px" version="1.1" xmlns="http://www.w3.org/2000/svg" xmlns:xlink="http://www.w3.org/1999/xlink" xml:space="preserve" style="fill-rule:evenodd;clip-rule:evenodd;stroke-linejoin:round;stroke-miterlimit:1.41421;">
    <g id="status">
        <rect x="0" y="0" width="16" height="16" style="fill:#3f7ab7;"/>
        <path d="M1.033,7.313c0.345,-3.543 3.333,-6.313 6.967,-6.313c0.03,0 0.06,0 0.09,0.001l0.001,0c3.626,0.046 6.588,2.85 6.885,6.41l0.001,0.017c0.03,0.376 0.031,0.755 0.001,1.131c-0.001,0.009 -0.001,0.018 -0.002,0.026c-0.001,0.013 -0.002,0.026 -0.003,0.039l-0.001,0.001l0,0.01l-0.001,0.005l0,0.001c-0.318,3.506 -3.222,6.266 -6.789,6.357c-0.014,0 -0.028,0 -0.042,0.001l-0.004,0l-0.002,0c-0.014,0 -0.029,0 -0.043,0l-0.001,0l0,0c-0.015,0.001 -0.029,0.001 -0.043,0.001l-0.002,0l-0.003,0l-0.015,0l-0.022,0l-0.001,0l-0.004,0l-0.007,0c-0.012,0 -0.023,0 -0.035,0c-3.615,-0.021 -6.581,-2.783 -6.925,-6.313l0,-0.001l0,-0.005l-0.001,-0.008l0,-0.002c-0.043,-0.451 -0.043,-0.907 0.001,-1.358Zm6.896,-4.813c-0.257,0.005 -0.513,0.025 -0.768,0.064c-0.512,0.078 -1.013,0.23 -1.483,0.449c-1.023,0.478 -1.887,1.273 -2.45,2.252c-0.279,0.485 -0.483,1.012 -0.602,1.559c-0.134,0.615 -0.161,1.253 -0.082,1.878c0.069,0.538 0.218,1.065 0.441,1.559c0.274,0.605 0.658,1.158 1.127,1.627c0.485,0.485 1.06,0.879 1.688,1.154c0.648,0.284 1.35,0.438 2.057,0.456c0.714,0.018 1.429,-0.101 2.096,-0.355c0.641,-0.244 1.235,-0.61 1.744,-1.072c0.49,-0.446 0.9,-0.98 1.202,-1.57c0.256,-0.5 0.435,-1.04 0.527,-1.594c0.099,-0.599 0.099,-1.215 0,-1.814c-0.089,-0.532 -0.257,-1.051 -0.497,-1.535c-0.523,-1.051 -1.383,-1.922 -2.427,-2.457c-0.69,-0.353 -1.446,-0.55 -2.218,-0.594c-0.119,-0.005 -0.237,-0.007 -0.355,-0.007Zm3.571,6c0,1.933 -1.567,3.5 -3.5,3.5c-1.933,0 -3.5,-1.567 -3.5,-3.5l1.33,0c0,1.198 0.972,2.17 2.17,2.17c1.198,0 2.17,-0.972 2.17,-2.17l1.33,0Zm-5.5,-4c0.552,0 1,0.672 1,1.5c0,0.828 -0.448,1.5 -1,1.5c-0.552,0 -1,-0.672 -1,-1.5c0,-0.828 0.448,-1.5 1,-1.5Zm4,0c0.552,0 1,0.672 1,1.5c0,0.828 -0.448,1.5 -1,1.5c-0.552,0 -1,-0.672 -1,-1.5c0,-0.828 0.448,-1.5 1,-1.5Z" style="fill:#fff;"/>
    </g>
</svg>
