<?xml version="1.0" encoding="UTF-8" standalone="no"?><!DOCTYPE svg PUBLIC "-//W3C//DTD SVG 1.1//EN" "http://www.w3.org/Graphics/SVG/1.1/DTD/svg11.dtd"><svg width="16px" height="16px" version="1.1" xmlns="http://www.w3.org/2000/svg" xmlns:xlink="http://www.w3.org/1999/xlink" xml:space="preserve" style="fill-rule:evenodd;clip-rule:evenodd;stroke-linejoin:round;stroke-miterlimit:1.41421;"><g id="status"><path d="M0,0l16,0l0,16l-16,0l0,-16" style="fill:#3f7ab7;fill-rule:nonzero;"/><path d="M14.727,11.676c-0.42,-0.64 -1.834,-1.037 -3.23,-1.605c-1.397,-0.568 -1.729,-0.766 -1.729,-0.766l-0.013,-1.306c0,0 0.524,-0.394 0.686,-1.623c0.327,0.092 0.671,-0.476 0.69,-0.776c0.018,-0.289 -0.044,-1.091 -0.444,-1.009c0.081,-0.604 0.14,-1.146 0.11,-1.434c-0.104,-1.049 -1.164,-2.157 -2.793,-2.157c-1.632,0 -2.693,1.108 -2.797,2.157c-0.03,0.288 0.03,0.83 0.11,1.434c-0.398,-0.082 -0.461,0.72 -0.444,1.009c0.02,0.3 0.363,0.868 0.691,0.776c0.163,1.229 0.688,1.623 0.688,1.623l-0.015,1.306c0,0 -0.332,0.198 -1.729,0.766c-1.397,0.568 -2.811,0.965 -3.231,1.605c-0.377,0.572 -0.264,3.324 -0.264,3.324l13.978,0c0,0 0.113,-2.752 -0.264,-3.324" style="fill:#fff;fill-rule:nonzero;"/></g></svg>