<?xml version="1.0" encoding="utf-8"?>
<!-- Generator: Adobe Illustrator 16.0.0, SVG Export Plug-In . SVG Version: 6.00 Build 0)  -->
<!DOCTYPE svg PUBLIC "-//W3C//DTD SVG 1.1//EN" "http://www.w3.org/Graphics/SVG/1.1/DTD/svg11.dtd">
<svg version="1.1" id="图层_1" xmlns="http://www.w3.org/2000/svg" xmlns:xlink="http://www.w3.org/1999/xlink" x="0px" y="0px"
	 width="32px" height="32px" viewBox="0 0 32 32" enable-background="new 0 0 32 32" xml:space="preserve">
<g>
	<polygon fill="#8C8C8C" points="2.217,26.332 8.132,16.42 18.399,13.833 21.97,8.922 32,5.173 32,26.951 	"/>
	<polygon fill="#FFFEFE" points="4.839,25.613 2.816,25.613 2.217,25.261 8.604,20.535 15.17,22.572 18.657,17.882 23.26,21.393 
		27.746,18.651 32,21.335 32,23.343 27.761,20.721 23.018,23.451 19.014,20.398 15.85,24.657 8.948,22.509 	"/>
	<path fill="#393A3A" d="M19.25,14.226l3.854-5.091l8.883-3.233L32,4.004L21.999,7.635l-3.788,5.005L7.152,15.317l-4.336,7.824
		V5.344c0-0.74-0.599-1.34-1.339-1.34c-0.739,0-1.339,0.6-1.339,1.34v21.607c0,0.74,0.6,1.34,1.339,1.34h29.17
		c0.74,0,1.339-0.6,1.339-1.34c0-0.739-0.599-1.338-1.339-1.338H3.49l4.844-8.747L19.25,14.226z"/>
</g>
</svg>
