<?xml version="1.0" encoding="utf-8"?>
<!-- Generator: Adobe Illustrator 16.0.0, SVG Export Plug-In . SVG Version: 6.00 Build 0)  -->
<!DOCTYPE svg PUBLIC "-//W3C//DTD SVG 1.1//EN" "http://www.w3.org/Graphics/SVG/1.1/DTD/svg11.dtd">
<svg version="1.1" id="图层_1" xmlns="http://www.w3.org/2000/svg" xmlns:xlink="http://www.w3.org/1999/xlink" x="0px" y="0px"
	 width="32px" height="32px" viewBox="0 0 32 32" enable-background="new 0 0 32 32" xml:space="preserve">
<g>
	<path fill="#FFFFFF" d="M16.742,19.343h0.656c0.294-0.008,0.654-0.131,0.654-0.66v-1.309c0-0.527-0.36-0.65-0.654-0.656h-0.656
		V19.343z"/>
	<path fill="#FFFFFF" d="M14.121,13.445v1.305c0,0.528,0.361,0.646,0.659,0.655h0.653v-2.619H14.78
		C14.482,12.794,14.121,12.914,14.121,13.445z"/>
	<path fill="#FFFFFF" d="M16.085,9.048c-3.871,0-7.012,3.139-7.012,7.016c0,3.872,3.141,7.017,7.012,7.017
		c3.879,0,7.017-3.145,7.017-7.017C23.102,12.187,19.964,9.048,16.085,9.048z M17.398,15.406c0.792,0,1.967,0.524,1.967,1.968v1.309
		c0,1.445-1.175,1.969-1.967,1.969h-0.656v0.656c0,0.361-0.294,0.654-0.655,0.654s-0.655-0.293-0.655-0.654v-0.656h-1.967
		c-0.359,0-0.656-0.297-0.656-0.654c0-0.361,0.297-0.654,0.656-0.654h1.967v-2.625H14.78c-0.796,0-1.97-0.522-1.97-1.967v-1.305
		c0-1.445,1.174-1.968,1.97-1.968h0.653v-0.659c0-0.357,0.294-0.651,0.655-0.651s0.655,0.294,0.655,0.651v0.659h1.968
		c0.361,0,0.655,0.294,0.655,0.651c0,0.365-0.294,0.658-0.655,0.658h-1.968v2.619H17.398z"/>
</g>
<path fill="#FFFFFF" d="M13.058,26.073c-4.474-0.914-7.849-5.076-7.849-9.81c0-2.219,0.765-4.246,2.012-5.889H2.625
	c-0.851,1.786-1.341,3.777-1.341,5.889c0,6.917,5.121,12.777,11.774,13.734v2.035l7.849-4l-7.849-4.127V26.073z"/>
<path fill="#FFFFFF" d="M18.941,2.044V0.033l-7.846,3.976l7.846,4.405V5.969c4.478,0.913,7.851,5.075,7.851,9.809
	c0,2.219-0.767,4.246-2.012,5.891h4.599c0.85-1.787,1.337-3.779,1.337-5.891C30.716,8.862,25.593,3,18.941,2.044z"/>
</svg>
