<?xml version="1.0" encoding="utf-8"?>
<!-- Generator: Adobe Illustrator 16.0.0, SVG Export Plug-In . SVG Version: 6.00 Build 0)  -->
<!DOCTYPE svg PUBLIC "-//W3C//DTD SVG 1.1//EN" "http://www.w3.org/Graphics/SVG/1.1/DTD/svg11.dtd">
<svg version="1.1" id="图层_1" xmlns="http://www.w3.org/2000/svg" xmlns:xlink="http://www.w3.org/1999/xlink" x="0px" y="0px"
	 width="32px" height="32px" viewBox="0 0 32 32" enable-background="new 0 0 32 32" xml:space="preserve">
<path fill="#484747" d="M30.275,12.945H8.612v-8.23c0-0.971-0.872-1.173-1.637-0.295c-2.367,2.717-3.713,4.263-5.425,6.2
	C0.333,11.998,0,12.644,0,13.203v12.105c0,0.973,0.787,1.76,1.758,1.76h28.518c0.971,0,1.758-0.787,1.758-1.76V14.703
	C32.033,13.732,31.246,12.945,30.275,12.945z M5.538,23.799H3.342v-4.142h2.196V23.799z M5.538,17.404H3.342v-4.142h2.196V17.404z
	 M14.477,23.795h-4.144v-2.196h4.144V23.795z M14.477,18.758h-4.144v-2.196h4.144V18.758z M21.64,23.795h-4.142v-2.196h4.142V23.795
	z M21.64,18.758h-4.142v-2.196h4.142V18.758z M28.805,23.795h-4.144v-2.196h4.144V23.795z M28.805,18.758h-4.144v-2.196h4.144
	V18.758z"/>
</svg>
