<?xml version="1.0" encoding="utf-8"?>
<!-- Generator: Adobe Illustrator 16.0.0, SVG Export Plug-In . SVG Version: 6.00 Build 0)  -->
<!DOCTYPE svg PUBLIC "-//W3C//DTD SVG 1.1//EN" "http://www.w3.org/Graphics/SVG/1.1/DTD/svg11.dtd">
<svg version="1.1" id="图层_1" xmlns="http://www.w3.org/2000/svg" xmlns:xlink="http://www.w3.org/1999/xlink" x="0px" y="0px"
	 width="32px" height="32px" viewBox="0 0 32 32" enable-background="new 0 0 32 32" xml:space="preserve">
<path fill="#FFFFFF" d="M6.846,23.113c-0.046-0.759,0.029-1.454,0.235-2.092c0.194-0.632,0.485-1.21,0.869-1.732
	c0.207-0.27,0.456-0.493,0.688-0.75v-4.363h-1.48c-0.059-1.025,0.059-1.931,0.308-2.736H4.995c-0.021,0.628-0.177,1.168-0.456,1.606
	c-0.265,0.438-0.62,0.785-1.041,1.033c-0.435,0.27-0.911,0.456-1.446,0.565c-0.536,0.102-1.084,0.156-1.641,0.139v3.187h3.613v8.896
	h4.612v-3.752H6.846z"/>
<g>
	<path fill="#FFFFFF" d="M18.933,16.755c0.013-0.915,0.189-1.708,0.535-2.369c0.337-0.662,0.801-1.214,1.387-1.665
		c0.59-0.426,1.277-0.751,2.045-0.966c0.771-0.207,1.581-0.316,2.454-0.316c1.13,0,2.065,0.139,2.832,0.426
		c0.759,0.291,1.374,0.649,1.843,1.054c0.46,0.418,0.793,0.856,0.986,1.312c0.202,0.459,0.3,0.852,0.3,1.176
		c0,0.81-0.105,1.434-0.315,1.872c-0.225,0.438-0.452,0.759-0.705,0.957c-0.244,0.215-0.481,0.337-0.696,0.384
		c-0.218,0.046-0.315,0.076-0.315,0.085v0.05c0,0.03,0.06,0.055,0.189,0.084c0.123,0.026,0.278,0.089,0.461,0.165
		c0.185,0.084,0.383,0.194,0.605,0.328c0.224,0.144,0.431,0.338,0.611,0.607c0.19,0.257,0.346,0.582,0.468,0.97
		c0.128,0.4,0.19,0.886,0.19,1.463c0,0.468-0.11,0.978-0.3,1.548c-0.201,0.561-0.539,1.079-1.05,1.567
		c-0.488,0.485-1.158,0.898-1.981,1.236c-0.839,0.323-1.892,0.488-3.145,0.488c-1.155,0-2.12-0.11-2.926-0.358
		c-0.797-0.245-1.45-0.561-1.961-0.94c-0.501-0.388-0.894-0.816-1.171-1.277c-0.271-0.468-0.478-0.915-0.604-1.374
		c-0.118-0.446-0.19-0.859-0.198-1.227c-0.004-0.375,0-0.649,0.017-0.844h4.203c-0.029,0.83,0.169,1.442,0.6,1.843
		c0.215,0.248,0.472,0.421,0.792,0.526c0.316,0.102,0.671,0.16,1.05,0.16c0.633,0,1.134-0.134,1.51-0.392
		c0.362-0.258,0.551-0.704,0.551-1.34c0-0.347-0.058-0.616-0.177-0.818c-0.121-0.211-0.277-0.367-0.463-0.493
		c-0.198-0.118-0.409-0.194-0.666-0.236c-0.253-0.029-0.502-0.051-0.755-0.051c-0.329,0-0.582,0.013-0.763,0.038
		c-0.186,0.013-0.358,0.051-0.523,0.08v-3.019c0.165,0.013,0.347,0.033,0.548,0.055c0.203,0.025,0.443,0.029,0.738,0.029
		c0.24,0,0.477-0.012,0.721-0.038c0.245-0.033,0.473-0.093,0.679-0.202c0.198-0.101,0.372-0.245,0.506-0.434
		c0.135-0.185,0.203-0.417,0.203-0.712c0-0.245-0.063-0.451-0.194-0.624c-0.118-0.177-0.278-0.32-0.477-0.431
		c-0.186-0.096-0.404-0.176-0.648-0.223c-0.24-0.059-0.477-0.08-0.7-0.08c-0.291,0-0.578,0.038-0.84,0.118
		c-0.273,0.089-0.501,0.203-0.687,0.372c-0.189,0.155-0.342,0.362-0.456,0.594c-0.108,0.24-0.16,0.519-0.143,0.843H18.933z"/>
</g>
<path fill="#FFFFFF" d="M21.138,21.014v-1.838h-6.986v-0.013c0.721-0.455,1.488-0.868,2.285-1.281c0.599-0.32,1.13-0.68,1.652-1.05
	v-0.258h-0.05c0.004-0.126,0.041-0.24,0.05-0.371v-0.261h0.025c0.067-0.636,0.206-1.239,0.464-1.737
	c0.333-0.661,0.805-1.214,1.396-1.656c0.27-0.207,0.62-0.292,0.932-0.439c-0.013-0.771-0.16-1.458-0.451-2.04
	c-0.304-0.616-0.729-1.125-1.277-1.518c-0.556-0.405-1.223-0.704-2.003-0.902c-0.771-0.203-1.627-0.304-2.554-0.304
	c-1.033,0-1.965,0.156-2.804,0.447s-1.543,0.733-2.112,1.294c-0.582,0.569-1.012,1.265-1.294,2.095
	c-0.274,0.834-0.388,1.774-0.328,2.837h4.169c-0.03-0.944,0.13-1.707,0.477-2.293c0.341-0.586,0.957-0.869,1.846-0.869
	c0.514,0,0.957,0.126,1.315,0.405c0.363,0.279,0.548,0.767,0.548,1.472c0,0.283-0.063,0.536-0.211,0.758
	c-0.134,0.215-0.316,0.418-0.531,0.586c-0.215,0.186-0.447,0.35-0.688,0.498c-0.245,0.147-0.464,0.274-0.646,0.396
	c-0.501,0.295-0.999,0.6-1.517,0.902c-0.51,0.304-1.016,0.616-1.493,0.954c-0.48,0.325-0.935,0.687-1.353,1.075
	c-0.421,0.38-0.801,0.793-1.121,1.239c-0.383,0.515-0.679,1.092-0.873,1.725c-0.207,0.637-0.283,1.332-0.236,2.082h10.005
	c-0.11-0.392-0.178-0.763-0.187-1.092c-0.013-0.366-0.004-0.649,0.009-0.843H21.138z"/>
</svg>
