<?xml version="1.0" encoding="utf-8"?>
<!-- Generator: Adobe Illustrator 16.0.0, SVG Export Plug-In . SVG Version: 6.00 Build 0)  -->
<!DOCTYPE svg PUBLIC "-//W3C//DTD SVG 1.1//EN" "http://www.w3.org/Graphics/SVG/1.1/DTD/svg11.dtd">
<svg version="1.1" id="图层_1" xmlns="http://www.w3.org/2000/svg" xmlns:xlink="http://www.w3.org/1999/xlink" x="0px" y="0px"
	 width="32px" height="32px" viewBox="0 0 32 32" enable-background="new 0 0 32 32" xml:space="preserve">
<g>
	<path fill="#484747" d="M29.033,3.382h-3.302V1.916h-2.112v1.466H8.513V1.916H6.401v1.466H3.098c-1.637,0-2.968,1.332-2.968,2.968
		V26.79c0,1.639,1.332,2.969,2.968,2.969h25.936c1.637,0,2.967-1.33,2.967-2.969V6.351C32,4.714,30.67,3.382,29.033,3.382z
		 M3.098,5.58h3.304v1.832h2.112V5.58h15.106v1.832h2.112V5.58h3.302c0.423,0,0.769,0.346,0.769,0.771v5.317H2.328V6.351
		C2.328,5.926,2.673,5.58,3.098,5.58z M29.033,27.56H3.098c-0.425,0-0.77-0.345-0.77-0.77V13.78h27.474v13.01
		C29.802,27.215,29.456,27.56,29.033,27.56z"/>
	<rect x="5.442" y="16.978" fill="#484747" width="5.495" height="2.112"/>
	<rect x="13.593" y="16.978" fill="#484747" width="5.496" height="2.112"/>
	<rect x="21.743" y="16.978" fill="#484747" width="5.496" height="2.112"/>
	<rect x="5.442" y="22.107" fill="#484747" width="5.495" height="2.112"/>
	<rect x="13.593" y="22.107" fill="#484747" width="5.496" height="2.112"/>
	<rect x="21.743" y="22.107" fill="#484747" width="5.496" height="2.112"/>
</g>
</svg>
