<?xml version="1.0" encoding="utf-8"?>
<!-- Generator: Adobe Illustrator 16.0.0, SVG Export Plug-In . SVG Version: 6.00 Build 0)  -->
<!DOCTYPE svg PUBLIC "-//W3C//DTD SVG 1.1//EN" "http://www.w3.org/Graphics/SVG/1.1/DTD/svg11.dtd">
<svg version="1.1" id="图层_1" xmlns="http://www.w3.org/2000/svg" xmlns:xlink="http://www.w3.org/1999/xlink" x="0px" y="0px"
	 width="56px" height="56px" viewBox="0 0 56 56" enable-background="new 0 0 56 56" xml:space="preserve">
<path fill="#FFFFFF" d="M42.157,35.607c0.575,0,1.041-0.47,1.041-1.045c0-0.572-0.466-1.042-1.041-1.042h-3.123v-1.039
	c0-0.572-0.47-1.042-1.039-1.042c-0.573,0-1.042,0.47-1.042,1.042v1.039h-1.037c-1.263,0-3.131,0.836-3.131,3.128v2.076
	c0,2.295,1.868,3.128,3.131,3.128h1.037v4.166h-3.124c-0.569,0-1.044,0.469-1.044,1.041c0,0.573,0.475,1.04,1.044,1.04h3.124v1.047
	c0,0.572,0.469,1.037,1.042,1.037c0.569,0,1.039-0.465,1.039-1.037V48.1h1.039c1.264,0,3.125-0.831,3.125-3.121v-2.083
	c0-2.293-1.861-3.121-3.125-3.121h-1.039v-4.167H42.157z M36.953,39.774h-1.037c-0.473-0.015-1.047-0.207-1.047-1.05v-2.076
	c0-0.84,0.574-1.029,1.047-1.041h1.037V39.774z M40.073,41.853c0.468,0.013,1.042,0.199,1.042,1.043v2.083
	c0,0.835-0.574,1.027-1.042,1.04h-1.039v-4.166H40.073z"/>
<path fill="#FFFFFF" d="M16.284,19.863h25.471c0.74,0,1.349-0.55,1.349-1.228c0-0.679-0.608-1.227-1.349-1.227H16.284
	c-0.744,0-1.349,0.548-1.349,1.227C14.935,19.313,15.54,19.863,16.284,19.863"/>
<path fill="#FFFFFF" d="M16.284,24.601h25.471c0.74,0,1.349-0.548,1.349-1.227c0-0.676-0.608-1.227-1.349-1.227H16.284
	c-0.744,0-1.349,0.551-1.349,1.227C14.935,24.053,15.54,24.601,16.284,24.601"/>
<path fill="#FFFFFF" d="M16.284,29.343h25.471c0.74,0,1.349-0.553,1.349-1.226c0-0.683-0.608-1.231-1.349-1.231H16.284
	c-0.744,0-1.349,0.548-1.349,1.231C14.935,28.79,15.54,29.343,16.284,29.343"/>
<path fill="#FFFFFF" d="M16.284,38.821h13.954c0.749,0,1.352-0.548,1.352-1.227s-0.603-1.227-1.352-1.227H16.284
	c-0.744,0-1.349,0.548-1.349,1.227S15.54,38.821,16.284,38.821"/>
<path fill="#FFFFFF" d="M16.284,34.081h13.954c0.749,0,1.352-0.548,1.352-1.227s-0.603-1.229-1.352-1.229H16.284
	c-0.744,0-1.349,0.55-1.349,1.229S15.54,34.081,16.284,34.081"/>
<path fill="#FFFFFF" d="M16.284,43.561h13.954c0.749,0,1.352-0.548,1.352-1.226c0-0.682-0.603-1.229-1.352-1.229H16.284
	c-0.744,0-1.349,0.547-1.349,1.229C14.935,43.013,15.54,43.561,16.284,43.561"/>
<path fill="#FFFFFF" d="M16.284,48.299h13.954c0.749,0,1.352-0.549,1.352-1.224c0-0.679-0.603-1.229-1.352-1.229H16.284
	c-0.744,0-1.349,0.551-1.349,1.229C14.935,47.75,15.54,48.299,16.284,48.299"/>
<path fill="#FFFFFF" d="M47.541,0.188H20.074c-7.501,0-14.034,7.349-14.034,13.37v39.293c0,1.749,1.422,3.166,3.168,3.166h38.333
	c1.742,0,3.162-1.417,3.162-3.166V3.356C50.703,1.611,49.283,0.188,47.541,0.188 M47.99,53.334H8.736V13.993c0,0,3.575,0,4.862,0
	c1.832,0,3.798-0.636,4.929-1.767c0.934-0.934,1.413-2.219,1.413-3.912c0-1.177-0.04-5.224-0.04-5.224h28.09V53.334z"/>
</svg>
