<?xml version="1.0" encoding="utf-8"?>
<!-- Generator: Adobe Illustrator 16.0.0, SVG Export Plug-In . SVG Version: 6.00 Build 0)  -->
<!DOCTYPE svg PUBLIC "-//W3C//DTD SVG 1.1//EN" "http://www.w3.org/Graphics/SVG/1.1/DTD/svg11.dtd">
<svg version="1.1" id="图层_1" xmlns="http://www.w3.org/2000/svg" xmlns:xlink="http://www.w3.org/1999/xlink" x="0px" y="0px"
	 width="32px" height="32px" viewBox="0 0 32 32" enable-background="new 0 0 32 32" xml:space="preserve">
<path fill="#484747" d="M25.207,31.957H6.145c-2.726,0-4.861-1.656-4.861-3.773V9.813c0-0.421,0.161-0.827,0.451-1.134l7.726-8.172
	c0.312-0.329,0.747-0.516,1.2-0.516h14.546c2.725,0,4.86,1.657,4.86,3.772v24.42C30.067,30.301,27.932,31.957,25.207,31.957z
	 M4.587,10.471v17.712c0.065,0.091,0.627,0.473,1.558,0.473h19.062c0.929,0,1.492-0.382,1.572-0.541L26.765,3.764
	c-0.065-0.087-0.629-0.472-1.558-0.472H11.373L4.587,10.471z"/>
<path fill="#484747" d="M22.431,10.947H8.92c-0.912,0-1.652-0.739-1.652-1.65c0-0.912,0.74-1.651,1.652-1.651h13.511
	c0.913,0,1.652,0.739,1.652,1.651C24.083,10.208,23.344,10.947,22.431,10.947z"/>
<path fill="#484747" d="M22.431,20.668H8.92c-0.912,0-1.652-0.738-1.652-1.65c0-0.911,0.74-1.65,1.652-1.65h13.511
	c0.913,0,1.652,0.739,1.652,1.65C24.083,19.93,23.344,20.668,22.431,20.668z"/>
<path fill="#484747" d="M16.249,25.529H8.92c-0.912,0-1.652-0.74-1.652-1.649c0-0.913,0.74-1.651,1.652-1.651h7.329
	c0.913,0,1.652,0.738,1.652,1.651C17.9,24.789,17.161,25.529,16.249,25.529z"/>
<path fill="#484747" d="M22.431,15.808H8.92c-0.912,0-1.652-0.74-1.652-1.651c0-0.912,0.74-1.651,1.652-1.651h13.511
	c0.913,0,1.652,0.739,1.652,1.651C24.083,15.068,23.344,15.808,22.431,15.808z"/>
</svg>
