<?xml version="1.0" encoding="utf-8"?>
<!-- Generator: Adobe Illustrator 16.0.0, SVG Export Plug-In . SVG Version: 6.00 Build 0)  -->
<!DOCTYPE svg PUBLIC "-//W3C//DTD SVG 1.1//EN" "http://www.w3.org/Graphics/SVG/1.1/DTD/svg11.dtd">
<svg version="1.1" id="图层_1" xmlns="http://www.w3.org/2000/svg" xmlns:xlink="http://www.w3.org/1999/xlink" x="0px" y="0px"
	 width="32px" height="32px" viewBox="0 0 32 32" enable-background="new 0 0 32 32" xml:space="preserve">
<g>
	<path fill="#484747" d="M23.194,24.658c-0.668,0-1.208,0.539-1.208,1.208v3.673H4.895V2.586h17.092v3.82
		c0,0.667,0.54,1.207,1.208,1.207c0.666,0,1.206-0.54,1.206-1.207V1.38c0-0.667-0.54-1.207-1.206-1.207H3.688
		c-0.667,0-1.207,0.54-1.207,1.207v29.364c0,0.667,0.54,1.206,1.207,1.206h19.506c0.666,0,1.206-0.539,1.206-1.206v-4.878
		C24.4,25.197,23.86,24.658,23.194,24.658z"/>
	<path fill="#484747" d="M29.864,15.06l-6.001-6.001c-0.472-0.472-1.235-0.472-1.706,0c-0.473,0.471-0.473,1.235,0,1.707
		l3.891,3.891H12.776c-0.667,0-1.207,0.54-1.207,1.207c0,0.667,0.54,1.207,1.207,1.207h13.371l-3.891,3.892
		c-0.473,0.473-0.473,1.235,0,1.708c0.235,0.235,0.544,0.353,0.854,0.353c0.309,0,0.617-0.117,0.853-0.353l5.902-5.904
		C30.334,16.294,30.334,15.531,29.864,15.06z"/>
</g>
</svg>
