<?xml version="1.0" encoding="utf-8"?>
<!-- Generator: Adobe Illustrator 16.0.0, SVG Export Plug-In . SVG Version: 6.00 Build 0)  -->
<!DOCTYPE svg PUBLIC "-//W3C//DTD SVG 1.1//EN" "http://www.w3.org/Graphics/SVG/1.1/DTD/svg11.dtd">
<svg version="1.1" id="图层_1" xmlns="http://www.w3.org/2000/svg" xmlns:xlink="http://www.w3.org/1999/xlink" x="0px" y="0px"
	 width="56px" height="56px" viewBox="0 0 56 56" enable-background="new 0 0 56 56" xml:space="preserve">
<g>
	<path fill="#FFFFFF" d="M4.427,37.48h11.107c0.325,0,0.588-0.24,0.588-0.537c0-0.295-0.264-0.534-0.588-0.534H4.427
		c-0.324,0-0.588,0.239-0.588,0.534C3.838,37.24,4.103,37.48,4.427,37.48z"/>
	<path fill="#FFFFFF" d="M4.427,39.547h11.107c0.325,0,0.588-0.24,0.588-0.536c0-0.295-0.264-0.535-0.588-0.535H4.427
		c-0.324,0-0.588,0.24-0.588,0.535C3.838,39.307,4.103,39.547,4.427,39.547z"/>
	<path fill="#FFFFFF" d="M4.427,41.615h11.107c0.325,0,0.588-0.243,0.588-0.534c0-0.301-0.264-0.539-0.588-0.539H4.427
		c-0.324,0-0.588,0.238-0.588,0.539C3.838,41.372,4.103,41.615,4.427,41.615z"/>
	<path fill="#FFFFFF" d="M15.58,44.677h-1.61c-0.323,0-0.588,0.24-0.588,0.535c0,0.296,0.266,0.535,0.588,0.535h1.61
		c0.327,0,0.589-0.239,0.589-0.535C16.169,44.917,15.907,44.677,15.58,44.677z"/>
	<path fill="#FFFFFF" d="M15.58,42.608h-1.61c-0.323,0-0.588,0.24-0.588,0.537c0,0.295,0.266,0.535,0.588,0.535h1.61
		c0.327,0,0.589-0.24,0.589-0.535C16.169,42.849,15.907,42.608,15.58,42.608z"/>
	<path fill="#FFFFFF" d="M15.58,46.743h-1.61c-0.323,0-0.588,0.239-0.588,0.535c0,0.297,0.266,0.535,0.588,0.535h1.61
		c0.327,0,0.589-0.238,0.589-0.535C16.169,46.982,15.907,46.743,15.58,46.743z"/>
	<path fill="#FFFFFF" d="M15.58,48.812h-1.61c-0.323,0-0.588,0.237-0.588,0.534c0,0.296,0.266,0.534,0.588,0.534h1.61
		c0.327,0,0.589-0.238,0.589-0.534C16.169,49.049,15.907,48.812,15.58,48.812z"/>
	<path fill="#FFFFFF" d="M6.037,44.677h-1.61c-0.324,0-0.588,0.24-0.588,0.535c0,0.296,0.264,0.535,0.588,0.535h1.61
		c0.326,0,0.589-0.239,0.589-0.535C6.626,44.917,6.362,44.677,6.037,44.677z"/>
	<path fill="#FFFFFF" d="M6.037,42.608h-1.61c-0.324,0-0.588,0.24-0.588,0.537c0,0.295,0.264,0.535,0.588,0.535h1.61
		c0.326,0,0.589-0.24,0.589-0.535C6.626,42.849,6.362,42.608,6.037,42.608z"/>
	<path fill="#FFFFFF" d="M6.037,46.743h-1.61c-0.324,0-0.588,0.239-0.588,0.535c0,0.297,0.264,0.535,0.588,0.535h1.61
		c0.326,0,0.589-0.238,0.589-0.535C6.626,46.982,6.362,46.743,6.037,46.743z"/>
	<path fill="#FFFFFF" d="M6.037,48.812h-1.61c-0.324,0-0.588,0.237-0.588,0.534c0,0.296,0.264,0.534,0.588,0.534h1.61
		c0.326,0,0.589-0.238,0.589-0.534C6.626,49.049,6.362,48.812,6.037,48.812z"/>
	<path fill="#FFFFFF" d="M28.599,4.865C13.611,4.865,1.446,16.835,1.08,31.73c-0.673,0.949-1.073,2.014-1.073,2.998v17.137
		c0,0.763,0.62,1.381,1.381,1.381h6.139l0.242-1.17H1.183V34.92c0,0,1.559,0,2.12,0c0.799,0,1.656-0.278,2.149-0.771
		c0.406-0.406,0.615-0.967,0.615-1.707c0-0.512-0.016-2.277-0.016-2.277H18.3v21.911h-6.122l-0.971-4.439
		c0.99-0.465,1.462-1.242,1.462-2.408c0-1.608-1.082-3.131-2.689-3.131s-2.71,1.303-2.71,2.91c0,1.044,0.352,1.959,1.18,2.474
		c0.078,0.05,0.161,0.09,0.243,0.13l-1.167,5.635l2.454-1.042l2.454,1.042h5.67c0.76,0,1.379-0.618,1.379-1.381v-3.468h31.552
		c3.217-4.508,5.114-10.021,5.114-15.982C56.15,17.199,43.815,4.865,28.599,4.865z M28.317,10.095c1.67,0,3.021,1.351,3.021,3.022
		c0,1.669-1.351,3.02-3.021,3.02c-1.667,0-3.021-1.35-3.021-3.02C25.295,11.446,26.649,10.095,28.317,10.095z M13.815,16.136
		c1.669,0,3.021,1.353,3.021,3.024s-1.352,3.02-3.021,3.02s-3.023-1.348-3.023-3.02S12.146,16.136,13.815,16.136z M19.484,30.28
		c0-0.095-0.036-0.179-0.055-0.269h0.055V30.28z M35.476,20.3l-3.888,12.274c0.991,0.848,1.652,2.067,1.652,3.476
		c0,2.564-2.078,4.643-4.642,4.643c-2.562,0-4.64-2.078-4.64-4.643c0-2.492,1.977-4.489,4.444-4.597l3.855-12.171
		c0.283-0.89,1.224-1.376,2.118-1.099C35.266,18.465,35.755,19.41,35.476,20.3z M40.969,19.161c0-1.671,1.354-3.024,3.023-3.024
		c1.668,0,3.019,1.353,3.019,3.024s-1.351,3.02-3.019,3.02C42.322,22.18,40.969,20.832,40.969,19.161z M48.681,35.321
		c-1.67,0-3.025-1.358-3.025-3.024c0-1.671,1.355-3.022,3.025-3.022c1.669,0,3.019,1.352,3.019,3.022
		C51.699,33.963,50.35,35.321,48.681,35.321z"/>
</g>
</svg>
