<?xml version="1.0" encoding="utf-8"?>
<!-- Generator: Adobe Illustrator 16.0.0, SVG Export Plug-In . SVG Version: 6.00 Build 0)  -->
<!DOCTYPE svg PUBLIC "-//W3C//DTD SVG 1.1//EN" "http://www.w3.org/Graphics/SVG/1.1/DTD/svg11.dtd">
<svg version="1.1" id="图层_1" xmlns="http://www.w3.org/2000/svg" xmlns:xlink="http://www.w3.org/1999/xlink" x="0px" y="0px"
	 width="32px" height="32px" viewBox="0 0 32 32" enable-background="new 0 0 32 32" xml:space="preserve">
<g>
	<path fill="#FFFFFF" d="M27.555,16.138c-0.056,6.399-5.29,11.547-11.688,11.488c-1.692-0.012-3.287-0.396-4.725-1.063l2.982-2.335
		l-10.27-3.026l0.472,10.7l3.081-2.409c2.436,1.553,5.312,2.481,8.42,2.508c8.809,0.075,16.025-7.007,16.1-15.822
		c0.012-1.245-0.135-2.451-0.395-3.612l-4.261,0.951C27.456,14.362,27.564,15.236,27.555,16.138z"/>
	<path fill="#FFFFFF" d="M0.382,19.471l4.272-0.939c-0.186-0.835-0.287-1.703-0.282-2.594C4.43,9.537,9.665,4.391,16.064,4.445
		c1.829,0.017,3.547,0.47,5.079,1.24l-2.845,2.342l10.346,2.771L27.909,0.113l-3.168,2.611c-2.485-1.644-5.438-2.624-8.637-2.654
		C7.284-0.004,0.077,7.082,0.002,15.898C-0.01,17.128,0.133,18.319,0.382,19.471z"/>
</g>
</svg>
