<?xml version="1.0" encoding="utf-8"?>
<!-- Generator: Adobe Illustrator 16.0.0, SVG Export Plug-In . SVG Version: 6.00 Build 0)  -->
<!DOCTYPE svg PUBLIC "-//W3C//DTD SVG 1.1//EN" "http://www.w3.org/Graphics/SVG/1.1/DTD/svg11.dtd">
<svg version="1.1" id="图层_1" xmlns="http://www.w3.org/2000/svg" xmlns:xlink="http://www.w3.org/1999/xlink" x="0px" y="0px"
	 width="32px" height="32px" viewBox="0 0 32 32" enable-background="new 0 0 32 32" xml:space="preserve">
<path fill="#484747" d="M17.718,10.314h-3.382V7.53h3.382V10.314z M14.336,12.217h3.382v12.301h-3.382V12.217z"/>
<path fill="#484747" d="M16.025,32.049C7.189,32.049,0,24.86,0,16.025S7.189,0,16.025,0s16.023,7.189,16.023,16.025
	S24.861,32.049,16.025,32.049z M16.025,2.667c-7.366,0-13.359,5.992-13.359,13.358c0,7.366,5.993,13.358,13.359,13.358
	c7.366,0,13.357-5.992,13.357-13.358C29.383,8.659,23.392,2.667,16.025,2.667z"/>
</svg>
