<?xml version="1.0" encoding="utf-8"?>
<!-- Generator: Adobe Illustrator 16.0.0, SVG Export Plug-In . SVG Version: 6.00 Build 0)  -->
<!DOCTYPE svg PUBLIC "-//W3C//DTD SVG 1.1//EN" "http://www.w3.org/Graphics/SVG/1.1/DTD/svg11.dtd">
<svg version="1.1" id="图层_1" xmlns="http://www.w3.org/2000/svg" xmlns:xlink="http://www.w3.org/1999/xlink" x="0px" y="0px"
	 width="32px" height="32px" viewBox="0 0 32 32" enable-background="new 0 0 32 32" xml:space="preserve">
<g>
	<path fill="#373838" d="M16.777,19.312h0.655c0.295-0.008,0.656-0.132,0.656-0.654v-1.313c0-0.534-0.361-0.652-0.656-0.66h-0.655
		V19.312z"/>
	<path fill="#373838" d="M14.148,13.403v1.309c0,0.532,0.361,0.653,0.66,0.659h0.656v-2.624h-0.656
		C14.51,12.751,14.148,12.874,14.148,13.403z"/>
	<path fill="#373838" d="M16.117,8.998c-3.881,0-7.027,3.146-7.027,7.029c0,3.881,3.146,7.03,7.027,7.03
		c3.887,0,7.03-3.149,7.03-7.03C23.147,12.144,20.004,8.998,16.117,8.998z M17.433,15.371c0.791,0,1.969,0.525,1.969,1.973v1.313
		c0,1.441-1.178,1.971-1.969,1.971h-0.655v0.652c0,0.365-0.295,0.654-0.66,0.654c-0.358,0-0.653-0.289-0.653-0.654v-0.652h-1.973
		c-0.358,0-0.659-0.303-0.659-0.66c0-0.358,0.301-0.656,0.659-0.656h1.973v-2.628h-0.656c-0.8,0-1.976-0.525-1.976-1.972v-1.309
		c0-1.447,1.175-1.972,1.976-1.972h0.656v-0.656c0-0.361,0.294-0.656,0.653-0.656c0.365,0,0.66,0.295,0.66,0.656v0.656h1.971
		c0.358,0,0.653,0.298,0.653,0.656c0,0.362-0.295,0.66-0.653,0.66h-1.971v2.624H17.433z"/>
</g>
<path fill="#373838" d="M13.083,26.059c-4.483-0.914-7.866-5.089-7.866-9.833c0-2.222,0.767-4.25,2.016-5.896H2.629
	c-0.852,1.789-1.343,3.782-1.343,5.896c0,6.93,5.131,12.808,11.797,13.76v2.045l7.863-4.008l-7.863-4.137V26.059z"/>
<path fill="#373838" d="M18.98,1.98v-2.012l-7.864,3.98l7.864,4.417V5.917c4.482,0.915,7.863,5.081,7.863,9.828
	c0,2.218-0.769,4.25-2.015,5.901h4.606c0.852-1.789,1.34-3.784,1.34-5.901C30.775,8.811,25.642,2.938,18.98,1.98z"/>
</svg>
