<?xml version="1.0" encoding="utf-8"?>
<!-- Generator: Adobe Illustrator 16.0.0, SVG Export Plug-In . SVG Version: 6.00 Build 0)  -->
<!DOCTYPE svg PUBLIC "-//W3C//DTD SVG 1.1//EN" "http://www.w3.org/Graphics/SVG/1.1/DTD/svg11.dtd">
<svg version="1.1" id="图层_1" xmlns="http://www.w3.org/2000/svg" xmlns:xlink="http://www.w3.org/1999/xlink" x="0px" y="0px"
	 width="56px" height="56px" viewBox="0 0 56 56" enable-background="new 0 0 56 56" xml:space="preserve">
<path fill="#FFFFFF" d="M47.421,0.014H19.834c-7.533,0-14.095,7.381-14.095,13.428v39.463c0,1.754,1.429,3.178,3.183,3.178h28.139
	l0.752-2.694H8.447V13.877c0,0,3.591,0,4.883,0c1.84,0,3.815-0.639,4.951-1.774c0.938-0.937,1.419-2.228,1.419-3.929
	c0-1.182-0.039-5.246-0.039-5.246h28.209v50.46H33.594l0.876,2.694h12.951c1.747,0,3.174-1.424,3.174-3.178V3.195
	C50.595,1.443,49.168,0.014,47.421,0.014z"/>
<path fill="#FFFFFF" d="M15.491,19.09h25.581c0.747,0,1.354-0.552,1.354-1.234c0-0.681-0.606-1.231-1.354-1.231H15.491
	c-0.747,0-1.355,0.55-1.355,1.231C14.136,18.538,14.744,19.09,15.491,19.09"/>
<path fill="#FFFFFF" d="M15.491,23.848h25.581c0.747,0,1.354-0.55,1.354-1.231c0-0.679-0.606-1.231-1.354-1.231H15.491
	c-0.747,0-1.355,0.553-1.355,1.231C14.136,23.298,14.744,23.848,15.491,23.848"/>
<path fill="#FFFFFF" d="M15.491,28.611h25.581c0.747,0,1.354-0.555,1.354-1.231c0-0.686-0.606-1.236-1.354-1.236H15.491
	c-0.747,0-1.355,0.55-1.355,1.236C14.136,28.056,14.744,28.611,15.491,28.611"/>
<path fill="#FFFFFF" d="M31.02,47.001c-0.214,0-0.429-0.053-0.625-0.167l-6.592-3.77c-0.606-0.346-0.817-1.117-0.47-1.721
	c0.346-0.605,1.12-0.817,1.724-0.471l4.469,2.556c0,0,0.785,0.47,1.363,0.091c0.453-0.297,0.967-1.106,0.967-1.106l6.8-9.468
	c0.409-0.565,1.203-0.693,1.768-0.289c0.564,0.406,0.696,1.196,0.285,1.765l-8.662,12.054C31.803,46.817,31.413,47.001,31.02,47.001
	z"/>
</svg>
