<?xml version="1.0" encoding="utf-8"?>
<!-- Generator: Adobe Illustrator 16.0.0, SVG Export Plug-In . SVG Version: 6.00 Build 0)  -->
<!DOCTYPE svg PUBLIC "-//W3C//DTD SVG 1.1//EN" "http://www.w3.org/Graphics/SVG/1.1/DTD/svg11.dtd">
<svg version="1.1" id="图层_1" xmlns="http://www.w3.org/2000/svg" xmlns:xlink="http://www.w3.org/1999/xlink" x="0px" y="0px"
	 width="56px" height="56px" viewBox="0 0 56 56" enable-background="new 0 0 56 56" xml:space="preserve">
<g>
	<path fill="#FFFFFF" d="M15.905,44.229c0.254,0,0.461-0.203,0.461-0.461c0-0.253-0.207-0.461-0.461-0.461h-1.383v-0.462
		c0-0.25-0.209-0.461-0.461-0.461c-0.253,0-0.46,0.211-0.46,0.461v0.462h-0.459c-0.559,0-1.385,0.37-1.385,1.384v0.922
		c0,1.013,0.826,1.384,1.385,1.384h0.459v1.841h-1.382c-0.254,0-0.462,0.209-0.462,0.465c0,0.25,0.208,0.457,0.462,0.457h1.382
		v0.462c0,0.254,0.207,0.46,0.46,0.46c0.252,0,0.461-0.206,0.461-0.46V49.76h0.461c0.557,0,1.383-0.368,1.383-1.38v-0.922
		c0-1.016-0.826-1.384-1.383-1.384h-0.461v-1.845H15.905z M13.601,46.074h-0.459c-0.21-0.004-0.464-0.09-0.464-0.461v-0.922
		c0-0.371,0.254-0.454,0.464-0.462h0.459V46.074z M14.983,46.997c0.205,0.005,0.461,0.087,0.461,0.461v0.922
		c0,0.368-0.256,0.451-0.461,0.458h-0.461v-1.841H14.983z"/>
	<path fill="#FFFFFF" d="M4.452,37.263h11.273c0.329,0,0.598-0.243,0.598-0.542c0-0.3-0.269-0.543-0.598-0.543H4.452
		c-0.329,0-0.596,0.243-0.596,0.543C3.856,37.02,4.123,37.263,4.452,37.263z"/>
	<path fill="#FFFFFF" d="M4.452,39.362h11.273c0.329,0,0.598-0.242,0.598-0.547c0-0.295-0.269-0.541-0.598-0.541H4.452
		c-0.329,0-0.596,0.246-0.596,0.541C3.856,39.12,4.123,39.362,4.452,39.362z"/>
	<path fill="#FFFFFF" d="M4.452,41.459h11.273c0.329,0,0.598-0.246,0.598-0.541c0-0.306-0.269-0.546-0.598-0.546H4.452
		c-0.329,0-0.596,0.24-0.596,0.546C3.856,41.213,4.123,41.459,4.452,41.459z"/>
	<path fill="#FFFFFF" d="M10.628,44.567H4.452c-0.329,0-0.596,0.243-0.596,0.545c0,0.3,0.267,0.543,0.596,0.543h6.177
		c0.33,0,0.598-0.243,0.598-0.543C11.226,44.811,10.958,44.567,10.628,44.567z"/>
	<path fill="#FFFFFF" d="M10.628,42.468H4.452c-0.329,0-0.596,0.247-0.596,0.545c0,0.301,0.267,0.542,0.596,0.542h6.177
		c0.33,0,0.598-0.241,0.598-0.542C11.226,42.715,10.958,42.468,10.628,42.468z"/>
	<path fill="#FFFFFF" d="M10.628,46.666H4.452c-0.329,0-0.596,0.244-0.596,0.542c0,0.304,0.267,0.542,0.596,0.542h6.177
		c0.33,0,0.598-0.238,0.598-0.542C11.226,46.91,10.958,46.666,10.628,46.666z"/>
	<path fill="#FFFFFF" d="M10.628,48.762H4.452c-0.329,0-0.596,0.246-0.596,0.545c0,0.301,0.267,0.542,0.596,0.542h6.177
		c0.33,0,0.598-0.241,0.598-0.542C11.226,49.008,10.958,48.762,10.628,48.762z"/>
	<path fill="#FFFFFF" d="M55.9,32.257c0-15.095-12.237-27.333-27.334-27.333c-14.704,0-26.663,11.617-27.276,26.171
		c-0.84,1.043-1.373,2.257-1.373,3.377v17.392c0,0.773,0.63,1.401,1.402,1.401h16.965c0.771,0,1.4-0.628,1.4-1.401v-3.751h31.141
		C54.018,43.641,55.9,38.17,55.9,32.257z M28.287,10.113c1.657,0,2.999,1.339,2.999,2.998c0,1.655-1.342,2.995-2.999,2.995
		c-1.653,0-2.998-1.34-2.998-2.995C25.289,11.453,26.634,10.113,28.287,10.113z M13.899,16.106c1.656,0,2.999,1.342,2.999,3.001
		c0,1.658-1.343,2.995-2.999,2.995c-1.656,0-2.999-1.337-2.999-2.995C10.901,17.449,12.243,16.106,13.899,16.106z M1.111,52.077
		V34.663c0,0,1.583,0,2.153,0c0.81,0,1.68-0.278,2.181-0.778c0.414-0.415,0.626-0.983,0.626-1.731c0-0.496-0.016-2.108-0.018-2.28
		h1.303c0.021-0.015,0.046-0.021,0.067-0.033h2.958c0.021,0.012,0.046,0.019,0.068,0.033h8.036v22.204H1.111z M35.388,20.237
		l-3.856,12.176c0.983,0.842,1.64,2.052,1.64,3.448c0,2.545-2.063,4.606-4.604,4.606c-2.542,0-4.603-2.062-4.603-4.606
		c0-2.472,1.961-4.454,4.408-4.56l3.825-12.075c0.281-0.882,1.215-1.365,2.102-1.089C35.18,18.416,35.667,19.355,35.388,20.237z
		 M40.839,19.107c0-1.659,1.343-3.001,2.999-3.001c1.655,0,2.995,1.342,2.995,3.001c0,1.658-1.34,2.995-2.995,2.995
		C42.182,22.103,40.839,20.766,40.839,19.107z M48.488,35.14c-1.655,0-2.999-1.347-2.999-3c0-1.658,1.344-2.999,2.999-2.999
		c1.656,0,2.997,1.341,2.997,2.999C51.485,33.793,50.145,35.14,48.488,35.14z"/>
</g>
</svg>
