<?xml version="1.0" encoding="utf-8"?>
<!-- Generator: Adobe Illustrator 16.0.0, SVG Export Plug-In . SVG Version: 6.00 Build 0)  -->
<!DOCTYPE svg PUBLIC "-//W3C//DTD SVG 1.1//EN" "http://www.w3.org/Graphics/SVG/1.1/DTD/svg11.dtd">
<svg version="1.1" id="图层_1" xmlns="http://www.w3.org/2000/svg" xmlns:xlink="http://www.w3.org/1999/xlink" x="0px" y="0px"
	 width="56px" height="56px" viewBox="0 0 56 56" enable-background="new 0 0 56 56" xml:space="preserve">
<path fill="#FFFFFF" d="M56.106,32.756c0-15.382-12.468-27.851-27.851-27.851S0.402,17.374,0.402,32.756
	c0,4.244,0.977,8.245,2.675,11.842H1.606c-0.833,0-1.513,0.676-1.513,1.513v2.481c0,0.833,0.679,1.516,1.513,1.516h5.751
	c0.721,0,1.298-0.52,1.449-1.196h1.535c0.152,0.677,0.728,1.196,1.448,1.196h5.751c0.722,0,1.298-0.52,1.448-1.196h1.502
	c0.151,0.677,0.727,1.196,1.448,1.196h5.751c0.72,0,1.297-0.52,1.448-1.196h21.795C54.186,44.354,56.106,38.782,56.106,32.756z
	 M27.97,10.193c1.688,0,3.055,1.365,3.055,3.053c0,1.689-1.367,3.052-3.055,3.052c-1.685,0-3.055-1.363-3.055-3.052
	C24.915,11.558,26.285,10.193,27.97,10.193z M11.783,30.393h5.587c0.292,0,0.551,0.118,0.754,0.298
	c0.107,0.143,0.184,0.312,0.184,0.503v2.483c0,0.472-0.386,0.855-0.859,0.855H11.7c-0.471,0-0.854-0.384-0.854-0.855v-2.483
	c0-0.191,0.074-0.358,0.18-0.5C11.228,30.511,11.49,30.393,11.783,30.393z M23.658,41.119c0,0.475-0.385,0.857-0.855,0.857h-5.753
	c-0.469,0-0.854-0.383-0.854-0.857v-2.477c0-0.475,0.385-0.855,0.854-0.855h5.753c0.471,0,0.855,0.381,0.855,0.855V41.119z
	 M13.159,38.643v2.477c0,0.475-0.382,0.857-0.856,0.857H6.553c-0.472,0-0.856-0.383-0.856-0.857v-2.477
	c0-0.475,0.384-0.855,0.856-0.855h5.749C12.776,37.787,13.159,38.168,13.159,38.643z M13.31,16.298c1.687,0,3.055,1.37,3.055,3.059
	c0,1.688-1.368,3.053-3.055,3.053c-1.687,0-3.055-1.365-3.055-3.053C10.255,17.668,11.624,16.298,13.31,16.298z M8.215,48.592
	c0,0.473-0.384,0.855-0.857,0.855H1.606c-0.471,0-0.854-0.383-0.854-0.855V46.11c0-0.476,0.382-0.858,0.854-0.858h5.751
	c0.473,0,0.857,0.383,0.857,0.858V48.592z M18.395,48.592c0,0.473-0.382,0.855-0.854,0.855H11.79c-0.471,0-0.857-0.383-0.857-0.855
	V46.11c0-0.476,0.386-0.858,0.857-0.858h5.751c0.472,0,0.854,0.383,0.854,0.858V48.592z M27.691,49.447h-5.751
	c-0.473,0-0.857-0.383-0.857-0.855V46.11c0-0.476,0.384-0.858,0.857-0.858h5.751c0.299,0,0.549,0.165,0.702,0.398
	c0.044,0.123,0.08,0.253,0.08,0.391v2.414c0,0.161-0.038,0.316-0.1,0.456h0.106C28.353,49.224,28.048,49.447,27.691,49.447z
	 M35.207,20.509l-3.932,12.406c1.001,0.857,1.668,2.092,1.668,3.513c0,2.593-2.098,4.694-4.688,4.694s-4.69-2.102-4.69-4.694
	c0-2.521,1.998-4.538,4.49-4.646l3.9-12.304c0.281-0.897,1.239-1.389,2.14-1.111C34.992,18.652,35.488,19.609,35.207,20.509z
	 M40.76,19.357c0-1.689,1.368-3.059,3.056-3.059c1.687,0,3.055,1.37,3.055,3.059c0,1.688-1.368,3.053-3.055,3.053
	C42.128,22.411,40.76,21.045,40.76,19.357z M48.553,35.693c-1.687,0-3.058-1.373-3.058-3.058c0-1.689,1.371-3.055,3.058-3.055
	s3.056,1.365,3.056,3.055C51.608,34.32,50.239,35.693,48.553,35.693z"/>
</svg>
