<?xml version="1.0" encoding="utf-8"?>
<!-- Generator: Adobe Illustrator 16.0.0, SVG Export Plug-In . SVG Version: 6.00 Build 0)  -->
<!DOCTYPE svg PUBLIC "-//W3C//DTD SVG 1.1//EN" "http://www.w3.org/Graphics/SVG/1.1/DTD/svg11.dtd">
<svg version="1.1" id="图层_1" xmlns="http://www.w3.org/2000/svg" xmlns:xlink="http://www.w3.org/1999/xlink" x="0px" y="0px"
	 width="56px" height="56px" viewBox="0 0 56 56" enable-background="new 0 0 56 56" xml:space="preserve">
<path fill="#FFFFFF" d="M28.063,7.254c-15.438,0-27.951,12.513-27.951,27.95c0,4.369,1.018,8.494,2.807,12.175h4.509
	c0.638,0,1.156,0.52,1.156,1.157v2.422c0,0.162-0.037,0.319-0.099,0.46h2.081c-0.063-0.141-0.098-0.298-0.098-0.46v-2.422
	c0-0.638,0.515-1.157,1.153-1.157h5.609c0.638,0,1.154,0.52,1.154,1.157v2.422c0,0.162-0.037,0.319-0.099,0.46h2.177
	c-0.062-0.141-0.099-0.298-0.099-0.46v-2.422c0-0.638,0.519-1.157,1.154-1.157h5.609c0.639,0,1.154,0.52,1.154,1.157v2.422
	c0,0.162-0.037,0.319-0.098,0.46h22.642c3.263-4.573,5.19-10.165,5.19-16.214C56.014,19.767,43.5,7.254,28.063,7.254z
	 M27.776,12.561c1.693,0,3.065,1.371,3.065,3.064c0,1.695-1.372,3.063-3.065,3.063c-1.691,0-3.066-1.368-3.066-3.063
	C24.71,13.932,26.085,12.561,27.776,12.561z M18.297,33.988v2.422c0,0.638-0.52,1.153-1.157,1.153h-5.607
	c-0.638,0-1.154-0.516-1.154-1.153v-2.422c0-0.637,0.516-1.157,1.154-1.157h5.607C17.777,32.831,18.297,33.352,18.297,33.988z
	 M13.064,18.688c1.693,0,3.065,1.375,3.065,3.071c0,1.693-1.372,3.063-3.065,3.063c-1.693,0-3.065-1.37-3.065-3.063
	C9.999,20.063,11.372,18.688,13.064,18.688z M13.277,43.669c0,0.639-0.518,1.157-1.156,1.157H6.515
	c-0.638,0-1.156-0.519-1.156-1.157v-2.42c0-0.638,0.518-1.152,1.156-1.152h5.606c0.638,0,1.156,0.515,1.156,1.152V43.669z
	 M23.514,43.669c0,0.639-0.518,1.157-1.156,1.157H16.75c-0.638,0-1.154-0.519-1.154-1.157v-2.42c0-0.638,0.516-1.152,1.154-1.152
	h5.608c0.638,0,1.156,0.515,1.156,1.152V43.669z M35.036,22.914l-3.943,12.451c1.007,0.859,1.677,2.099,1.677,3.526
	c0,2.602-2.107,4.708-4.707,4.708s-4.708-2.106-4.708-4.708c0-2.531,2.005-4.556,4.508-4.664l3.911-12.347
	c0.286-0.9,1.244-1.394,2.148-1.115C34.824,21.05,35.323,22.011,35.036,22.914z M40.611,21.759c0-1.696,1.374-3.071,3.065-3.071
	c1.693,0,3.065,1.375,3.065,3.071c0,1.693-1.372,3.063-3.065,3.063C41.985,24.822,40.611,23.452,40.611,21.759z M48.432,38.152
	c-1.69,0-3.066-1.378-3.066-3.067c0-1.698,1.376-3.066,3.066-3.066c1.694,0,3.065,1.368,3.065,3.066
	C51.497,36.774,50.126,38.152,48.432,38.152z"/>
</svg>
