<?xml version="1.0" encoding="utf-8"?>
<!-- Generator: Adobe Illustrator 16.0.0, SVG Export Plug-In . SVG Version: 6.00 Build 0)  -->
<!DOCTYPE svg PUBLIC "-//W3C//DTD SVG 1.1//EN" "http://www.w3.org/Graphics/SVG/1.1/DTD/svg11.dtd">
<svg version="1.1" id="图层_1" xmlns="http://www.w3.org/2000/svg" xmlns:xlink="http://www.w3.org/1999/xlink" x="0px" y="0px"
	 width="56px" height="56px" viewBox="0 0 56 56" enable-background="new 0 0 56 56" xml:space="preserve">
<g>
	<path fill="#FFFFFF" d="M14.499,18.548c0,0.68,0.608,1.232,1.355,1.232h25.542c0.746,0,1.353-0.553,1.353-1.232
		s-0.606-1.229-1.353-1.229H15.854C15.107,17.318,14.499,17.868,14.499,18.548z"/>
	<path fill="#FFFFFF" d="M15.832,24.531h25.542c0.747,0,1.354-0.548,1.354-1.229c0-0.677-0.606-1.229-1.354-1.229H15.832
		c-0.747,0-1.355,0.552-1.355,1.229C14.476,23.982,15.084,24.531,15.832,24.531z"/>
	<path fill="#FFFFFF" d="M42.705,28.058c0-0.684-0.606-1.234-1.353-1.234H15.81c-0.747,0-1.355,0.55-1.355,1.234
		c0,0.676,0.608,1.229,1.355,1.229h25.543C42.099,29.287,42.705,28.733,42.705,28.058z"/>
	<path fill="#FFFFFF" d="M41.436,36.333h-3.701c-0.744,0-1.353,0.55-1.353,1.229s0.608,1.229,1.353,1.229h3.701
		c0.749,0,1.355-0.55,1.355-1.229S42.185,36.333,41.436,36.333z"/>
	<path fill="#FFFFFF" d="M41.413,31.577h-3.701c-0.745,0-1.353,0.551-1.353,1.232c0,0.68,0.607,1.229,1.353,1.229h3.701
		c0.749,0,1.355-0.55,1.355-1.229C42.769,32.128,42.162,31.577,41.413,31.577z"/>
	<path fill="#FFFFFF" d="M41.457,41.084h-3.7c-0.744,0-1.354,0.55-1.354,1.232c0,0.68,0.609,1.229,1.354,1.229h3.7
		c0.75,0,1.356-0.55,1.356-1.229C42.813,41.634,42.207,41.084,41.457,41.084z"/>
	<path fill="#FFFFFF" d="M19.509,36.333h-3.702c-0.744,0-1.353,0.55-1.353,1.229s0.608,1.229,1.353,1.229h3.702
		c0.749,0,1.355-0.55,1.355-1.229S20.258,36.333,19.509,36.333z"/>
	<path fill="#FFFFFF" d="M19.509,31.577h-3.702c-0.744,0-1.353,0.551-1.353,1.232c0,0.68,0.608,1.229,1.353,1.229h3.702
		c0.749,0,1.355-0.55,1.355-1.229C20.864,32.128,20.258,31.577,19.509,31.577z"/>
	<path fill="#FFFFFF" d="M19.509,41.084h-3.702c-0.744,0-1.353,0.55-1.353,1.232c0,0.68,0.608,1.229,1.353,1.229h3.702
		c0.749,0,1.355-0.55,1.355-1.229C20.864,41.634,20.258,41.084,19.509,41.084z"/>
	<path fill="#FFFFFF" d="M47.254,0.11H19.708c-7.523,0-14.076,7.371-14.076,13.408v39.407c0,1.752,1.427,3.174,3.179,3.174h14.126
		l0.014-0.066l5.628-2.387l5.615,2.381l0.014,0.072h13.046c1.744,0,3.169-1.422,3.169-3.174V3.287
		C50.423,1.537,48.998,0.11,47.254,0.11z M47.702,53.408H33.688l0.31,1.602l-2.597-11.871c2.278-1.069,3.363-2.857,3.363-5.538
		c0-3.7-2.488-7.199-6.186-7.199c-3.694,0-6.229,2.994-6.229,6.693c0,2.399,0.809,4.504,2.711,5.686
		c0.18,0.112,0.37,0.203,0.561,0.298l-2.14,10.33H8.337V13.955c0,0,3.583,0,4.875,0c1.839,0,3.81-0.638,4.944-1.772
		c0.936-0.936,1.417-2.225,1.417-3.923c0-1.18-0.039-5.238-0.039-5.238h28.168V53.408z"/>
</g>
</svg>
