<?xml version="1.0" encoding="utf-8"?>
<!-- Generator: Adobe Illustrator 16.0.0, SVG Export Plug-In . SVG Version: 6.00 Build 0)  -->
<!DOCTYPE svg PUBLIC "-//W3C//DTD SVG 1.1//EN" "http://www.w3.org/Graphics/SVG/1.1/DTD/svg11.dtd">
<svg version="1.1" id="图层_1" xmlns="http://www.w3.org/2000/svg" xmlns:xlink="http://www.w3.org/1999/xlink" x="0px" y="0px"
	 width="32px" height="32px" viewBox="0 0 32 32" enable-background="new 0 0 32 32" xml:space="preserve">
<path fill="#484747" d="M29.122,11.465H2.559c-1.399,0-2.536-1.071-2.536-2.386V4.685c0-1.316,1.137-2.387,2.536-2.387h26.563
	c1.397,0,2.535,1.071,2.535,2.387v4.394C31.657,10.395,30.52,11.465,29.122,11.465z M29.153,4.685L2.559,4.802L2.527,9.079
	l26.595-0.117c0.053,0,0.079-0.019,0.079-0.019L29.153,4.685z"/>
<path fill="#484747" d="M29.122,21.082H2.559c-1.399,0-2.536-1.072-2.536-2.389V14.3c0-1.316,1.137-2.387,2.536-2.387h26.563
	c1.397,0,2.535,1.071,2.535,2.387v4.394C31.657,20.01,30.52,21.082,29.122,21.082z M29.153,14.3L2.559,14.417l-0.032,4.277
	l26.595-0.113c0.053,0,0.077-0.02,0.077-0.02L29.153,14.3z"/>
<path fill="#484747" d="M29.122,30.717H2.559c-1.399,0-2.536-1.07-2.536-2.387v-4.396c0-1.314,1.137-2.387,2.536-2.387h26.563
	c1.397,0,2.535,1.072,2.535,2.387v4.396C31.657,29.646,30.52,30.717,29.122,30.717z M29.153,23.934L2.559,24.051L2.527,28.33
	l26.595-0.117c0.053,0,0.077-0.018,0.079-0.018L29.153,23.934z"/>
<rect x="4.75" y="5.462" fill="#484747" width="1.521" height="2.836"/>
<rect x="7.606" y="5.462" fill="#484747" width="1.523" height="2.836"/>
<rect x="10.467" y="5.462" fill="#484747" width="1.518" height="2.836"/>
<rect x="25.271" y="6.13" fill="#484747" width="1.521" height="1.503"/>
<rect x="4.75" y="15.183" fill="#484747" width="1.521" height="2.836"/>
<rect x="7.606" y="15.183" fill="#484747" width="1.523" height="2.836"/>
<rect x="10.467" y="15.183" fill="#484747" width="1.518" height="2.836"/>
<rect x="25.271" y="15.847" fill="#484747" width="1.521" height="1.504"/>
<rect x="4.75" y="24.711" fill="#484747" width="1.521" height="2.84"/>
<rect x="7.606" y="24.711" fill="#484747" width="1.523" height="2.84"/>
<rect x="10.467" y="24.711" fill="#484747" width="1.518" height="2.84"/>
<rect x="25.271" y="25.379" fill="#484747" width="1.521" height="1.506"/>
</svg>
