<?xml version="1.0" encoding="utf-8"?>
<!-- Generator: Adobe Illustrator 16.0.0, SVG Export Plug-In . SVG Version: 6.00 Build 0)  -->
<!DOCTYPE svg PUBLIC "-//W3C//DTD SVG 1.1//EN" "http://www.w3.org/Graphics/SVG/1.1/DTD/svg11.dtd">
<svg version="1.1" id="图层_1" xmlns="http://www.w3.org/2000/svg" xmlns:xlink="http://www.w3.org/1999/xlink" x="0px" y="0px"
	 width="32px" height="32px" viewBox="0 0 32 32" enable-background="new 0 0 32 32" xml:space="preserve">
<path fill="#FFFFFF" d="M31.531,7.008l-7.064-6.584C24.176,0.153,23.784,0,23.388,0H1.581C0.708,0,0,0.708,0,1.581v28.871
	c0,0.872,0.708,1.579,1.581,1.579h28.874c0.869,0,1.578-0.707,1.578-1.579V8.163C32.032,7.726,31.851,7.306,31.531,7.008z
	 M19.858,3.158l-0.006,5.864h-3.835V3.158H19.858z M23.462,28.873H7.648v-8.19h15.813V28.873z M28.871,28.873h-2.254v-9.77
	c0-0.872-0.703-1.58-1.577-1.58H6.068c-0.875,0-1.581,0.708-1.581,1.58v9.77H3.164V3.158h1.32L4.469,10.6
	c0,0.417,0.169,0.821,0.462,1.121c0.3,0.295,0.703,0.46,1.118,0.46h15.38c0.872,0,1.578-0.706,1.581-1.578l0.012-7.205l5.849,5.451
	V28.873z"/>
</svg>
