<?xml version="1.0" encoding="utf-8"?>
<!-- Generator: Adobe Illustrator 16.0.0, SVG Export Plug-In . SVG Version: 6.00 Build 0)  -->
<!DOCTYPE svg PUBLIC "-//W3C//DTD SVG 1.1//EN" "http://www.w3.org/Graphics/SVG/1.1/DTD/svg11.dtd">
<svg version="1.1" id="图层_1" xmlns="http://www.w3.org/2000/svg" xmlns:xlink="http://www.w3.org/1999/xlink" x="0px" y="0px"
	 width="32px" height="32px" viewBox="0 0 32 32" enable-background="new 0 0 32 32" xml:space="preserve">
<path fill="#484747" d="M16,0.233c-0.063,0-0.124,0.008-0.188,0.011c-0.019-0.003-0.042-0.008-0.061-0.008
	c-0.023,0-0.042,0.013-0.066,0.013C7.139,0.418,0.235,7.411,0.235,16c0,8.59,6.903,15.582,15.45,15.752
	c0.024,0,0.042,0.014,0.066,0.014c0.019,0,0.042-0.006,0.061-0.008c0.063,0.002,0.124,0.01,0.188,0.01
	c8.692,0,15.765-7.072,15.765-15.768C31.765,7.306,24.692,0.233,16,0.233z M28.919,14.621h-3.094
	c-0.208-2.314-0.766-4.356-1.521-6.129c0.507-0.322,0.98-0.706,1.45-1.088C27.495,9.377,28.626,11.866,28.919,14.621z M17.104,3.541
	C18.13,4.201,19.43,5.454,20.6,7.297c-1.123,0.417-2.304,0.634-3.495,0.743V3.541z M21.929,4.428c0.634,0.325,1.241,0.687,1.81,1.11
	c-0.232,0.172-0.454,0.356-0.697,0.512C22.685,5.472,22.317,4.922,21.929,4.428z M14.399,3.694v4.328
	c-1.111-0.119-2.208-0.328-3.255-0.713C12.219,5.612,13.412,4.392,14.399,3.694z M8.7,6.061C8.503,5.934,8.322,5.784,8.132,5.644
	c0.483-0.367,0.993-0.692,1.525-0.991C9.326,5.089,9.008,5.562,8.7,6.061z M14.399,10.827v3.794H8.702
	c0.194-1.839,0.609-3.461,1.188-4.864C11.321,10.346,12.84,10.682,14.399,10.827z M14.399,17.326v3.865
	c-1.635,0.154-3.221,0.531-4.716,1.17C9.077,20.916,8.685,19.23,8.6,17.326H14.399z M14.399,23.998v4.322
	c-1.022-0.686-2.289-1.887-3.401-3.539C12.09,24.361,13.235,24.119,14.399,23.998z M9.444,27.23
	c-0.452-0.266-0.884-0.549-1.298-0.863c0.152-0.111,0.298-0.23,0.454-0.332C8.871,26.455,9.152,26.854,9.444,27.23z M17.104,28.465
	v-4.486c1.247,0.111,2.476,0.359,3.644,0.809C19.538,26.584,18.161,27.814,17.104,28.465z M23.144,26.043
	c0.201,0.135,0.389,0.285,0.584,0.43c-0.504,0.375-1.043,0.693-1.599,0.99C22.48,27.023,22.819,26.545,23.144,26.043z M17.104,21.17
	v-3.844h6.045c-0.085,1.908-0.479,3.596-1.086,5.043C20.494,21.697,18.827,21.309,17.104,21.17z M17.104,14.621v-3.773
	c1.644-0.132,3.244-0.478,4.753-1.099c0.581,1.405,0.996,3.027,1.188,4.872H17.104z M6.142,7.53c0.425,0.335,0.845,0.681,1.3,0.972
	c-0.754,1.77-1.311,3.807-1.518,6.119H3.081C3.369,11.921,4.46,9.485,6.142,7.53z M3.076,17.326h2.787
	c0.091,2.342,0.63,4.451,1.441,6.293c-0.401,0.26-0.775,0.563-1.154,0.861C4.453,22.51,3.355,20.051,3.076,17.326z M25.746,24.607
	c-0.425-0.344-0.851-0.684-1.305-0.977c0.813-1.846,1.355-3.959,1.445-6.305h3.038C28.64,20.109,27.503,22.619,25.746,24.607z"/>
</svg>
