<?xml version="1.0" encoding="utf-8"?>
<!-- Generator: Adobe Illustrator 16.0.0, SVG Export Plug-In . SVG Version: 6.00 Build 0)  -->
<!DOCTYPE svg PUBLIC "-//W3C//DTD SVG 1.1//EN" "http://www.w3.org/Graphics/SVG/1.1/DTD/svg11.dtd">
<svg version="1.1" id="图层_1" xmlns="http://www.w3.org/2000/svg" xmlns:xlink="http://www.w3.org/1999/xlink" x="0px" y="0px"
	 width="32px" height="32px" viewBox="0 0 32 32" enable-background="new 0 0 32 32" xml:space="preserve">
<g>
	<polygon fill="#C2C1C1" points="2.253,26.122 8.159,16.221 18.414,13.639 21.982,8.73 32,4.988 32,26.738 	"/>
	<polygon fill="#707070" points="4.873,25.406 2.852,25.406 2.253,25.045 8.626,20.332 15.188,22.365 18.669,17.675 23.271,21.191 
		27.75,18.449 32,21.123 32,23.134 27.766,20.513 23.021,23.246 19.023,20.189 15.865,24.451 8.976,22.306 	"/>
	<path fill="#FFFFFF" d="M19.265,14.03l3.847-5.089l8.874-3.223L32,3.821l-9.991,3.622l-3.783,5.007L7.176,15.122L2.852,22.93V5.162
		c0-0.738-0.599-1.341-1.336-1.341c-0.738,0-1.34,0.603-1.34,1.341v21.577c0,0.739,0.602,1.342,1.34,1.342h29.133
		c0.738,0,1.337-0.603,1.337-1.342c0-0.737-0.599-1.332-1.337-1.332H3.521l4.842-8.741L19.265,14.03z"/>
</g>
</svg>
