<?xml version="1.0" encoding="utf-8"?>
<!-- Generator: Adobe Illustrator 16.0.0, SVG Export Plug-In . SVG Version: 6.00 Build 0)  -->
<!DOCTYPE svg PUBLIC "-//W3C//DTD SVG 1.1//EN" "http://www.w3.org/Graphics/SVG/1.1/DTD/svg11.dtd">
<svg version="1.1" id="图层_1" xmlns="http://www.w3.org/2000/svg" xmlns:xlink="http://www.w3.org/1999/xlink" x="0px" y="0px"
	 width="32px" height="32px" viewBox="0 0 32 32" enable-background="new 0 0 32 32" xml:space="preserve">
<path fill="#484747" d="M25.915,30.492H7.732c-2.6,0-4.637-1.58-4.637-3.596V9.37c0-0.402,0.154-0.789,0.431-1.083l7.369-7.795
	C11.193,0.179,11.607,0,12.04,0h13.875c2.601,0,4.638,1.582,4.638,3.6v23.297C30.553,28.912,28.516,30.492,25.915,30.492z
	 M6.246,9.997v16.9c0.062,0.083,0.596,0.449,1.486,0.449h18.183c0.89,0,1.425-0.366,1.5-0.521L27.401,3.6
	c-0.062-0.085-0.597-0.451-1.486-0.451H12.719L6.246,9.997z"/>
<path fill="#484747" d="M23.269,10.451H10.379c-0.871,0-1.576-0.705-1.576-1.574c0-0.87,0.705-1.575,1.576-1.575h12.889
	c0.87,0,1.575,0.705,1.575,1.575C24.844,9.746,24.139,10.451,23.269,10.451z"/>
<path fill="#484747" d="M23.269,19.724H10.379c-0.871,0-1.576-0.705-1.576-1.574c0-0.87,0.705-1.575,1.576-1.575h12.889
	c0.87,0,1.575,0.705,1.575,1.575C24.844,19.019,24.139,19.724,23.269,19.724z"/>
<path fill="#484747" d="M23.269,15.088H10.379c-0.871,0-1.576-0.705-1.576-1.575c0-0.869,0.705-1.574,1.576-1.574h12.889
	c0.87,0,1.575,0.705,1.575,1.574C24.844,14.383,24.139,15.088,23.269,15.088z"/>
<circle fill="#484747" cx="8.994" cy="24.271" r="7.704"/>
<path fill="#FFFFFF" d="M13.093,23.452H9.774v-3.284c0-0.298-0.478-0.544-0.778-0.544c-0.303,0-0.812,0.246-0.812,0.544v3.284H4.898
	c-0.305,0-0.549,0.516-0.549,0.818s0.244,0.733,0.549,0.733h3.286v3.364c0,0.303,0.508,0.546,0.812,0.546
	c0.3,0,0.778-0.243,0.778-0.546v-3.364h3.319c0.303,0,0.546-0.431,0.546-0.733S13.396,23.452,13.093,23.452z"/>
</svg>
