<?xml version="1.0" encoding="utf-8"?>
<!-- Generator: Adobe Illustrator 16.0.0, SVG Export Plug-In . SVG Version: 6.00 Build 0)  -->
<!DOCTYPE svg PUBLIC "-//W3C//DTD SVG 1.1//EN" "http://www.w3.org/Graphics/SVG/1.1/DTD/svg11.dtd">
<svg version="1.1" id="图层_1" xmlns="http://www.w3.org/2000/svg" xmlns:xlink="http://www.w3.org/1999/xlink" x="0px" y="0px"
	 width="32px" height="32px" viewBox="0 0 32 32" enable-background="new 0 0 32 32" xml:space="preserve">
<g>
	<polygon opacity="0.3" fill="#828282" points="2.445,17.717 6.791,10.62 10.688,9.269 14.958,10.551 21.027,7.181 25.411,14.445 
		31.028,11.356 31.028,26.371 2.445,26.371 	"/>
	<polygon opacity="0.5" fill="#626363" points="2.445,20.306 5.857,19.865 9.903,22.203 13.835,17.391 21.176,17.391 31.028,13.785 
		31.028,27.055 2.445,25.945 	"/>
	<polygon opacity="0.5" fill="#828282" points="2.71,16.692 3.147,7.735 8.097,13.414 12.598,10.68 22.265,20.784 28.672,15.622 
		31.028,19.509 31.028,27.055 3.147,26.098 	"/>
	<path fill="#393A3A" d="M3.147,23.016c0-6.596,0-6.596,0-17.915c0-0.744-0.592-1.351-1.325-1.351c-0.732,0-1.324,0.607-1.324,1.351
		v21.754c0,0.753,0.592,1.353,1.324,1.353h28.849c0.729,0,1.329-0.6,1.329-1.353c0-0.742-0.6-1.343-1.329-1.343
		c0,0-20.073,0-26.218,0C3.497,25.513,3.147,24.867,3.147,23.016z"/>
</g>
</svg>
