<?xml version="1.0" encoding="utf-8"?>
<!-- Generator: Adobe Illustrator 16.0.0, SVG Export Plug-In . SVG Version: 6.00 Build 0)  -->
<!DOCTYPE svg PUBLIC "-//W3C//DTD SVG 1.1//EN" "http://www.w3.org/Graphics/SVG/1.1/DTD/svg11.dtd">
<svg version="1.1" id="图层_1" xmlns="http://www.w3.org/2000/svg" xmlns:xlink="http://www.w3.org/1999/xlink" x="0px" y="0px"
	 width="32px" height="32px" viewBox="0 0 32 32" enable-background="new 0 0 32 32" xml:space="preserve">
<g>
	<polygon opacity="0.3" fill="#BCBCBC" points="2.393,17.88 6.747,10.765 10.657,9.408 14.94,10.694 21.026,7.313 25.422,14.601 
		31.059,11.504 31.059,26.563 2.393,26.563 	"/>
	<polygon opacity="0.5" fill="#9E9E9E" points="2.393,20.483 5.81,20.036 9.868,22.385 13.813,17.556 21.174,17.556 31.059,13.942 
		31.059,27.25 2.393,26.137 	"/>
	<polygon opacity="0.5" fill="#E8E8E8" points="2.654,16.852 3.094,7.87 8.058,13.562 12.573,10.821 22.267,20.959 28.692,15.784 
		31.059,19.676 31.059,27.25 3.094,26.284 	"/>
	<path fill="#FFFFFF" d="M3.094,23.202c0-6.626,0-6.626,0-17.975c0-0.746-0.595-1.353-1.328-1.353c-0.733,0-1.332,0.606-1.332,1.353
		v21.825c0,0.747,0.599,1.353,1.332,1.353h28.936c0.733,0,1.329-0.605,1.329-1.353c0-0.746-0.596-1.354-1.329-1.354
		c0,0-20.137,0-26.301,0C3.443,25.699,3.094,25.051,3.094,23.202z"/>
</g>
</svg>
