<?xml version="1.0" encoding="utf-8"?>
<!-- Generator: Adobe Illustrator 16.0.0, SVG Export Plug-In . SVG Version: 6.00 Build 0)  -->
<!DOCTYPE svg PUBLIC "-//W3C//DTD SVG 1.1//EN" "http://www.w3.org/Graphics/SVG/1.1/DTD/svg11.dtd">
<svg version="1.1" id="图层_1" xmlns="http://www.w3.org/2000/svg" xmlns:xlink="http://www.w3.org/1999/xlink" x="0px" y="0px"
	 width="32px" height="32px" viewBox="0 0 32 32" enable-background="new 0 0 32 32" xml:space="preserve">
<g>
	<g>
		<path fill="#FFFFFF" d="M17.526,23.493h1.493c0.667-0.021,1.487-0.294,1.487-1.493v-2.976c0-1.209-0.82-1.482-1.487-1.504h-1.493
			V23.493z"/>
		<path fill="#FFFFFF" d="M11.554,10.066v2.976c0,1.209,0.826,1.482,1.499,1.504h1.494V8.583h-1.494
			C12.379,8.594,11.554,8.857,11.554,10.066z"/>
		<path fill="#FFFFFF" d="M16.033,0.066c-8.817,0-15.962,7.139-15.962,15.962C0.071,24.851,7.216,32,16.033,32
			C24.855,32,32,24.851,32,16.028C32,7.206,24.855,0.066,16.033,0.066z M19.02,14.546c1.798,0,4.474,1.188,4.474,4.479V22
			c0,3.281-2.676,4.47-4.474,4.47h-1.493v1.503c0,0.811-0.673,1.482-1.488,1.482c-0.825,0-1.492-0.672-1.492-1.482V26.47h-4.48
			c-0.814,0-1.493-0.673-1.493-1.482c0-0.82,0.679-1.494,1.493-1.494h4.48v-5.973h-1.494c-1.804,0-4.479-1.188-4.479-4.479v-2.976
			c0-3.291,2.676-4.469,4.479-4.469h1.494V4.094c0-0.82,0.667-1.482,1.492-1.482c0.815,0,1.488,0.662,1.488,1.482v1.503H22
			c0.82,0,1.493,0.662,1.493,1.482S22.82,8.583,22,8.583h-4.474v5.962H19.02z"/>
	</g>
</g>
</svg>
