<?xml version="1.0" encoding="utf-8"?>
<!-- Generator: Adobe Illustrator 16.0.0, SVG Export Plug-In . SVG Version: 6.00 Build 0)  -->
<!DOCTYPE svg PUBLIC "-//W3C//DTD SVG 1.1//EN" "http://www.w3.org/Graphics/SVG/1.1/DTD/svg11.dtd">
<svg version="1.1" id="图层_1" xmlns="http://www.w3.org/2000/svg" xmlns:xlink="http://www.w3.org/1999/xlink" x="0px" y="0px"
	 width="32px" height="32px" viewBox="0 0 32 32" enable-background="new 0 0 32 32" xml:space="preserve">
<path fill="#484747" d="M24.41,31c-0.022,0-0.242-0.003-0.264-0.006l-3.407,0.003c-0.759,0-1.376-0.613-1.378-1.372l-0.015-4.313
	l-4.729,0.014l-0.015,4.299c-0.002,0.759-0.618,1.372-1.378,1.372H8.894c-0.333,0.011-1.921-0.072-2.872-1.022
	c-0.863-0.858-0.981-2.653-0.974-3.647v-7.988C4.5,18.614,3.83,18.49,3.414,18.032l-2.708-2.984c-0.26-0.285-0.386-0.666-0.353-1.05
	c0.035-0.382,0.228-0.734,0.533-0.968l11.931-9.173c0.212-0.183,1.623-1.322,3.192-1.37c0,0,0,0,0.003,0
	c1.752,0,3.192,1.251,3.351,1.394l0.676,0.531V3.383c0-0.762,0.616-1.378,1.378-1.378h3.749c0.762,0,1.378,0.616,1.378,1.378v6.032
	l4.896,3.604c0.6,0.441,0.739,1.281,0.313,1.895l-2.07,2.979c-0.215,0.313-0.552,0.52-0.926,0.575
	c-0.114,0.02-0.229,0.022-0.342,0.009v8.185c0.032,0.236,0.169,2.175-0.913,3.333C26.729,30.825,25.395,31,24.41,31z M22.111,28.241
	l2.299,0.003c0.646,0,1.036-0.116,1.127-0.172c0.084-0.116,0.175-0.784,0.127-1.276l-0.006-10.879c0-0.526,0.303-1.009,0.775-1.237
	c0.478-0.232,1.042-0.17,1.453,0.153l0.367,0.289l0.47-0.678l-4.375-3.222c-0.353-0.258-0.561-0.669-0.561-1.109v-5.35h-0.993v2.487
	c0,0.527-0.301,1.009-0.774,1.241c-0.475,0.229-1.042,0.169-1.457-0.159L17.59,5.988c-0.38-0.331-1.053-0.746-1.483-0.746
	c-0.496,0.014-1.254,0.499-1.554,0.754L3.751,14.303l0.945,1.041l1.023-0.61c0.423-0.253,0.955-0.261,1.386-0.014
	c0.432,0.245,0.698,0.703,0.698,1.197v10.419c-0.003,0.691,0.113,1.553,0.238,1.778c0.028,0.011,0.441,0.127,0.822,0.127h2.986
	l0.015-4.295c0.003-0.758,0.617-1.37,1.374-1.373l7.478-0.02h0.003c0.76,0,1.375,0.614,1.378,1.373L22.111,28.241z"/>
</svg>
