<?xml version="1.0" encoding="utf-8"?>
<!-- Generator: Adobe Illustrator 16.0.0, SVG Export Plug-In . SVG Version: 6.00 Build 0)  -->
<!DOCTYPE svg PUBLIC "-//W3C//DTD SVG 1.1//EN" "http://www.w3.org/Graphics/SVG/1.1/DTD/svg11.dtd">
<svg version="1.1" id="图层_1" xmlns="http://www.w3.org/2000/svg" xmlns:xlink="http://www.w3.org/1999/xlink" x="0px" y="0px"
	 width="32px" height="32px" viewBox="0 0 32 32" enable-background="new 0 0 32 32" xml:space="preserve">
<polygon opacity="0.5" fill="#767777" points="31.304,25.849 26.736,19.904 20.937,26.863 20.067,24.508 16.18,7 10.885,19.81 
	5.568,16.425 1.058,24.508 1.058,28.499 31.304,28.499 "/>
<path fill="#484747" d="M20.937,27.56c-0.052,0-0.106-0.005-0.158-0.019c-0.256-0.059-0.458-0.258-0.519-0.515L16.003,9.25
	l-4.474,10.824c-0.08,0.19-0.238,0.338-0.434,0.398c-0.195,0.057-0.409,0.034-0.583-0.077l-4.695-2.987l-4.15,7.439
	c-0.189,0.333-0.614,0.46-0.947,0.268c-0.336-0.187-0.457-0.612-0.27-0.947l4.51-8.083c0.094-0.168,0.252-0.288,0.438-0.335
	c0.182-0.046,0.38-0.017,0.543,0.088l4.617,2.938l4.977-12.041c0.116-0.281,0.392-0.462,0.698-0.428
	c0.301,0.023,0.553,0.238,0.623,0.53l4.433,18.515l4.912-5.895c0.133-0.163,0.328-0.263,0.548-0.249
	c0.211,0.004,0.41,0.104,0.539,0.271l4.567,5.944c0.233,0.304,0.177,0.741-0.129,0.977c-0.304,0.229-0.739,0.179-0.977-0.129
	l-4.037-5.254l-5.242,6.291C21.338,27.471,21.141,27.56,20.937,27.56z"/>
</svg>
