<?xml version="1.0" encoding="utf-8"?>
<!-- Generator: Adobe Illustrator 16.0.0, SVG Export Plug-In . SVG Version: 6.00 Build 0)  -->
<!DOCTYPE svg PUBLIC "-//W3C//DTD SVG 1.1//EN" "http://www.w3.org/Graphics/SVG/1.1/DTD/svg11.dtd">
<svg version="1.1" id="图层_1" xmlns="http://www.w3.org/2000/svg" xmlns:xlink="http://www.w3.org/1999/xlink" x="0px" y="0px"
	 width="32px" height="32px" viewBox="0 0 32 32" enable-background="new 0 0 32 32" xml:space="preserve">
<path fill="#484747" d="M24.981,31.896H6.653c-1.557,0-2.823-1.316-2.823-2.934V12.041c0-1.618,1.266-2.934,2.823-2.934h18.328
	c1.557,0,2.823,1.316,2.823,2.934v16.922C27.805,30.58,26.538,31.896,24.981,31.896z M6.653,11.941l0.011,17.022l18.268,0.1
	l0.038-17.022L6.653,11.941z"/>
<path fill="#484747" d="M10.239,8.3c-0.696,0-1.304-0.512-1.402-1.221c-0.076-0.547-0.649-4.449,2.69-5.942
	c2.657-1.194,5.908-1.224,8.481-0.082c3.171,1.41,2.891,5.341,2.849,5.892c-0.062,0.777-0.727,1.356-1.519,1.302
	c-0.78-0.059-1.364-0.738-1.308-1.519c0.077-1.061-0.111-2.613-1.172-3.085c-1.832-0.813-4.256-0.78-6.174,0.078
	c-1.117,0.5-1.183,1.951-1.042,2.962c0.108,0.776-0.432,1.492-1.207,1.6C10.37,8.295,10.304,8.3,10.239,8.3z"/>
</svg>
