<?xml version="1.0" encoding="utf-8"?>
<!-- Generator: Adobe Illustrator 16.0.0, SVG Export Plug-In . SVG Version: 6.00 Build 0)  -->
<!DOCTYPE svg PUBLIC "-//W3C//DTD SVG 1.1//EN" "http://www.w3.org/Graphics/SVG/1.1/DTD/svg11.dtd">
<svg version="1.1" id="图层_1" xmlns="http://www.w3.org/2000/svg" xmlns:xlink="http://www.w3.org/1999/xlink" x="0px" y="0px"
	 width="32px" height="32px" viewBox="0 0 32 32" enable-background="new 0 0 32 32" xml:space="preserve">
<path fill="#FFFFFF" d="M15.972-0.001c4.274,0,8.326,1.735,11.289,4.683l4.683-4.683v13.694h-13.69l5.779-5.783
	c-2.111-2.105-5.011-3.343-8.061-3.343c-6.293,0-11.413,5.117-11.413,11.407c0,6.291,5.12,11.41,11.413,11.41
	c4.061,0,7.844-2.185,9.879-5.706l3.952,2.283c-2.848,4.926-8.149,7.988-13.831,7.988C7.161,31.949,0,24.778,0,15.974
	C0,7.17,7.161-0.001,15.972-0.001z"/>
</svg>
