<?xml version="1.0" encoding="utf-8"?>
<!-- Generator: Adobe Illustrator 16.0.0, SVG Export Plug-In . SVG Version: 6.00 Build 0)  -->
<!DOCTYPE svg PUBLIC "-//W3C//DTD SVG 1.1//EN" "http://www.w3.org/Graphics/SVG/1.1/DTD/svg11.dtd">
<svg version="1.1" id="图层_1" xmlns="http://www.w3.org/2000/svg" xmlns:xlink="http://www.w3.org/1999/xlink" x="0px" y="0px"
	 width="32px" height="32px" viewBox="0 0 32 32" enable-background="new 0 0 32 32" xml:space="preserve">
<path fill="#FFFFFF" d="M0,2.642v26.712h32V2.642H0z M11.748,21.738v-4.572h8.633v4.572H11.748z M20.381,23.262v4.566h-8.633v-4.566
	H20.381z M1.524,11.864h8.698v3.779H1.524V11.864z M1.524,17.166h8.698v4.572H1.524V17.166z M11.748,15.643v-3.779h8.633v3.779
	H11.748z M1.524,23.262h8.698v4.566H1.524V23.262z M30.475,27.828h-8.568v-4.566h8.568V27.828z M30.475,21.738h-8.568v-4.572h8.568
	V21.738z M21.906,15.643v-3.779h8.568v3.779H21.906z"/>
</svg>
