<?xml version="1.0" encoding="utf-8"?>
<!DOCTYPE svg PUBLIC "-//W3C//DTD SVG 1.1//EN" "http://www.w3.org/Graphics/SVG/1.1/DTD/svg11.dtd">
<svg xmlns="http://www.w3.org/2000/svg" xmlns:xlink="http://www.w3.org/1999/xlink" version="1.1" baseProfile="full" width="223" height="57" viewBox="0 0 223.00 57.00" enable-background="new 0 0 223.00 57.00" xml:space="preserve">
	<path fill="#231815" fill-opacity="1" stroke-linejoin="round" d="M 18,56L 18,28L 36.9056,1L 51.555,1L 30,31.7837L 30,56L 18,56 Z M 22.3994,12.0682L 14.677,21.961L 0,1L 14.6493,1L 22.3994,12.0682 Z "/>
	<path fill="#4285F4" fill-opacity="1" stroke-linejoin="round" d="M 67,55.9999L 67,10L 49,10L 54.8223,1L 67,0.999939L 79,0.999939L 88.2351,1L 91,10L 79,10L 79,55.9999L 67,55.9999 Z "/>
	<path fill="#EB4235" fill-opacity="1" stroke-linejoin="round" d="M 113.438,45.0179L 123.045,1L 128.542,1L 132.247,1L 137.744,1L 147.35,45.0179L 157.789,1L 168.947,1L 154.312,56L 140.258,56L 130.394,9.69629L 120.531,56L 106.476,56L 91.8419,1L 103,1L 113.438,45.0179 Z "/>
	<path fill="#FBBC05" fill-opacity="1" stroke-linejoin="round" d="M 194.5,0C 210.24,0 223,12.7599 223,28.5C 223,44.2401 210.24,57 194.5,57C 178.76,57 166,44.2401 166,28.5C 166,21.4395 168.568,14.9785 172.82,10L 180,10L 180,17.0096C 177.496,20.1656 176,24.1581 176,28.5001C 176,38.7173 184.283,47.0001 194.5,47.0001C 204.717,47.0001 213,38.7173 213,28.5001C 213,18.2828 204.717,10.0001 194.5,10.0001C 190.154,10.0001 186.158,11.4988 183,14.0077L 183,10L 183,9L 183,7L 175.791,7C 180.797,2.64014 187.34,0 194.5,0 Z "/>
</svg>
