<?xml version="1.0" encoding="UTF-8" standalone="no"?>
<!DOCTYPE svg PUBLIC "-//W3C//DTD SVG 1.1//EN" "http://www.w3.org/Graphics/SVG/1.1/DTD/svg11.dtd">
<svg width="16px" height="16px" version="1.1" xmlns="http://www.w3.org/2000/svg" xmlns:xlink="http://www.w3.org/1999/xlink" xml:space="preserve" style="fill-rule:evenodd;clip-rule:evenodd;stroke-linejoin:round;stroke-miterlimit:1.41421;">
    <g id="status">
        <path d="M0,0l16,0l0,16l-16,0l0,-16" style="fill:#3f7ab7;fill-rule:nonzero;"/>
        <path d="M9,16.001l-2,0l0,-9c0,-0.552 0.447,-1 1,-1c0.553,0 1,0.448 1,1l0,9Zm-1,-16.001c-4.418,0 -8,3.582 -8,8c0,1.559 0.455,3.005 1.227,4.233l0.851,-0.531c-0.678,-1.075 -1.078,-2.34 -1.078,-3.702c0,-3.86 3.141,-7 7,-7c3.859,0 7,3.14 7,7c0,1.362 -0.4,2.627 -1.076,3.702l0.849,0.531c0.772,-1.228 1.227,-2.674 1.227,-4.233c0,-4.418 -3.582,-8 -8,-8Zm0,3c-2.762,0 -5,2.239 -5,5c0,0.974 0.289,1.876 0.773,2.643l0.856,-0.537c-0.389,-0.612 -0.629,-1.327 -0.629,-2.106c0,-2.206 1.795,-4 4,-4c2.205,0 4,1.794 4,4c0,0.779 -0.238,1.494 -0.629,2.106l0.858,0.537c0.484,-0.767 0.771,-1.669 0.771,-2.643c0,-2.761 -2.238,-5 -5,-5l0,0Z" style="fill:#fff;"/>
    </g>
</svg>
