<?xml version="1.0" encoding="UTF-8" standalone="no"?><!DOCTYPE svg PUBLIC "-//W3C//DTD SVG 1.1//EN" "http://www.w3.org/Graphics/SVG/1.1/DTD/svg11.dtd"><svg width="16px" height="16px" version="1.1" xmlns="http://www.w3.org/2000/svg" xmlns:xlink="http://www.w3.org/1999/xlink" xml:space="preserve" style="fill-rule:evenodd;clip-rule:evenodd;stroke-linejoin:round;stroke-miterlimit:1.41421;"><g id="status"><path d="M0,0l16,0l0,16l-16,0l0,-16" style="fill:#eab766;fill-rule:nonzero;"/><path d="M1.896,11.577c0,-3.688 0.707,-3.86 1.104,-7.577l0,-1c0,-0.48 0.273,-1 1,-1l4,0c0.727,0 1,0.52 1,1l0,1c0.771,2.555 2.74,5.731 4.487,6.741l1.513,0.026l-0.003,0.469l0,0.013c-0.042,0.762 -1.721,2.302 -5.997,-0.249l0,2l-0.003,0.008l0,0.592c0,0.552 -0.446,0.999 -0.998,0.999c-0.552,0 -1,-0.447 -1,-0.999l0,-0.469l-0.002,-0.018l0,0.387c0,0.552 -0.448,0.999 -0.998,0.999c-0.552,0 -1,-0.447 -1,-0.999l0,-0.5l-0.003,0c0,0.552 -0.448,0.999 -0.999,0.999c-0.552,0 -0.998,-0.447 -1,-0.999c-0.974,0.101 -1.101,-0.547 -1.101,-1.423" style="fill:#fff;"/></g></svg>