<?xml version="1.0" encoding="UTF-8" standalone="no"?>
<!DOCTYPE svg PUBLIC "-//W3C//DTD SVG 1.1//EN" "http://www.w3.org/Graphics/SVG/1.1/DTD/svg11.dtd">
<svg width="16px" height="16px" version="1.1" xmlns="http://www.w3.org/2000/svg" xmlns:xlink="http://www.w3.org/1999/xlink" xml:space="preserve" style="fill-rule:evenodd;clip-rule:evenodd;stroke-linejoin:round;stroke-miterlimit:1.41421;">
    <g id="status">
        <path d="M0,0l16,0l0,16l-16,0l0,-16" style="fill:#3f7ab7;fill-rule:nonzero;"/>
        <path d="M11.325,13.182c-0.67,-1.246 -2.049,-3.679 -3.571,-5.59c0,0 -1.892,-0.049 -2.008,-0.136c1.195,1.659 2.49,3.807 2.88,5.572c-3.192,0.14 -5.893,1.316 -7.118,2.972l14.492,0c-1.017,-1.377 -2.453,-2.421 -4.675,-2.818l0,0Zm-8.818,-8.15c-0.677,1.23 -1.023,2.791 0.248,5.969c0,-1.653 1.199,-4.238 2,-5c1,0 2,1 2,1c0,-1 -0.258,-1.524 -0.642,-2.147c1.557,-0.072 3.978,0.155 4.642,2.147c-1,-3 -3,-4 -4,-4c1,-1 1,-1 3,-1c-3.07,-2.303 -4.956,-0.486 -5.671,0.486c-0.321,-0.66 -0.329,-1.801 -0.329,-2.486c0,0 -1.031,1.037 -1.239,2.364c-1.238,-0.362 -2.515,-1.364 -2.515,-1.364c0.44,0.439 1,2 1.394,2.228c-1.639,1.27 -1.394,4.772 -1.394,4.772c0.917,-1.834 1.589,-2.818 2.506,-2.969Z" style="fill:#fff;"/>
    </g>
</svg>
