<?xml version="1.0" encoding="UTF-8" standalone="no"?>
<!DOCTYPE svg PUBLIC "-//W3C//DTD SVG 1.1//EN" "http://www.w3.org/Graphics/SVG/1.1/DTD/svg11.dtd">
<svg width="16px" height="16px" version="1.1" xmlns="http://www.w3.org/2000/svg" xmlns:xlink="http://www.w3.org/1999/xlink" xml:space="preserve" style="fill-rule:evenodd;clip-rule:evenodd;stroke-linejoin:round;stroke-miterlimit:1.41421;">
    <g id="status">
        <rect x="0" y="0" width="16" height="16" style="fill:#3f7ab7;"/>
        <path d="M8.045,1c0.015,0 0.03,0 0.045,0.001c0.327,0.006 0.652,0.03 0.975,0.08c0.104,0.015 0.206,0.034 0.309,0.054l0.044,0.009c0.025,0.005 0.049,0.01 0.074,0.016l0.015,0.003c0.1,0.022 0.199,0.046 0.298,0.072c0.022,0.006 0.044,0.012 0.066,0.018c0.055,0.016 0.111,0.032 0.166,0.049l0.019,0.005c0.077,0.024 0.154,0.049 0.231,0.076c0.228,0.079 0.452,0.169 0.67,0.271c1.148,0.537 2.138,1.387 2.847,2.434c0.126,0.186 0.243,0.379 0.351,0.577c0.091,0.167 0.175,0.339 0.252,0.513c0.193,0.438 0.341,0.896 0.441,1.365l0.01,0.047l0.01,0.053l0.014,0.071l0.013,0.071l0.006,0.037l0.009,0.052l0.011,0.072l0.009,0.064l0.003,0.022l0.008,0.057l0.002,0.013l0.006,0.046l0.002,0.024c0.003,0.022 0.006,0.045 0.008,0.068l0,0.001c0.031,0.281 0.044,0.564 0.041,0.847c0,0.026 0,0.052 0,0.078c0,3.866 -3.134,7 -7,7c-3.866,0 -7,-3.134 -7,-7c0,-0.026 0,-0.051 0,-0.077c-0.002,-0.214 0.005,-0.428 0.022,-0.642l0,0l0,-0.002l0,-0.01l0.001,-0.006l0,-0.002l0,-0.002l0.001,-0.008l0.001,-0.007l0,-0.002l0,-0.002l0,-0.006l0.001,-0.009l0,-0.003l0,-0.001l0.001,-0.004l0.001,-0.012l0,-0.002l0,-0.001c0.002,-0.019 0.004,-0.038 0.005,-0.057l0.001,0l0,-0.002l0.001,-0.013l0,-0.003l0,-0.002l0.001,-0.003l0.001,-0.009l0,-0.005l0,-0.002l0.001,-0.003l0.001,-0.007l0,-0.006l0,-0.003l0.001,-0.003l0,-0.006l0.001,-0.007l0.001,-0.004l0,-0.002l0,-0.004l0.001,-0.009l0.001,-0.004l0,-0.002l0,-0.002l0.001,-0.011l0.001,-0.004l0,-0.001c0.001,-0.012 0.003,-0.025 0.004,-0.037l0,-0.001l0.001,-0.004l0.001,-0.011l0.001,-0.003l0,-0.001l0,-0.005l0.001,-0.009l0.001,-0.003l0,-0.003l0.001,-0.004l0.001,-0.007l0,-0.004l0.001,-0.004l0,-0.004l0.001,-0.005l0.001,-0.006l0,-0.004l0.001,-0.003l0,-0.004l0.001,-0.008l0.001,-0.004l0,-0.003l0,-0.003l0.002,-0.009l0,-0.005l0.001,-0.001l0,-0.002l0.001,-0.012l0.001,-0.004l0,-0.001c0.001,-0.006 0.002,-0.012 0.003,-0.018l0,0l0,-0.004l0.002,-0.013l0,-0.001l0.001,-0.002l0,-0.005l0.002,-0.009l0,-0.003l0,-0.002l0.001,-0.005l0.001,-0.007l0.001,-0.004l0,-0.003l0.001,-0.004l0.001,-0.006l0.001,-0.005l0,-0.004l0.001,-0.004l0,-0.004l0.001,-0.007l0.001,-0.004l0.001,-0.003l0,-0.004l0.001,-0.007l0.001,-0.006l0.001,-0.002l0,-0.002l0.002,-0.01l0,-0.005l0.001,-0.001c0.001,-0.006 0.002,-0.012 0.003,-0.018c0.059,-0.357 0.146,-0.71 0.26,-1.054c0.094,-0.282 0.206,-0.559 0.336,-0.828c0.021,-0.044 0.043,-0.089 0.066,-0.133c0.485,-0.952 1.188,-1.785 2.039,-2.427l0.002,-0.002l0.006,-0.004c0.34,-0.256 0.704,-0.482 1.086,-0.672c0.009,-0.005 0.019,-0.009 0.028,-0.014l0.014,-0.006c0.578,-0.283 1.196,-0.485 1.83,-0.599c0.095,-0.017 0.19,-0.031 0.285,-0.044c0.227,-0.031 0.454,-0.05 0.683,-0.06c0.097,-0.003 0.195,-0.005 0.293,-0.005l0.022,0Zm-0.116,1.5c-0.257,0.005 -0.513,0.025 -0.768,0.064c-0.512,0.078 -1.013,0.23 -1.483,0.449c-1.063,0.497 -1.954,1.337 -2.515,2.368c-0.246,0.453 -0.427,0.94 -0.537,1.443c-0.134,0.615 -0.161,1.253 -0.082,1.878c0.069,0.538 0.218,1.065 0.441,1.559c0.274,0.605 0.658,1.158 1.127,1.627c0.485,0.485 1.059,0.879 1.688,1.154c0.648,0.284 1.35,0.438 2.057,0.456c0.714,0.018 1.429,-0.101 2.096,-0.355c0.641,-0.244 1.235,-0.61 1.744,-1.072c0.49,-0.446 0.9,-0.98 1.202,-1.57c0.256,-0.5 0.435,-1.04 0.527,-1.594c0.099,-0.599 0.099,-1.215 0,-1.814c-0.089,-0.532 -0.257,-1.051 -0.497,-1.535c-0.523,-1.051 -1.383,-1.922 -2.427,-2.457c-0.69,-0.353 -1.446,-0.55 -2.218,-0.594c-0.119,-0.005 -0.237,-0.007 -0.355,-0.007Zm4.072,6.541c-0.104,0.498 -0.255,0.883 -0.51,1.304c-0.762,1.261 -1.906,1.992 -3.491,1.992c-1.582,0 -2.728,-0.731 -3.49,-1.992c-0.24,-0.396 -0.385,-0.756 -0.491,-1.221c-0.006,-0.029 -0.012,-0.054 -0.018,-0.083l8,0Zm-6.001,-4.541c0.552,0 1,0.672 1,1.5c0,0.828 -0.448,1.5 -1,1.5c-0.552,0 -1,-0.672 -1,-1.5c0,-0.828 0.448,-1.5 1,-1.5Zm4,0c0.552,0 1,0.672 1,1.5c0,0.828 -0.448,1.5 -1,1.5c-0.552,0 -1,-0.672 -1,-1.5c0,-0.828 0.448,-1.5 1,-1.5Z" style="fill:#fff;"/>
    </g>
</svg>
