<?xml version="1.0" encoding="UTF-8" standalone="no"?><!DOCTYPE svg PUBLIC "-//W3C//DTD SVG 1.1//EN" "http://www.w3.org/Graphics/SVG/1.1/DTD/svg11.dtd"><svg width="16px" height="16px" version="1.1" xmlns="http://www.w3.org/2000/svg" xmlns:xlink="http://www.w3.org/1999/xlink" xml:space="preserve" style="fill-rule:evenodd;clip-rule:evenodd;stroke-linejoin:round;stroke-miterlimit:1.41421;"><g id="status"><path d="M0,0l16,0l0,16l-16,0l0,-16" style="fill:#3f7ab7;fill-rule:nonzero;"/><path d="M8.09,1.001c0.327,0.006 0.652,0.031 0.975,0.08c0.654,0.1 1.294,0.294 1.894,0.574c0.789,0.368 1.507,0.885 2.108,1.515c0.563,0.591 1.023,1.279 1.35,2.027c0.289,0.662 0.475,1.369 0.548,2.088c0.077,0.766 0.03,1.545 -0.144,2.295c-0.147,0.64 -0.386,1.258 -0.707,1.832c-0.756,1.352 -1.961,2.434 -3.389,3.038c-0.832,0.352 -1.731,0.539 -2.635,0.55c-0.906,0.012 -1.813,-0.152 -2.657,-0.485c-0.813,-0.321 -1.563,-0.795 -2.202,-1.39c-0.617,-0.574 -1.129,-1.259 -1.504,-2.013c-0.319,-0.644 -0.539,-1.336 -0.647,-2.047c-0.112,-0.733 -0.108,-1.485 0.014,-2.217c0.108,-0.652 0.309,-1.288 0.596,-1.883c0.673,-1.396 1.811,-2.547 3.198,-3.237c0.591,-0.293 1.224,-0.502 1.874,-0.618c0.32,-0.057 0.643,-0.09 0.968,-0.104c0.12,-0.004 0.24,-0.006 0.36,-0.005Zm-0.161,1.5c-0.779,0.015 -1.546,0.183 -2.253,0.513c-1.063,0.496 -1.953,1.335 -2.513,2.365c-0.246,0.453 -0.428,0.941 -0.538,1.445c-0.134,0.615 -0.161,1.253 -0.081,1.877c0.071,0.562 0.23,1.111 0.469,1.623c0.28,0.601 0.67,1.149 1.144,1.612c0.491,0.479 1.071,0.866 1.702,1.133c0.654,0.276 1.36,0.422 2.07,0.431c0.712,0.009 1.425,-0.119 2.088,-0.381c0.638,-0.251 1.228,-0.624 1.73,-1.092c0.485,-0.451 0.887,-0.99 1.182,-1.583c0.251,-0.505 0.423,-1.048 0.508,-1.605c0.095,-0.623 0.084,-1.262 -0.035,-1.881c-0.105,-0.551 -0.297,-1.086 -0.565,-1.579c-0.538,-0.991 -1.383,-1.805 -2.393,-2.307c-0.696,-0.346 -1.456,-0.533 -2.231,-0.567c-0.095,-0.003 -0.189,-0.004 -0.284,-0.004Zm1.071,10.499l-2,0l0,-10l2,0l0,10Z" style="fill:#fff;"/></g></svg>