<?xml version="1.0" encoding="UTF-8" standalone="no"?><!DOCTYPE svg PUBLIC "-//W3C//DTD SVG 1.1//EN" "http://www.w3.org/Graphics/SVG/1.1/DTD/svg11.dtd"><svg width="16px" height="16px" version="1.1" xmlns="http://www.w3.org/2000/svg" xmlns:xlink="http://www.w3.org/1999/xlink" xml:space="preserve" style="fill-rule:evenodd;clip-rule:evenodd;stroke-linejoin:round;stroke-miterlimit:1.41421;"><g id="status"><path d="M0,0l16,0l0,16l-16,0l0,-16" style="fill:#3f7ab7;fill-rule:nonzero;"/><path d="M6.2,11c-0.063,-0.161 -0.075,-0.543 -0.109,-0.745c-0.034,-0.203 -0.051,-0.394 -0.051,-0.575c0,-0.285 0.028,-0.547 0.084,-0.781c0.057,-0.236 0.141,-0.458 0.253,-0.667c0.111,-0.209 0.252,-0.408 0.422,-0.596c0.169,-0.189 0.365,-0.377 0.589,-0.564c0.237,-0.2 0.444,-0.385 0.623,-0.555c0.177,-0.17 0.329,-0.341 0.454,-0.512c0.126,-0.172 0.219,-0.349 0.282,-0.532c0.062,-0.184 0.093,-0.388 0.093,-0.612c0,-0.192 -0.035,-0.37 -0.104,-0.534c-0.068,-0.164 -0.167,-0.306 -0.295,-0.424c-0.126,-0.119 -0.282,-0.212 -0.466,-0.28c-0.183,-0.068 -0.388,-0.103 -0.614,-0.103c-0.486,0 -0.99,0.108 -1.513,0.324c-0.524,0.216 -1.38,0.717 -1.848,1.156l0,-2.8c0.471,-0.277 1.344,-0.575 1.899,-0.713c0.554,-0.138 1.129,-0.207 1.722,-0.207c0.567,0 1.095,0.063 1.583,0.187c0.488,0.124 0.915,0.321 1.279,0.589c0.362,0.268 0.646,0.611 0.85,1.027c0.204,0.416 0.307,0.917 0.307,1.502c0,0.371 -0.041,0.707 -0.125,1.008c-0.084,0.302 -0.206,0.587 -0.367,0.854c-0.16,0.268 -0.359,0.524 -0.597,0.77c-0.239,0.246 -0.514,0.5 -0.824,0.763c-0.208,0.176 -0.392,0.341 -0.55,0.492c-0.158,0.152 -0.29,0.303 -0.394,0.453c-0.104,0.15 -0.183,0.308 -0.236,0.475c-0.054,0.168 -0.08,0.357 -0.08,0.569c0,0.146 0.02,0.295 0.058,0.447c0.039,0.153 0.207,0.481 0.275,0.584l-2.6,0Zm1.348,4.02c-0.487,0 -0.891,-0.144 -1.213,-0.435c-0.322,-0.301 -0.482,-0.657 -0.482,-1.066c0,-0.423 0.16,-0.775 0.482,-1.059c0.322,-0.284 0.726,-0.427 1.213,-0.427c0.479,0 0.876,0.143 1.193,0.427c0.315,0.277 0.472,0.631 0.472,1.059c0,0.433 -0.154,0.792 -0.464,1.076c-0.317,0.284 -0.717,0.425 -1.201,0.425" style="fill:#fff;fill-rule:nonzero;"/></g></svg>