<?xml version="1.0" encoding="UTF-8" standalone="no"?>
<!DOCTYPE svg PUBLIC "-//W3C//DTD SVG 1.1//EN" "http://www.w3.org/Graphics/SVG/1.1/DTD/svg11.dtd">
<svg width="16px" height="16px" version="1.1" xmlns="http://www.w3.org/2000/svg" xmlns:xlink="http://www.w3.org/1999/xlink" xml:space="preserve" style="fill-rule:evenodd;clip-rule:evenodd;stroke-linejoin:round;stroke-miterlimit:1.41421;">
    <g id="status">
        <path d="M0,0l16,0l0,16l-16,0l0,-16" style="fill:#3f7ab7;fill-rule:nonzero;"/>
        <path d="M4.478,11.378l-0.056,-0.028c0.622,-1.023 4.383,-6.949 9.151,-9.085c-2.536,1.561 -7.987,7.826 -9.095,9.113m10.455,-10.311c-8.996,0.584 -10.478,6.142 -11.62,11.093l-2.313,2.84l1.198,0l2.047,-2.632c4.804,-1.11 7.343,-3.582 7.343,-3.582l-2.011,-1.091c0,0 2.943,-0.894 3.779,-0.695c0.598,-0.49 1.96,-2.23 1.577,-5.933" style="fill:#fff;fill-rule:nonzero;"/>
    </g>
</svg>
