<?xml version="1.0" encoding="UTF-8" standalone="no"?>
<!DOCTYPE svg PUBLIC "-//W3C//DTD SVG 1.1//EN" "http://www.w3.org/Graphics/SVG/1.1/DTD/svg11.dtd">
<svg width="16px" height="16px" version="1.1" xmlns="http://www.w3.org/2000/svg" xmlns:xlink="http://www.w3.org/1999/xlink" xml:space="preserve" style="fill-rule:evenodd;clip-rule:evenodd;stroke-linejoin:round;stroke-miterlimit:1.41421;">
    <g id="status">
        <rect x="0" y="0" width="16" height="16" style="fill:#3f7ab7;"/>
        <path d="M1.033,7.313c0.345,-3.543 3.333,-6.313 6.967,-6.313c0.03,0 0.06,0 0.09,0.001l0.001,0c3.626,0.046 6.588,2.85 6.885,6.41l0.001,0.017c0.024,0.295 0.029,0.591 0.016,0.887c-0.001,0.024 -0.002,0.048 -0.003,0.072c-0.002,0.024 -0.003,0.048 -0.005,0.072c-0.001,0.024 -0.003,0.048 -0.005,0.073c0,0 -0.001,0.018 -0.001,0.018l-0.001,0.009c-0.001,0.009 -0.001,0.018 -0.002,0.026l0,0.001l-0.002,0.018c0,0 -0.001,0.018 -0.001,0.018l0,0.002l-0.001,0.001l0,0.01l-0.001,0.005l0,0.001c-0.318,3.506 -3.222,6.266 -6.789,6.357c-0.014,0 -0.028,0 -0.042,0.001l-0.004,0l-0.002,0c-0.014,0 -0.029,0 -0.043,0l-0.001,0l0,0c-0.015,0.001 -0.029,0.001 -0.043,0.001l-0.002,0l-0.003,0l-0.015,0l-0.022,0l-0.001,0l-0.004,0l-0.007,0c-0.012,0 -0.023,0 -0.035,0c-3.615,-0.021 -6.581,-2.783 -6.925,-6.313l0,-0.001l0,-0.005l-0.001,-0.008l0,-0.002l0,-0.003l-0.002,-0.017c-0.004,-0.046 -0.008,-0.092 -0.012,-0.139c-0.001,-0.023 -0.003,-0.046 -0.004,-0.069c-0.018,-0.278 -0.019,-0.557 -0.003,-0.835c0.001,-0.023 0.002,-0.046 0.004,-0.069c0.001,-0.023 0.003,-0.046 0.005,-0.07c0.002,-0.023 0.003,-0.046 0.005,-0.069c0.003,-0.029 0.005,-0.058 0.008,-0.087Zm6.896,-4.813c-0.257,0.005 -0.513,0.025 -0.768,0.064c-0.512,0.078 -1.013,0.23 -1.483,0.449c-1.043,0.488 -1.921,1.305 -2.483,2.31c-0.273,0.489 -0.471,1.019 -0.583,1.568c-0.127,0.617 -0.146,1.256 -0.059,1.879c0.079,0.559 0.244,1.104 0.489,1.612c0.288,0.597 0.685,1.141 1.165,1.599c0.496,0.473 1.081,0.853 1.716,1.113c0.658,0.269 1.366,0.406 2.077,0.406c0.711,0 1.419,-0.137 2.077,-0.406c0.635,-0.26 1.22,-0.64 1.716,-1.114c0.48,-0.457 0.877,-1.001 1.165,-1.598c0.235,-0.487 0.397,-1.009 0.479,-1.543c0.095,-0.623 0.083,-1.262 -0.036,-1.881c-0.101,-0.529 -0.281,-1.042 -0.533,-1.519c-0.548,-1.037 -1.429,-1.887 -2.486,-2.397c-0.7,-0.338 -1.463,-0.516 -2.239,-0.54c-0.072,-0.002 -0.143,-0.002 -0.214,-0.002Zm3.071,7.5l-6,0l0,-1l6,0l0,1Zm-5,-5.5c0.552,0 1,0.672 1,1.5c0,0.828 -0.448,1.5 -1,1.5c-0.552,0 -1,-0.672 -1,-1.5c0,-0.828 0.448,-1.5 1,-1.5Zm4,0c0.552,0 1,0.672 1,1.5c0,0.828 -0.448,1.5 -1,1.5c-0.552,0 -1,-0.672 -1,-1.5c0,-0.828 0.448,-1.5 1,-1.5Z" style="fill:#fff;"/>
    </g>
</svg>
