<?xml version="1.0" encoding="UTF-8" standalone="no"?>
<!DOCTYPE svg PUBLIC "-//W3C//DTD SVG 1.1//EN" "http://www.w3.org/Graphics/SVG/1.1/DTD/svg11.dtd">
<svg width="16px" height="16px" version="1.1" xmlns="http://www.w3.org/2000/svg" xmlns:xlink="http://www.w3.org/1999/xlink" xml:space="preserve" style="fill-rule:evenodd;clip-rule:evenodd;stroke-linejoin:round;stroke-miterlimit:1.41421;">
    <g id="status">
        <path d="M0,0l16,0l0,16l-16,0l0,-16" style="fill:#3f7ab7;fill-rule:nonzero;"/>
        <path d="M9.509,10.569c-0.001,0.354 -0.256,0.408 -0.408,0.408l-2.642,0c-0.152,0 -0.408,-0.054 -0.408,-0.408l0,-0.674c0,-0.354 0.256,-0.407 0.408,-0.407l0.401,0l0,-2.666l-0.411,0c-0.153,0 -0.408,-0.053 -0.408,-0.407l0,-0.674c0,-0.355 0.255,-0.407 0.408,-0.407l1.843,0c0.152,0 0.408,0.052 0.408,0.407l0,3.747l0.401,0c0.152,0 0.407,0.053 0.407,0.407l0,0.674Zm-1.733,-7.618c0.613,0 1.111,0.499 1.111,1.112c0,0.618 -0.498,1.122 -1.111,1.122c-0.619,0 -1.123,-0.504 -1.123,-1.122c0,-0.623 0.494,-1.112 1.123,-1.112m0.225,-1.951c-3.866,0 -7,2.743 -7,6.125c0,1.604 0.711,3.059 1.863,4.151l-1.863,3.724l4.391,-2.194c0.806,0.284 1.687,0.444 2.609,0.444c3.867,0 7,-2.742 7,-6.125c0,-3.382 -3.133,-6.125 -7,-6.125" style="fill:#fff;fill-rule:nonzero;"/>
    </g>
</svg>
