<?xml version="1.0" encoding="UTF-8" standalone="no"?>
<!DOCTYPE svg PUBLIC "-//W3C//DTD SVG 1.1//EN" "http://www.w3.org/Graphics/SVG/1.1/DTD/svg11.dtd">
<svg width="16px" height="16px" version="1.1" xmlns="http://www.w3.org/2000/svg" xmlns:xlink="http://www.w3.org/1999/xlink" xml:space="preserve" style="fill-rule:evenodd;clip-rule:evenodd;stroke-linejoin:round;stroke-miterlimit:1.41421;">
    <g id="status">
        <rect x="0" y="0" width="16" height="16" style="fill:#3f7ab7;"/>
        <path d="M8.09,1.001l0.091,0.001l0.089,0.003l0.09,0.004l0.089,0.005l0.089,0.006l0.089,0.008l0.088,0.008l0.088,0.01l0.088,0.01l0.087,0.012l0.087,0.013l0.087,0.014l0.086,0.014l0.086,0.016l0.086,0.017l0.085,0.018l0.085,0.019l0.084,0.02l0.085,0.022l0.083,0.022l0.083,0.023l0.083,0.024l0.083,0.025l0.082,0.026l0.081,0.027l0.081,0.028l0.081,0.029l0.08,0.03l0.08,0.031l0.079,0.032l0.079,0.032l0.078,0.034l0.078,0.035l0.077,0.035l0.077,0.037l0.076,0.037l0.076,0.038l0.075,0.039l0.074,0.04l0.075,0.041l0.073,0.042l0.073,0.043l0.073,0.043l0.071,0.044l0.072,0.045l0.071,0.046l0.07,0.047l0.069,0.048l0.069,0.048l0.068,0.049l0.068,0.05l0.067,0.051l0.067,0.052l0.065,0.052l0.066,0.053l0.064,0.054l0.064,0.055l0.063,0.055l0.063,0.056l0.061,0.057l0.062,0.058l0.06,0.058l0.06,0.059l0.059,0.06l0.058,0.06l0.058,0.062l0.057,0.061l0.056,0.063l0.055,0.063l0.055,0.064l0.054,0.064l0.053,0.066l0.052,0.065l0.052,0.067l0.051,0.067l0.05,0.068l0.049,0.068l0.048,0.069l0.048,0.069l0.047,0.07l0.046,0.071l0.045,0.072l0.044,0.071l0.043,0.073l0.043,0.073l0.042,0.073l0.041,0.075l0.04,0.074l0.039,0.075l0.038,0.076l0.037,0.076l0.037,0.077l0.035,0.077l0.035,0.078l0.034,0.078l0.032,0.079l0.032,0.079l0.031,0.08l0.03,0.08l0.029,0.081l0.028,0.081l0.027,0.081l0.026,0.082l0.025,0.083l0.024,0.083l0.023,0.083l0.022,0.083l0.022,0.085l0.02,0.084l0.019,0.085l0.018,0.085l0.017,0.086l0.016,0.086l0.014,0.086l0.014,0.087l0.013,0.087l0.012,0.087l0.01,0.088l0.01,0.088l0.008,0.088l0.008,0.089l0.006,0.089l0.005,0.089l0.004,0.09l0.003,0.089l0.001,0.091l0.001,0.09l-0.001,0.09l-0.001,0.091l-0.003,0.089l-0.004,0.09l-0.005,0.089l-0.006,0.089l-0.008,0.089l-0.008,0.088l-0.01,0.088l-0.01,0.088l-0.012,0.087l-0.013,0.087l-0.014,0.087l-0.014,0.086l-0.016,0.086l-0.017,0.086l-0.018,0.085l-0.019,0.085l-0.02,0.084l-0.022,0.085l-0.022,0.083l-0.023,0.083l-0.024,0.083l-0.025,0.083l-0.026,0.082l-0.027,0.081l-0.028,0.081l-0.029,0.081l-0.03,0.08l-0.031,0.08l-0.032,0.079l-0.032,0.079l-0.034,0.078l-0.035,0.078l-0.035,0.077l-0.037,0.077l-0.037,0.076l-0.038,0.076l-0.039,0.075l-0.04,0.074l-0.041,0.075l-0.042,0.073l-0.043,0.073l-0.043,0.073l-0.044,0.071l-0.045,0.072l-0.046,0.071l-0.047,0.07l-0.048,0.069l-0.048,0.069l-0.049,0.068l-0.05,0.068l-0.051,0.067l-0.052,0.067l-0.052,0.065l-0.053,0.066l-0.054,0.064l-0.055,0.064l-0.055,0.063l-0.056,0.063l-0.057,0.061l-0.058,0.062l-0.058,0.06l-0.059,0.06l-0.06,0.059l-0.06,0.058l-0.062,0.058l-0.061,0.057l-0.063,0.056l-0.063,0.055l-0.064,0.055l-0.064,0.054l-0.066,0.053l-0.065,0.052l-0.067,0.052l-0.067,0.051l-0.068,0.05l-0.068,0.049l-0.069,0.048l-0.069,0.048l-0.07,0.047l-0.071,0.046l-0.072,0.045l-0.071,0.044l-0.073,0.043l-0.073,0.043l-0.073,0.042l-0.075,0.041l-0.074,0.04l-0.075,0.039l-0.076,0.038l-0.076,0.037l-0.077,0.037l-0.077,0.035l-0.078,0.035l-0.078,0.034l-0.079,0.032l-0.079,0.032l-0.08,0.031l-0.08,0.03l-0.081,0.029l-0.081,0.028l-0.081,0.027l-0.082,0.026l-0.083,0.025l-0.083,0.024l-0.083,0.023l-0.083,0.022l-0.085,0.022l-0.084,0.02l-0.085,0.019l-0.085,0.018l-0.086,0.017l-0.086,0.016l-0.086,0.014l-0.087,0.014l-0.087,0.013l-0.087,0.012l-0.088,0.01l-0.088,0.01l-0.088,0.008l-0.089,0.008l-0.089,0.006l-0.089,0.005l-0.09,0.004l-0.089,0.003l-0.091,0.001l-0.09,0.001l-0.09,-0.001l-0.091,-0.001l-0.089,-0.003l-0.09,-0.004l-0.089,-0.005l-0.089,-0.006l-0.089,-0.008l-0.088,-0.008l-0.088,-0.01l-0.088,-0.01l-0.087,-0.012l-0.087,-0.013l-0.087,-0.014l-0.086,-0.014l-0.086,-0.016l-0.086,-0.017l-0.085,-0.018l-0.085,-0.019l-0.084,-0.02l-0.085,-0.022l-0.083,-0.022l-0.083,-0.023l-0.083,-0.024l-0.083,-0.025l-0.082,-0.026l-0.081,-0.027l-0.081,-0.028l-0.081,-0.029l-0.08,-0.03l-0.08,-0.031l-0.079,-0.032l-0.079,-0.032l-0.078,-0.034l-0.078,-0.035l-0.077,-0.035l-0.077,-0.037l-0.076,-0.037l-0.076,-0.038l-0.075,-0.039l-0.074,-0.04l-0.075,-0.041l-0.073,-0.042l-0.073,-0.043l-0.073,-0.043l-0.071,-0.044l-0.072,-0.045l-0.071,-0.046l-0.07,-0.047l-0.069,-0.048l-0.069,-0.048l-0.068,-0.049l-0.068,-0.05l-0.067,-0.051l-0.067,-0.052l-0.065,-0.052l-0.066,-0.053l-0.064,-0.054l-0.064,-0.055l-0.063,-0.055l-0.063,-0.056l-0.061,-0.057l-0.062,-0.058l-0.06,-0.058l-0.06,-0.059l-0.059,-0.06l-0.058,-0.06l-0.058,-0.062l-0.057,-0.061l-0.056,-0.063l-0.055,-0.063l-0.055,-0.064l-0.054,-0.064l-0.053,-0.066l-0.052,-0.065l-0.052,-0.067l-0.051,-0.067l-0.05,-0.068l-0.049,-0.068l-0.048,-0.069l-0.048,-0.069l-0.047,-0.07l-0.046,-0.071l-0.045,-0.072l-0.044,-0.071l-0.043,-0.073l-0.043,-0.073l-0.042,-0.073l-0.041,-0.075l-0.04,-0.074l-0.039,-0.075l-0.038,-0.076l-0.037,-0.076l-0.037,-0.077l-0.035,-0.077l-0.035,-0.078l-0.034,-0.078l-0.032,-0.079l-0.032,-0.079l-0.031,-0.08l-0.03,-0.08l-0.029,-0.081l-0.028,-0.081l-0.027,-0.081l-0.026,-0.082l-0.025,-0.083l-0.024,-0.083l-0.023,-0.083l-0.022,-0.083l-0.022,-0.085l-0.02,-0.084l-0.019,-0.085l-0.018,-0.085l-0.017,-0.086l-0.016,-0.086l-0.014,-0.086l-0.014,-0.087l-0.013,-0.087l-0.012,-0.087l-0.01,-0.088l-0.01,-0.088l-0.008,-0.088l-0.008,-0.089l-0.006,-0.089l-0.005,-0.089l-0.004,-0.09l-0.003,-0.089l-0.001,-0.091l-0.001,-0.09l0.001,-0.09l0.001,-0.091l0.003,-0.089l0.004,-0.09l0.005,-0.089l0.006,-0.089l0.008,-0.089l0.008,-0.088l0.01,-0.088l0.01,-0.088l0.012,-0.087l0.013,-0.087l0.014,-0.087l0.014,-0.086l0.016,-0.086l0.017,-0.086l0.018,-0.085l0.019,-0.085l0.02,-0.084l0.022,-0.085l0.022,-0.083l0.023,-0.083l0.024,-0.083l0.025,-0.083l0.026,-0.082l0.027,-0.081l0.028,-0.081l0.029,-0.081l0.03,-0.08l0.031,-0.08l0.032,-0.079l0.032,-0.079l0.034,-0.078l0.035,-0.078l0.035,-0.077l0.037,-0.077l0.037,-0.076l0.038,-0.076l0.039,-0.075l0.04,-0.074l0.041,-0.075l0.042,-0.073l0.043,-0.073l0.043,-0.073l0.044,-0.071l0.045,-0.072l0.046,-0.071l0.047,-0.07l0.048,-0.069l0.048,-0.069l0.049,-0.068l0.05,-0.068l0.051,-0.067l0.052,-0.067l0.052,-0.065l0.053,-0.066l0.054,-0.064l0.055,-0.064l0.055,-0.063l0.056,-0.063l0.057,-0.061l0.058,-0.062l0.058,-0.06l0.059,-0.06l0.06,-0.059l0.06,-0.058l0.062,-0.058l0.061,-0.057l0.063,-0.056l0.063,-0.055l0.064,-0.055l0.064,-0.054l0.066,-0.053l0.065,-0.052l0.067,-0.052l0.067,-0.051l0.068,-0.05l0.068,-0.049l0.069,-0.048l0.069,-0.048l0.07,-0.047l0.071,-0.046l0.072,-0.045l0.071,-0.044l0.073,-0.043l0.073,-0.043l0.073,-0.042l0.075,-0.041l0.074,-0.04l0.075,-0.039l0.076,-0.038l0.076,-0.037l0.077,-0.037l0.077,-0.035l0.078,-0.035l0.078,-0.034l0.079,-0.032l0.079,-0.032l0.08,-0.031l0.08,-0.03l0.081,-0.029l0.081,-0.028l0.081,-0.027l0.082,-0.026l0.083,-0.025l0.083,-0.024l0.083,-0.023l0.083,-0.022l0.085,-0.022l0.084,-0.02l0.085,-0.019l0.085,-0.018l0.086,-0.017l0.086,-0.016l0.086,-0.014l0.087,-0.014l0.087,-0.013l0.087,-0.012l0.088,-0.01l0.088,-0.01l0.088,-0.008l0.089,-0.008l0.089,-0.006l0.089,-0.005l0.09,-0.004l0.089,-0.003l0.091,-0.001l0.09,-0.001l0.09,0.001Zm-0.161,1.499l-0.071,0.002l-0.071,0.002l-0.071,0.003l-0.07,0.004l-0.07,0.005l-0.07,0.006l-0.07,0.007l-0.069,0.007l-0.069,0.008l-0.068,0.009l-0.069,0.011l-0.068,0.01l-0.067,0.012l-0.068,0.013l-0.067,0.013l-0.067,0.014l-0.066,0.015l-0.067,0.016l-0.065,0.016l-0.066,0.018l-0.065,0.018l-0.065,0.019l-0.065,0.019l-0.064,0.021l-0.064,0.021l-0.063,0.022l-0.064,0.022l-0.063,0.024l-0.062,0.024l-0.062,0.025l-0.062,0.026l-0.061,0.026l-0.061,0.027l-0.061,0.028l-0.06,0.029l-0.06,0.029l-0.059,0.03l-0.06,0.031l-0.058,0.031l-0.058,0.032l-0.058,0.033l-0.058,0.034l-0.056,0.034l-0.057,0.035l-0.056,0.035l-0.056,0.036l-0.055,0.037l-0.054,0.037l-0.055,0.039l-0.053,0.038l-0.054,0.04l-0.052,0.04l-0.053,0.04l-0.051,0.041l-0.052,0.042l-0.05,0.043l-0.051,0.043l-0.049,0.043l-0.05,0.044l-0.048,0.045l-0.048,0.045l-0.048,0.046l-0.047,0.047l-0.047,0.047l-0.046,0.048l-0.045,0.048l-0.045,0.048l-0.044,0.049l-0.043,0.05l-0.043,0.051l-0.043,0.05l-0.042,0.052l-0.041,0.051l-0.04,0.053l-0.04,0.052l-0.04,0.054l-0.038,0.053l-0.039,0.055l-0.037,0.054l-0.037,0.055l-0.036,0.056l-0.035,0.056l-0.035,0.057l-0.034,0.056l-0.034,0.058l-0.033,0.058l-0.032,0.058l-0.031,0.058l-0.031,0.06l-0.03,0.059l-0.029,0.06l-0.029,0.06l-0.028,0.061l-0.027,0.061l-0.026,0.061l-0.026,0.062l-0.025,0.062l-0.024,0.062l-0.024,0.063l-0.022,0.064l-0.022,0.063l-0.021,0.064l-0.021,0.064l-0.02,0.065l-0.018,0.065l-0.018,0.065l-0.018,0.066l-0.016,0.065l-0.016,0.067l-0.015,0.066l-0.014,0.067l-0.013,0.067l-0.013,0.068l-0.012,0.067l-0.011,0.068l-0.01,0.069l-0.009,0.068l-0.008,0.069l-0.007,0.069l-0.007,0.07l-0.006,0.07l-0.005,0.07l-0.004,0.07l-0.003,0.071l-0.002,0.07l-0.002,0.072l0,0.071l0,0.071l0.002,0.072l0.002,0.07l0.003,0.071l0.004,0.07l0.005,0.07l0.006,0.07l0.007,0.07l0.007,0.069l0.008,0.069l0.009,0.068l0.01,0.069l0.011,0.068l0.012,0.067l0.013,0.068l0.013,0.067l0.014,0.067l0.015,0.066l0.016,0.067l0.016,0.065l0.018,0.066l0.018,0.065l0.018,0.065l0.02,0.065l0.021,0.064l0.021,0.064l0.022,0.063l0.022,0.064l0.024,0.063l0.024,0.062l0.025,0.062l0.026,0.062l0.026,0.061l0.027,0.061l0.028,0.061l0.029,0.06l0.029,0.06l0.03,0.059l0.031,0.06l0.031,0.058l0.032,0.058l0.033,0.058l0.034,0.058l0.034,0.056l0.035,0.057l0.035,0.056l0.036,0.056l0.037,0.055l0.037,0.054l0.039,0.055l0.038,0.053l0.04,0.054l0.04,0.052l0.04,0.053l0.041,0.051l0.042,0.052l0.043,0.05l0.043,0.051l0.043,0.05l0.044,0.049l0.045,0.048l0.045,0.048l0.046,0.048l0.047,0.047l0.047,0.047l0.048,0.046l0.048,0.045l0.048,0.045l0.05,0.044l0.049,0.043l0.051,0.043l0.05,0.043l0.052,0.042l0.051,0.041l0.053,0.04l0.052,0.04l0.054,0.04l0.053,0.038l0.055,0.039l0.054,0.037l0.055,0.037l0.056,0.036l0.056,0.035l0.057,0.035l0.056,0.034l0.058,0.034l0.058,0.033l0.058,0.032l0.058,0.031l0.06,0.031l0.059,0.03l0.06,0.029l0.06,0.029l0.061,0.028l0.061,0.027l0.061,0.026l0.062,0.026l0.062,0.025l0.062,0.024l0.063,0.024l0.064,0.022l0.063,0.022l0.064,0.021l0.064,0.021l0.065,0.019l0.065,0.019l0.065,0.018l0.066,0.018l0.065,0.016l0.067,0.016l0.066,0.015l0.067,0.014l0.067,0.013l0.068,0.013l0.067,0.012l0.068,0.01l0.069,0.011l0.068,0.009l0.069,0.008l0.069,0.007l0.07,0.007l0.07,0.006l0.07,0.005l0.07,0.004l0.071,0.003l0.071,0.002l0.071,0.002l0.071,0l0.071,0l0.071,-0.002l0.071,-0.002l0.071,-0.003l0.07,-0.004l0.07,-0.005l0.07,-0.006l0.07,-0.007l0.069,-0.007l0.069,-0.008l0.068,-0.009l0.069,-0.011l0.068,-0.01l0.067,-0.012l0.068,-0.013l0.067,-0.013l0.067,-0.014l0.066,-0.015l0.067,-0.016l0.065,-0.016l0.066,-0.018l0.065,-0.018l0.065,-0.019l0.065,-0.019l0.064,-0.021l0.064,-0.021l0.063,-0.022l0.064,-0.022l0.063,-0.024l0.062,-0.024l0.062,-0.025l0.062,-0.026l0.061,-0.026l0.061,-0.027l0.061,-0.028l0.06,-0.029l0.06,-0.029l0.06,-0.03l0.059,-0.031l0.058,-0.031l0.058,-0.032l0.058,-0.033l0.058,-0.034l0.056,-0.034l0.057,-0.035l0.056,-0.035l0.056,-0.036l0.055,-0.037l0.054,-0.037l0.055,-0.039l0.053,-0.038l0.054,-0.04l0.052,-0.04l0.053,-0.04l0.051,-0.041l0.052,-0.042l0.05,-0.043l0.051,-0.043l0.049,-0.043l0.05,-0.044l0.048,-0.045l0.048,-0.045l0.048,-0.046l0.047,-0.047l0.047,-0.047l0.045,-0.048l0.046,-0.048l0.045,-0.048l0.044,-0.05l0.043,-0.049l0.043,-0.051l0.043,-0.05l0.042,-0.052l0.041,-0.051l0.04,-0.053l0.04,-0.052l0.04,-0.054l0.039,-0.053l0.038,-0.055l0.037,-0.054l0.037,-0.055l0.036,-0.056l0.035,-0.056l0.035,-0.057l0.034,-0.056l0.034,-0.058l0.033,-0.058l0.032,-0.058l0.031,-0.059l0.031,-0.059l0.03,-0.059l0.029,-0.06l0.029,-0.06l0.028,-0.061l0.027,-0.061l0.026,-0.061l0.026,-0.062l0.025,-0.062l0.024,-0.062l0.023,-0.063l0.023,-0.063l0.022,-0.064l0.021,-0.064l0.021,-0.064l0.019,-0.065l0.019,-0.065l0.019,-0.065l0.017,-0.066l0.016,-0.065l0.016,-0.067l0.015,-0.066l0.014,-0.067l0.013,-0.067l0.013,-0.068l0.012,-0.067l0.01,-0.068l0.011,-0.069l0.009,-0.068l0.008,-0.069l0.007,-0.069l0.007,-0.07l0.006,-0.07l0.005,-0.07l0.004,-0.07l0.003,-0.071l0.002,-0.071l0.002,-0.071l0,-0.071l0,-0.071l-0.002,-0.071l-0.002,-0.071l-0.003,-0.071l-0.004,-0.07l-0.005,-0.07l-0.006,-0.07l-0.007,-0.07l-0.007,-0.069l-0.008,-0.069l-0.009,-0.068l-0.011,-0.069l-0.01,-0.068l-0.012,-0.067l-0.013,-0.068l-0.013,-0.067l-0.014,-0.067l-0.015,-0.066l-0.016,-0.067l-0.016,-0.065l-0.017,-0.066l-0.019,-0.065l-0.019,-0.065l-0.019,-0.065l-0.021,-0.064l-0.021,-0.064l-0.022,-0.064l-0.023,-0.063l-0.023,-0.063l-0.024,-0.062l-0.025,-0.062l-0.026,-0.062l-0.026,-0.061l-0.027,-0.061l-0.028,-0.061l-0.029,-0.06l-0.029,-0.06l-0.03,-0.059l-0.031,-0.059l-0.031,-0.059l-0.032,-0.058l-0.033,-0.058l-0.034,-0.058l-0.034,-0.056l-0.035,-0.057l-0.035,-0.056l-0.036,-0.056l-0.037,-0.055l-0.037,-0.054l-0.038,-0.055l-0.039,-0.053l-0.04,-0.054l-0.04,-0.052l-0.04,-0.053l-0.041,-0.051l-0.042,-0.052l-0.043,-0.05l-0.043,-0.051l-0.043,-0.049l-0.044,-0.05l-0.045,-0.048l-0.046,-0.048l-0.045,-0.048l-0.047,-0.047l-0.047,-0.047l-0.048,-0.046l-0.048,-0.045l-0.048,-0.045l-0.05,-0.044l-0.049,-0.043l-0.051,-0.043l-0.05,-0.043l-0.052,-0.042l-0.051,-0.041l-0.053,-0.04l-0.052,-0.04l-0.054,-0.04l-0.053,-0.038l-0.055,-0.039l-0.054,-0.037l-0.055,-0.037l-0.056,-0.036l-0.056,-0.035l-0.057,-0.035l-0.056,-0.034l-0.058,-0.034l-0.058,-0.033l-0.058,-0.032l-0.058,-0.031l-0.059,-0.031l-0.06,-0.03l-0.06,-0.029l-0.06,-0.029l-0.061,-0.028l-0.061,-0.027l-0.061,-0.026l-0.062,-0.026l-0.062,-0.025l-0.062,-0.024l-0.063,-0.024l-0.064,-0.022l-0.063,-0.022l-0.064,-0.021l-0.064,-0.021l-0.065,-0.019l-0.065,-0.019l-0.065,-0.018l-0.066,-0.018l-0.065,-0.016l-0.067,-0.016l-0.066,-0.015l-0.067,-0.014l-0.067,-0.013l-0.068,-0.013l-0.067,-0.012l-0.068,-0.01l-0.069,-0.011l-0.068,-0.009l-0.069,-0.008l-0.069,-0.007l-0.07,-0.007l-0.07,-0.006l-0.07,-0.005l-0.07,-0.004l-0.071,-0.003l-0.071,-0.002l-0.071,-0.002l-0.071,0l-0.071,0Z" style="fill:#fff;"/>
        <path d="M10,4c-2.209,0 -4,1.791 -4,4c0,2.209 1.791,4 4,4l0,-1.6c-1.325,0 -2.4,-1.075 -2.4,-2.4c0,-1.325 1.075,-2.4 2.4,-2.4l0,-1.6Z" style="fill:#fff;"/>
        <rect x="5" y="7" width="5" height="2" style="fill:#fff;"/>
    </g>
</svg>
