<?xml version="1.0" encoding="UTF-8" standalone="no"?>
<!DOCTYPE svg PUBLIC "-//W3C//DTD SVG 1.1//EN" "http://www.w3.org/Graphics/SVG/1.1/DTD/svg11.dtd">
<svg width="16px" height="16px" version="1.1" xmlns="http://www.w3.org/2000/svg" xmlns:xlink="http://www.w3.org/1999/xlink" xml:space="preserve" style="fill-rule:evenodd;clip-rule:evenodd;stroke-linejoin:round;stroke-miterlimit:1.41421;">
    <g id="status">
        <path d="M0,0l16,0l0,16l-16,0l0,-16" style="fill:#3f7ab7;fill-rule:nonzero;"/>
        <path d="M11.5,1.448c-1.614,0 -3.209,1.484 -3.5,2.586c-0.289,-1.102 -1.885,-2.586 -3.5,-2.586c-1.75,0 -3.5,1.75 -3.5,4.375c0,4.375 4.375,7.875 7,8.729c2.625,-0.854 7,-4.354 7,-8.729c0,-2.625 -1.75,-4.375 -3.5,-4.375Zm-2.5,5.552l0,-2l-2,0l0,2l-2,0l0,2l2,0l0,2l2,0l0,-2l2,0l0,-2l-2,0Z" style="fill:#fff;"/>
    </g>
</svg>
