<?xml version="1.0" encoding="UTF-8" standalone="no"?>
<!DOCTYPE svg PUBLIC "-//W3C//DTD SVG 1.1//EN" "http://www.w3.org/Graphics/SVG/1.1/DTD/svg11.dtd">
<svg width="16px" height="16px" version="1.1" xmlns="http://www.w3.org/2000/svg" xmlns:xlink="http://www.w3.org/1999/xlink" xml:space="preserve" style="fill-rule:evenodd;clip-rule:evenodd;stroke-linejoin:round;stroke-miterlimit:1.41421;">
    <g id="status">
        <rect x="0" y="0" width="16" height="16" style="fill:#3f7ab7;"/>
        <path d="M13.25,5.375c0.875,0 1.75,0.875 1.75,1.75l0,3.5c0,0.875 -0.875,1.75 -1.75,1.75l0,2.625l-2.625,-2.625l-4.375,0c-0.875,0 -1.75,-0.875 -1.75,-1.75l0,-0.513l1.237,-1.237l4.013,0c1.35,0 2.625,-1.276 2.625,-2.625l0,-0.875l0.875,0Zm-3.5,-4.375c0.875,0 1.75,0.875 1.75,1.75l0,3.5c0,0.875 -0.875,1.75 -1.75,1.75l-4.375,0l-2.625,2.625l0,-2.625c-0.875,0 -1.75,-0.875 -1.75,-1.75l0,-3.5c0,-0.875 0.875,-1.75 1.75,-1.75l7,0Z" style="fill:#fff;"/>
    </g>
</svg>
