<?xml version="1.0" encoding="UTF-8" standalone="no"?>
<!DOCTYPE svg PUBLIC "-//W3C//DTD SVG 1.1//EN" "http://www.w3.org/Graphics/SVG/1.1/DTD/svg11.dtd">
<svg width="16px" height="16px" version="1.1" xmlns="http://www.w3.org/2000/svg" xmlns:xlink="http://www.w3.org/1999/xlink" xml:space="preserve" style="fill-rule:evenodd;clip-rule:evenodd;stroke-linejoin:round;stroke-miterlimit:1.41421;">
    <g id="status">
        <rect x="0" y="0" width="16" height="16" style="fill:#3f7ab7;"/>
        <path d="M14.068,3.002c0,0 0.18,0.025 0.267,0.056c0.259,0.092 0.473,0.291 0.582,0.544c0.046,0.106 0.081,0.398 0.081,0.398l0.002,8c0,0 -0.019,0.226 -0.058,0.335c-0.1,0.281 -0.326,0.507 -0.607,0.607c-0.087,0.031 -0.267,0.056 -0.267,0.056l-12.068,0.002c0,0 -0.226,-0.019 -0.335,-0.058c-0.281,-0.1 -0.507,-0.326 -0.607,-0.607c-0.031,-0.087 -0.056,-0.335 -0.056,-0.335l-0.002,-8c0,0 0.012,-0.181 0.037,-0.27c0.081,-0.287 0.291,-0.528 0.565,-0.647c0.106,-0.046 0.33,-0.081 0.33,-0.081l12.136,0Zm-0.068,0.998l-12,0l0,8l12,0l0,-8Zm-1,7l-10,0l0,-6l10,0l0,6Zm-3.268,-4c-0.346,-0.598 -0.992,-1 -1.732,-1c-0.74,0 -1.386,0.402 -1.732,1l-2.268,0l0,2l2.268,0c0.346,0.598 0.992,1 1.732,1c0.74,0 1.386,-0.402 1.732,-1l2.268,0l0,-2l-2.268,0Z" style="fill:#fff;"/>
    </g>
</svg>
