<?xml version="1.0" encoding="UTF-8" standalone="no"?>
<!DOCTYPE svg PUBLIC "-//W3C//DTD SVG 1.1//EN" "http://www.w3.org/Graphics/SVG/1.1/DTD/svg11.dtd">
<svg width="16px" height="16px" version="1.1" xmlns="http://www.w3.org/2000/svg" xmlns:xlink="http://www.w3.org/1999/xlink" xml:space="preserve" style="fill-rule:evenodd;clip-rule:evenodd;stroke-linejoin:round;stroke-miterlimit:1.41421;">
    <g id="status">
        <rect x="0" y="0" width="16" height="16" style="fill:#3f7ab7;"/>
        <path d="M14.173,11.911l-0.074,-0.156c-0.217,-0.512 -2.888,-1.297 -3.108,-1.31l-0.178,0.013c-0.365,0.075 -0.765,0.42 -1.609,1.166c-0.948,-0.438 -2.248,-1.609 -2.86,-2.3c-0.663,-0.747 -1.491,-2.004 -1.788,-2.943c0.961,-0.851 1.361,-1.221 1.386,-1.632c0.014,-0.221 -0.444,-2.966 -0.927,-3.244l-0.144,-0.091c-0.308,-0.198 -0.772,-0.497 -1.288,-0.392c-0.126,0.026 -0.247,0.075 -0.361,0.145c-0.346,0.219 -1.193,0.807 -1.58,1.576c-0.239,0.479 -0.346,4.849 2.929,8.542c3.236,3.653 7.227,3.811 7.826,3.689l0.016,-0.004l0.054,-0.015c0.808,-0.29 1.495,-1.062 1.753,-1.38c0.476,-0.589 0.136,-1.288 -0.047,-1.664" style="fill:#fff;fill-rule:nonzero;"/>
    </g>
</svg>
