<?xml version="1.0" encoding="UTF-8" standalone="no"?><!DOCTYPE svg PUBLIC "-//W3C//DTD SVG 1.1//EN" "http://www.w3.org/Graphics/SVG/1.1/DTD/svg11.dtd"><svg width="16px" height="16px" version="1.1" xmlns="http://www.w3.org/2000/svg" xmlns:xlink="http://www.w3.org/1999/xlink" xml:space="preserve" style="fill-rule:evenodd;clip-rule:evenodd;stroke-linejoin:round;stroke-miterlimit:1.41421;"><g id="status"><path d="M0,0l16,0l0,16l-16,0l0,-16" style="fill:#3f7ab7;fill-rule:nonzero;"/><path d="M9.164,9.676l-0.035,0c-0.336,1.033 -0.994,1.551 -1.974,1.551c-0.627,0 -1.131,-0.242 -1.514,-0.726c-0.382,-0.484 -0.574,-1.134 -0.574,-1.953c0,-1.081 0.262,-1.981 0.788,-2.699c0.525,-0.717 1.218,-1.076 2.078,-1.076c0.327,0 0.619,0.094 0.878,0.279c0.257,0.185 0.422,0.408 0.497,0.668l0.021,0c0.014,-0.129 0.05,-0.396 0.108,-0.8l1.19,0c-0.226,2.525 -0.338,3.812 -0.338,3.859c0,0.948 0.242,1.421 0.724,1.421c0.442,0 0.808,-0.263 1.098,-0.789c0.29,-0.527 0.436,-1.208 0.436,-2.046c0,-1.237 -0.394,-2.248 -1.18,-3.03c-0.787,-0.783 -1.878,-1.175 -3.274,-1.175c-1.336,0 -2.444,0.475 -3.322,1.423c-0.879,0.949 -1.318,2.136 -1.318,3.56c0,1.406 0.426,2.541 1.275,3.404c0.851,0.862 1.997,1.293 3.439,1.293c1.134,0 2.105,-0.196 2.913,-0.587l0,1.091c-0.831,0.348 -1.869,0.523 -3.115,0.523c-1.749,0 -3.158,-0.523 -4.228,-1.57c-1.069,-1.046 -1.604,-2.417 -1.604,-4.112c0,-1.741 0.566,-3.185 1.695,-4.332c1.129,-1.146 2.572,-1.72 4.328,-1.72c1.647,0 3.011,0.482 4.091,1.444c1.08,0.963 1.62,2.219 1.62,3.768c0,1.135 -0.295,2.066 -0.886,2.792c-0.59,0.727 -1.31,1.09 -2.16,1.09c-1.1,0 -1.652,-0.518 -1.657,-1.551Zm-1.091,-3.876c-0.505,0 -0.913,0.26 -1.222,0.779c-0.31,0.52 -0.464,1.166 -0.464,1.941c0,0.52 0.104,0.929 0.313,1.229c0.208,0.302 0.487,0.451 0.835,0.451c0.505,0 0.905,-0.272 1.198,-0.819c0.294,-0.545 0.44,-1.268 0.44,-2.166c0,-0.943 -0.366,-1.415 -1.1,-1.415" style="fill:#fff;fill-rule:nonzero;"/></g></svg>