<?xml version="1.0" encoding="UTF-8" standalone="no"?>
<!DOCTYPE svg PUBLIC "-//W3C//DTD SVG 1.1//EN" "http://www.w3.org/Graphics/SVG/1.1/DTD/svg11.dtd">
<svg width="16px" height="16px" version="1.1" xmlns="http://www.w3.org/2000/svg" xmlns:xlink="http://www.w3.org/1999/xlink" xml:space="preserve" style="fill-rule:evenodd;clip-rule:evenodd;stroke-linejoin:round;stroke-miterlimit:1.41421;">
    <g id="status">
        <path d="M0,0l16,0l0,16l-16,0l0,-16" style="fill:#3f7ab7;fill-rule:nonzero;"/>
        <path d="M2,13.5c0,0.829 0.672,1.5 1.5,1.5c0.828,0 1.5,-0.671 1.5,-1.5c0,-0.829 -0.672,-1.5 -1.5,-1.5c-0.828,0 -1.5,0.671 -1.5,1.5Zm7,0c0,0.829 0.672,1.5 1.5,1.5c0.828,0 1.5,-0.671 1.5,-1.5c0,-0.829 -0.672,-1.5 -1.5,-1.5c-0.828,0 -1.5,0.671 -1.5,1.5Zm2,-3.5c0.981,0 1,0 1,-1l0,-5c0,-1.299 1.03,-2 2,-2c0.552,0 1,0.448 1,1c0,0.552 -0.448,1 -1,1l0,5c0,3 -2.026,3 -3,3l-9,0c-0.552,0 -1,-0.448 -1,-1c0,-0.552 0.448,-1 1,-1l9,0Z" style="fill:#fff;"/>
    </g>
</svg>
