<?xml version="1.0" encoding="UTF-8" standalone="no"?>
<!DOCTYPE svg PUBLIC "-//W3C//DTD SVG 1.1//EN" "http://www.w3.org/Graphics/SVG/1.1/DTD/svg11.dtd">
<svg width="16px" height="16px" version="1.1" xmlns="http://www.w3.org/2000/svg" xmlns:xlink="http://www.w3.org/1999/xlink" xml:space="preserve" style="fill-rule:evenodd;clip-rule:evenodd;stroke-linejoin:round;stroke-miterlimit:1.41421;">
    <g id="status">
        <rect x="0" y="0" width="16" height="16" style="fill:#3f7ab7;"/>
        <path d="M8,1c-3.037,0 -5.5,2.462 -5.5,5.5c0,3.5 3.711,5.206 5.5,9.5c1.789,-4.296 5.5,-6 5.5,-9.5c0,-3.038 -2.462,-5.5 -5.5,-5.5Zm0,3c1.104,0 2,1.12 2,2.5c0,1.38 -0.896,2.5 -2,2.5c-1.104,0 -2,-1.12 -2,-2.5c0,-1.38 0.896,-2.5 2,-2.5Zm-0.003,-2l0.003,0l0.003,0l-0.003,-0.011l-0.003,0.011Z" style="fill:#fff;"/>
    </g>
</svg>
