<?xml version="1.0" encoding="UTF-8" standalone="no"?><!DOCTYPE svg PUBLIC "-//W3C//DTD SVG 1.1//EN" "http://www.w3.org/Graphics/SVG/1.1/DTD/svg11.dtd"><svg width="16px" height="16px" version="1.1" xmlns="http://www.w3.org/2000/svg" xmlns:xlink="http://www.w3.org/1999/xlink" xml:space="preserve" style="fill-rule:evenodd;clip-rule:evenodd;stroke-linejoin:round;stroke-miterlimit:1.41421;"><g id="status"><path d="M0,0l16,0l0,16l-16,0l0,-16" style="fill:#cc4c33;fill-rule:nonzero;"/><path d="M4.423,1.896c3.688,0 3.858,0.707 7.577,1.104l1,0c0.48,0 1,0.273 1,1l0,4c0,0.727 -0.52,1 -1,1l-1,0c-2.555,0.771 -5.731,2.74 -6.741,4.487l-0.026,1.513l-0.469,-0.003l-0.013,-0.001c-0.762,-0.041 -2.302,-1.72 0.249,-5.996l-2,0l-0.008,-0.003l-0.592,0c-0.552,0 -1,-0.446 -1,-0.998c0,-0.552 0.448,-1 1,-1l0.469,0l0.018,-0.002l-0.387,0c-0.552,0 -0.999,-0.448 -0.999,-1c0,-0.55 0.447,-0.998 0.999,-0.998l0.5,0l0,-0.003c-0.552,0 -0.999,-0.448 -0.999,-0.999c0,-0.552 0.447,-1 0.999,-1c-0.101,-0.974 0.547,-1.101 1.423,-1.101" style="fill:#fff;"/></g></svg>