<?xml version="1.0" encoding="UTF-8" standalone="no"?>
<!DOCTYPE svg PUBLIC "-//W3C//DTD SVG 1.1//EN" "http://www.w3.org/Graphics/SVG/1.1/DTD/svg11.dtd">
<svg width="16px" height="16px" version="1.1" xmlns="http://www.w3.org/2000/svg" xmlns:xlink="http://www.w3.org/1999/xlink" xml:space="preserve" style="fill-rule:evenodd;clip-rule:evenodd;stroke-linejoin:round;stroke-miterlimit:1.41421;">
    <g id="status">
        <path d="M0,0l16,0l0,16l-16,0l0,-16" style="fill:#3f7ab7;fill-rule:nonzero;"/>
        <path d="M7.637,12.458c-0.035,-0.128 -0.121,-0.236 -0.238,-0.3c-0.905,-0.5 -1.752,-1.127 -2.516,-1.89l-0.027,-0.009l-0.026,0.016l-2.767,4.982c-0.086,0.155 -0.084,0.345 0.006,0.496c0.089,0.153 0.254,0.247 0.431,0.247l5.487,0c0.158,0 0.304,-0.073 0.4,-0.199c0.094,-0.125 0.125,-0.287 0.08,-0.439l-0.83,-2.904l0,0Zm7.013,-10.458c0.553,0 1,-0.448 1,-1c0,-0.552 -0.447,-1 -1,-1c-0.553,0 -1,0.448 -1,1c0,0.206 0.076,0.386 0.184,0.544l-5,3.333l-4.497,-4.497c-0.298,-0.299 -0.748,-0.388 -1.138,-0.226c-0.391,0.162 -0.645,0.543 -0.645,0.966c0.006,2.989 1.104,5.924 3.328,8.148c2.225,2.224 5.161,3.324 8.151,3.328c0.422,0 0.803,-0.254 0.965,-0.644c0.162,-0.39 0.072,-0.84 -0.227,-1.139l-3.998,-3.998l3.332,-4.998c0.158,0.106 0.34,0.183 0.545,0.183l0,0Z" style="fill:#fff;"/>
    </g>
</svg>
