<?xml version="1.0" encoding="UTF-8" standalone="no"?>
<!DOCTYPE svg PUBLIC "-//W3C//DTD SVG 1.1//EN" "http://www.w3.org/Graphics/SVG/1.1/DTD/svg11.dtd">
<svg width="16px" height="16px" version="1.1" xmlns="http://www.w3.org/2000/svg" xmlns:xlink="http://www.w3.org/1999/xlink" xml:space="preserve" style="fill-rule:evenodd;clip-rule:evenodd;stroke-linejoin:round;stroke-miterlimit:1.41421;">
    <g id="status">
        <path d="M0,0l16,0l0,16l-16,0l0,-16" style="fill:#3f7ab7;fill-rule:nonzero;"/>
        <path d="M9.978,11.078c-0.173,-0.173 -0.458,-0.173 -0.632,0l-2.528,2.528c-0.174,0.173 -0.174,0.459 0,0.632l0.632,0.632c0.174,0.174 0.458,0.174 0.631,0l2.529,-2.528c0.174,-0.173 0.174,-0.458 0,-0.632l-0.632,-0.632l0,0Zm-1.264,-1.264l-0.632,-0.632c-0.173,-0.173 -0.458,-0.173 -0.632,0l-2.528,2.528c-0.174,0.174 -0.174,0.459 0,0.632l0.632,0.632c0.174,0.174 0.458,0.174 0.632,0l2.528,-2.528c0.174,-0.173 0.174,-0.458 0,-0.632Zm6.005,-6.636c0,0 0.632,-0.632 0,-1.265l-0.632,-0.632c-0.632,-0.632 -1.265,0 -1.265,0l-3.159,3.16c0,0 -0.632,0.632 -1.264,0c-0.165,-0.164 -0.372,-0.37 -0.632,-0.631c-1.264,-1.264 -2.529,0 -2.529,0l-0.632,0.632l6.953,6.953l0.631,-0.632c0,0 1.265,-1.265 0,-2.529c-0.26,-0.261 -0.467,-0.468 -0.631,-0.632c-0.632,-0.632 0,-1.264 0,-1.264l3.16,-3.16l0,0Zm-7.901,4.74l-0.631,-0.632c-0.174,-0.174 -0.459,-0.174 -0.632,0l-2.529,2.528c-0.174,0.174 -0.174,0.459 0,0.632l0.632,0.632c0.174,0.174 0.458,0.174 0.632,0l2.528,-2.528c0.174,-0.174 0.174,-0.459 0,-0.632Zm-1.895,-1.896l-0.632,-0.632c-0.174,-0.174 -0.459,-0.174 -0.632,0l-2.529,2.529c-0.173,0.173 -0.173,0.458 0,0.631l0.632,0.632c0.174,0.174 0.459,0.174 0.632,0l2.529,-2.528c0.173,-0.174 0.173,-0.459 0,-0.632Zm8.216,-3.793c0.174,-0.174 0.457,-0.174 0.632,0c0.175,0.175 0.175,0.458 0.001,0.632c-0.176,0.175 -0.459,0.175 -0.633,0c-0.175,-0.174 -0.175,-0.457 0,-0.632Z" style="fill:#fff;"/>
    </g>
</svg>
