<?xml version="1.0" encoding="UTF-8" standalone="no"?><!DOCTYPE svg PUBLIC "-//W3C//DTD SVG 1.1//EN" "http://www.w3.org/Graphics/SVG/1.1/DTD/svg11.dtd"><svg width="16px" height="16px" version="1.1" xmlns="http://www.w3.org/2000/svg" xmlns:xlink="http://www.w3.org/1999/xlink" xml:space="preserve" style="fill-rule:evenodd;clip-rule:evenodd;stroke-linejoin:round;stroke-miterlimit:1.41421;"><g id="status"><path d="M0,16l16,0l0,-16l-16,0l0,16" style="fill:#cc4c33;fill-rule:nonzero;"/><path d="M9.499,2.011c1.377,0 2.494,1.113 2.5,2.489l0.001,0l0,2.5l1,0l0,7l-10,0l0,-7l1,0l-0.001,-2.489c0,-1.382 1.12,-2.5 2.5,-2.5l3,0Zm0.501,2.489c0,-0.276 -0.224,-0.5 -0.5,-0.5l-3,0c-0.276,0 -0.5,0.224 -0.5,0.5l0,2.5l4,0l0,-2.5Zm-2,4c-0.828,0 -1.5,0.672 -1.5,1.5c0,0.444 0.193,0.844 0.5,1.119l0,1.881l2,0l0,-1.881c0.307,-0.275 0.5,-0.675 0.5,-1.119c0,-0.828 -0.672,-1.5 -1.5,-1.5" style="fill:#fff;fill-rule:nonzero;"/></g></svg>