<?xml version="1.0" encoding="UTF-8" standalone="no"?>
<!DOCTYPE svg PUBLIC "-//W3C//DTD SVG 1.1//EN" "http://www.w3.org/Graphics/SVG/1.1/DTD/svg11.dtd">
<svg width="16px" height="16px" version="1.1" xmlns="http://www.w3.org/2000/svg" xmlns:xlink="http://www.w3.org/1999/xlink" xml:space="preserve" style="fill-rule:evenodd;clip-rule:evenodd;stroke-linejoin:round;stroke-miterlimit:1.41421;">
    <g id="status">
        <rect x="0" y="0" width="16" height="16" style="fill:#3f7ab7;"/>
        <path d="M8,1c-3.867,0 -7,2.742 -7,6.125c0,1.603 0.711,3.058 1.864,4.15l-1.864,3.725l4.39,-2.195c0.807,0.285 1.686,0.445 2.61,0.445c3.867,0 7,-2.743 7,-6.125c0,-3.383 -3.133,-6.125 -7,-6.125l0,0Zm1.368,7.498l0.047,0.123c0.034,0.089 0.085,0.171 0.149,0.244c0.069,0.08 0.148,0.146 0.243,0.205c0.094,0.059 0.199,0.104 0.311,0.137c0.113,0.032 0.235,0.048 0.367,0.048c0.333,0 0.613,-0.077 0.854,-0.235c0.25,-0.164 0.452,-0.373 0.62,-0.64c0.168,-0.268 0.296,-0.578 0.38,-0.92c0.083,-0.354 0.126,-0.711 0.126,-1.06c0,-0.634 -0.102,-1.211 -0.303,-1.713c-0.202,-0.502 -0.483,-0.933 -0.84,-1.282c-0.357,-0.35 -0.788,-0.622 -1.281,-0.809c-0.497,-0.188 -1.05,-0.284 -1.641,-0.284c-0.488,0 -0.949,0.058 -1.37,0.172c-0.423,0.115 -0.815,0.279 -1.168,0.491c-0.35,0.211 -0.667,0.468 -0.941,0.764c-0.275,0.297 -0.511,0.633 -0.702,0.998c-0.192,0.367 -0.34,0.768 -0.441,1.194c-0.102,0.427 -0.153,0.882 -0.153,1.35c0,0.671 0.099,1.278 0.294,1.804c0.193,0.523 0.474,0.968 0.835,1.324c0.361,0.359 0.814,0.638 1.342,0.828c0.533,0.193 1.15,0.291 1.834,0.291c0.494,0 0.963,-0.046 1.397,-0.14c0.385,-0.082 0.745,-0.193 1.07,-0.328l0,-0.723c-0.123,0.044 -0.251,0.085 -0.382,0.125c-0.226,0.068 -0.458,0.126 -0.692,0.174c-0.235,0.048 -0.47,0.086 -0.707,0.115c-0.237,0.028 -0.471,0.043 -0.697,0.043c-0.538,0 -1.022,-0.079 -1.436,-0.234c-0.422,-0.156 -0.782,-0.389 -1.073,-0.694c-0.288,-0.304 -0.507,-0.682 -0.653,-1.123c-0.142,-0.436 -0.215,-0.939 -0.215,-1.496c0,-0.605 0.083,-1.167 0.247,-1.669c0.167,-0.514 0.414,-0.963 0.737,-1.339c0.325,-0.379 0.733,-0.678 1.214,-0.888c0.477,-0.21 1.036,-0.315 1.66,-0.315c0.45,0 0.872,0.075 1.256,0.224c0.387,0.15 0.728,0.372 1.012,0.662c0.281,0.288 0.503,0.644 0.662,1.059c0.156,0.414 0.236,0.887 0.236,1.407c0,0.28 -0.019,0.545 -0.055,0.795c-0.037,0.251 -0.092,0.477 -0.163,0.67c-0.074,0.201 -0.173,0.368 -0.295,0.496c-0.138,0.144 -0.306,0.218 -0.498,0.218c-0.088,0 -0.171,-0.018 -0.241,-0.051c-0.091,-0.037 -0.168,-0.105 -0.224,-0.193c-0.056,-0.079 -0.098,-0.179 -0.131,-0.315c-0.03,-0.12 -0.044,-0.268 -0.044,-0.451l0,-0.158c0,-0.088 0.005,-0.178 0.013,-0.263l0.116,-2.313c-0.073,-0.023 -0.154,-0.045 -0.241,-0.068c-0.148,-0.037 -0.308,-0.072 -0.477,-0.103c-0.17,-0.03 -0.345,-0.055 -0.529,-0.073c-0.181,-0.02 -0.356,-0.029 -0.526,-0.029c-0.377,0 -0.719,0.063 -1.018,0.188c-0.296,0.122 -0.553,0.299 -0.761,0.522c-0.208,0.223 -0.37,0.495 -0.482,0.806c-0.113,0.314 -0.171,0.665 -0.171,1.045c0,0.327 0.043,0.629 0.128,0.898c0.08,0.26 0.199,0.485 0.356,0.672c0.152,0.182 0.344,0.324 0.567,0.423c0.226,0.101 0.491,0.151 0.788,0.151c0.154,0 0.298,-0.019 0.427,-0.055c0.13,-0.035 0.249,-0.085 0.357,-0.148c0.105,-0.061 0.203,-0.132 0.294,-0.216c0.089,-0.084 0.168,-0.172 0.236,-0.262l0.146,-0.076l0.23,0Zm-0.752,-3.247c-0.112,-0.013 -0.227,-0.019 -0.345,-0.019c-0.266,0 -0.498,0.059 -0.688,0.175c-0.183,0.112 -0.335,0.263 -0.453,0.45c-0.112,0.179 -0.195,0.385 -0.243,0.611c-0.047,0.222 -0.073,0.446 -0.073,0.667c0,0.485 0.088,0.833 0.264,1.065c0.186,0.244 0.437,0.367 0.747,0.367c0.2,0 0.378,-0.049 0.53,-0.144c0.147,-0.095 0.267,-0.227 0.359,-0.394c0.084,-0.153 0.151,-0.34 0.196,-0.551c0.043,-0.203 0.071,-0.431 0.084,-0.679l0.079,-1.457l-0.154,-0.039c-0.087,-0.022 -0.187,-0.039 -0.303,-0.052l0,0Z" style="fill:#fff;"/>
    </g>
</svg>
