<?xml version="1.0" encoding="UTF-8" standalone="no"?><!DOCTYPE svg PUBLIC "-//W3C//DTD SVG 1.1//EN" "http://www.w3.org/Graphics/SVG/1.1/DTD/svg11.dtd"><svg width="16px" height="16px" version="1.1" xmlns="http://www.w3.org/2000/svg" xmlns:xlink="http://www.w3.org/1999/xlink" xml:space="preserve" style="fill-rule:evenodd;clip-rule:evenodd;stroke-linejoin:round;stroke-miterlimit:1.41421;"><g id="status"><path d="M0,0l16,0l0,16l-16,0l0,-16" style="fill:#3f7ab7;fill-rule:nonzero;"/><path d="M15,8l-1.749,0c-0.048,2.861 -2.178,5.251 -5.048,5.251c-1.079,0 -2.082,-0.326 -2.915,-0.884c2.715,-0.138 4.872,-2.079 4.927,-4.367l-1.778,0l3.326,-3.5l3.237,3.5Zm-7.437,0l-3.238,3.5l-3.325,-3.5l1.751,0c0.046,-2.861 2.378,-5.251 5.249,-5.251c1.079,0 2.081,0.326 2.915,0.884c-2.715,0.138 -5.486,2.079 -5.54,4.367l2.188,0Z" style="fill:#fff;"/></g></svg>