<?xml version="1.0" encoding="UTF-8" standalone="no"?>
<!DOCTYPE svg PUBLIC "-//W3C//DTD SVG 1.1//EN" "http://www.w3.org/Graphics/SVG/1.1/DTD/svg11.dtd">
<svg width="16px" height="16px" version="1.1" xmlns="http://www.w3.org/2000/svg" xmlns:xlink="http://www.w3.org/1999/xlink" xml:space="preserve" style="fill-rule:evenodd;clip-rule:evenodd;stroke-linejoin:round;stroke-miterlimit:1.41421;">
    <g id="status">
        <rect x="0" y="0" width="16" height="16" style="fill:#3f7ab7;"/>
        <path d="M8,7l1,-2l1,0c0.604,0 1.147,0.368 1.372,0.929l1.628,4.071l-1,0l-2,-3l-0.777,1l2.277,3l-2.1,0l-0.4,4l-2,0l-0.4,-4l-2.1,0l2.277,-3l-0.777,-1l-2,3l-1,0l1.628,-4.071c0.225,-0.561 0.768,-0.929 1.372,-0.929l1,0l1,2Zm0,-3c0.829,0 1.5,-0.672 1.5,-1.5c0,-0.828 -0.671,-1.5 -1.5,-1.5c-0.829,0 -1.5,0.672 -1.5,1.5c0,0.828 0.671,1.5 1.5,1.5Z" style="fill:#fff;"/>
    </g>
</svg>
