<?xml version="1.0" encoding="UTF-8" standalone="no"?>
<!DOCTYPE svg PUBLIC "-//W3C//DTD SVG 1.1//EN" "http://www.w3.org/Graphics/SVG/1.1/DTD/svg11.dtd">
<svg width="16px" height="16px" version="1.1" xmlns="http://www.w3.org/2000/svg" xmlns:xlink="http://www.w3.org/1999/xlink" xml:space="preserve" style="fill-rule:evenodd;clip-rule:evenodd;stroke-linejoin:round;stroke-miterlimit:1.41421;">
    <g id="status">
        <rect x="0" y="0" width="16" height="16" style="fill:#3f7ab7;"/>
        <path d="M13.88,4.932c0.072,-0.301 0.12,-0.609 0.12,-0.932c0,-2.209 -1.79,-4 -4,-4c-1.554,0 -2.886,0.897 -3.548,2.19c-0.294,-0.121 -0.614,-0.19 -0.952,-0.19c-1.352,0 -2.446,1.077 -2.492,2.416c-1.192,0.522 -2.008,1.481 -2.008,2.584c0,1.651 1.8,3 4,3l0.5,0l-1.5,2l2.5,0l-2.5,4l6,-5l-3,0l1,-1l3,0c2.2,0 4,-1.349 4,-3c0,-0.8 -0.431,-1.529 -1.12,-2.068" style="fill:#fff;fill-rule:nonzero;"/>
    </g>
</svg>
