<?xml version="1.0" encoding="UTF-8" standalone="no"?>
<!DOCTYPE svg PUBLIC "-//W3C//DTD SVG 1.1//EN" "http://www.w3.org/Graphics/SVG/1.1/DTD/svg11.dtd">
<svg width="16px" height="16px" version="1.1" xmlns="http://www.w3.org/2000/svg" xmlns:xlink="http://www.w3.org/1999/xlink" xml:space="preserve" style="fill-rule:evenodd;clip-rule:evenodd;stroke-linejoin:round;stroke-miterlimit:1.41421;">
    <g id="status">
        <path d="M0,0l16,0l0,16l-16,0l0,-16" style="fill:#3f7ab7;fill-rule:nonzero;"/>
        <path d="M5.88,14l4.239,0l-0.44,-1l1.566,0l1.321,3l-1.566,0l-0.441,-1l-5.119,0l-0.44,1l-1.567,0l1.321,-3l1.567,0l-0.441,1Zm4.12,-14c1.021,0 1.977,0.783 2.177,1.785l1.607,8.039c0.111,0.551 -0.021,1.106 -0.362,1.522c-0.341,0.416 -0.859,0.654 -1.422,0.654l-8,0c-0.563,0 -1.081,-0.238 -1.422,-0.654c-0.341,-0.416 -0.473,-0.971 -0.362,-1.522l1.607,-8.039c0.2,-1.002 1.156,-1.785 2.177,-1.785l4,0Zm0,11c-0.552,0 -1,-0.447 -1,-1c0,-0.553 0.448,-1 1,-1c0.552,0 1,0.447 1,1c0,0.553 -0.448,1 -1,1Zm-4,0c-0.552,0 -1,-0.447 -1,-1c0,-0.553 0.448,-1 1,-1c0.552,0 1,0.447 1,1c0,0.553 -0.448,1 -1,1Zm6.4,-3l-1,-5l-6.8,0l-0.6,3l-0.4,2l8.8,0Zm-3.4,-6l0,-1l-2,0l0,1l2,0Z" style="fill:#fff;"/>
    </g>
</svg>
