<?xml version="1.0" encoding="UTF-8" standalone="no"?>
<!DOCTYPE svg PUBLIC "-//W3C//DTD SVG 1.1//EN" "http://www.w3.org/Graphics/SVG/1.1/DTD/svg11.dtd">
<svg width="16px" height="16px" version="1.1" xmlns="http://www.w3.org/2000/svg" xmlns:xlink="http://www.w3.org/1999/xlink" xml:space="preserve" style="fill-rule:evenodd;clip-rule:evenodd;stroke-linejoin:round;stroke-miterlimit:1.41421;">
    <g id="status">
        <rect x="0" y="0" width="16" height="16" style="fill:#3f7ab7;"/>
        <path d="M8.7,7.531l0,0.641c0,0.363 -0.155,0.518 -0.517,0.518l-0.89,0c-0.364,0 -0.519,-0.155 -0.519,-0.518l0,-1.523c0,-0.428 0.435,-0.555 0.784,-0.656c0.085,-0.026 0.173,-0.051 0.256,-0.079c0.427,-0.154 0.691,-0.344 0.691,-0.814c0,-0.259 -0.078,-0.603 -0.749,-0.603c-0.485,0 -0.93,0.188 -1.196,0.301c-0.155,0.066 -0.24,0.102 -0.328,0.102l-0.103,0l-0.254,-0.233l-0.353,-0.934l-0.028,-0.181c0,-0.677 2.012,-0.981 2.53,-0.981c1.586,0 2.652,1.022 2.652,2.541c0,1.62 -1.193,2.144 -1.976,2.419m-0.921,4.329c-0.715,0 -1.297,-0.577 -1.297,-1.287c0,-0.728 0.569,-1.297 1.297,-1.297c0.71,0 1.287,0.582 1.287,1.297c0,0.698 -0.589,1.287 -1.287,1.287m0.221,-10.86c-3.866,0 -7,2.742 -7,6.125c0,1.603 0.711,3.058 1.863,4.15l-1.863,3.725l4.391,-2.195c0.806,0.285 1.687,0.445 2.609,0.445c3.867,0 7,-2.743 7,-6.125c0,-3.383 -3.133,-6.125 -7,-6.125" style="fill:#fff;fill-rule:nonzero;"/>
    </g>
</svg>
