<?xml version="1.0" encoding="UTF-8" standalone="no"?>
<!DOCTYPE svg PUBLIC "-//W3C//DTD SVG 1.1//EN" "http://www.w3.org/Graphics/SVG/1.1/DTD/svg11.dtd">
<svg width="16px" height="16px" version="1.1" xmlns="http://www.w3.org/2000/svg" xmlns:xlink="http://www.w3.org/1999/xlink" xml:space="preserve" style="fill-rule:evenodd;clip-rule:evenodd;stroke-linejoin:round;stroke-miterlimit:1.5;">
    <g id="status">
        <rect x="0" y="0" width="16" height="16" style="fill:#3f7ab7;"/>
        <path d="M13.191,9.495c0.514,0.443 0.809,0.957 0.809,1.505c0,1.656 -2.689,3 -6,3c-3.311,0 -6,-1.344 -6,-3c0,-0.55 0.297,-1.066 0.815,-1.51" style="fill:none;stroke:#fff;stroke-width:1px;"/>
        <path d="M13.207,6.509c0.505,0.44 0.793,0.949 0.793,1.491c0,1.656 -2.689,3 -6,3c-3.311,0 -6,-1.344 -6,-3c0,-0.543 0.289,-1.053 0.795,-1.493" style="fill:none;stroke:#fff;stroke-width:1px;"/>
        <ellipse cx="8" cy="5" rx="6" ry="3" style="fill:none;stroke:#fff;stroke-width:1px;"/>
    </g>
</svg>
