<?xml version="1.0" encoding="UTF-8" standalone="no"?>
<!DOCTYPE svg PUBLIC "-//W3C//DTD SVG 1.1//EN" "http://www.w3.org/Graphics/SVG/1.1/DTD/svg11.dtd">
<svg width="16px" height="16px" version="1.1" xmlns="http://www.w3.org/2000/svg" xmlns:xlink="http://www.w3.org/1999/xlink" xml:space="preserve" style="fill-rule:evenodd;clip-rule:evenodd;stroke-linejoin:round;stroke-miterlimit:1.41421;">
    <g id="status">
        <rect x="0" y="0" width="16" height="16" style="fill:#3f7ab7;"/>
        <path d="M1,7.5l-0.003,1c3.114,5.317 10.774,5.25 14,0l0.003,-1c-3.115,-5.317 -10.774,-5.25 -14,0Zm7.098,3.661c1.75,0.019 3.184,-1.387 3.204,-3.137c0.018,-1.752 -1.388,-3.185 -3.137,-3.203c-1.752,-0.018 -3.185,1.384 -3.204,3.136c-0.018,1.75 1.385,3.185 3.137,3.204Zm-0.077,-4.752c-0.873,0.061 -1.532,0.817 -1.471,1.692c0.061,0.873 0.819,1.532 1.692,1.471c0.873,-0.061 1.531,-0.819 1.47,-1.692c-0.061,-0.875 -0.818,-1.532 -1.691,-1.471Z" style="fill:#fff;"/>
    </g>
</svg>
