<?xml version="1.0" encoding="UTF-8" standalone="no"?><!DOCTYPE svg PUBLIC "-//W3C//DTD SVG 1.1//EN" "http://www.w3.org/Graphics/SVG/1.1/DTD/svg11.dtd"><svg width="16px" height="16px" version="1.1" xmlns="http://www.w3.org/2000/svg" xmlns:xlink="http://www.w3.org/1999/xlink" xml:space="preserve" style="fill-rule:evenodd;clip-rule:evenodd;stroke-linejoin:round;stroke-miterlimit:1.41421;"><g id="status"><path d="M0,0l16,0l0,16l-16,0l0,-16" style="fill:#cc4c33;fill-rule:nonzero;"/><path d="M8,2c3.313,0 6,2.687 6,6c0,3.313 -2.687,6 -6,6c-3.313,0 -6,-2.687 -6,-6c0,-3.313 2.687,-6 6,-6Zm0,1.5c-2.485,0 -4.5,2.015 -4.5,4.5c0,0.88 0.253,1.701 0.689,2.396l6.206,-6.207c-0.694,-0.436 -1.515,-0.689 -2.395,-0.689Zm0,9c2.485,0 4.5,-2.015 4.5,-4.5c0,-0.88 -0.253,-1.703 -0.691,-2.396l-6.205,6.205c0.693,0.438 1.515,0.691 2.396,0.691" style="fill:#fff;fill-rule:nonzero;"/></g></svg>