<?xml version="1.0" encoding="UTF-8" standalone="no"?><!DOCTYPE svg PUBLIC "-//W3C//DTD SVG 1.1//EN" "http://www.w3.org/Graphics/SVG/1.1/DTD/svg11.dtd"><svg width="16px" height="16px" version="1.1" xmlns="http://www.w3.org/2000/svg" xmlns:xlink="http://www.w3.org/1999/xlink" xml:space="preserve" style="fill-rule:evenodd;clip-rule:evenodd;stroke-linejoin:round;stroke-miterlimit:1.41421;"><g id="status"><path d="M0,0l16,0l0,16l-16,0l0,-16" style="fill:#cc4c33;fill-rule:nonzero;"/><path d="M13,11l-10,0l-1,1l0,1l4,0c0,0.959 1.032,2 2.008,2c0.96,0 1.992,-1.041 1.992,-2l4,0l0,-1l-1,-1Zm-0.625,-3.439c0,-1.801 -1.075,-3.338 -2.63,-4l0,-0.809c0,-0.975 -0.777,-1.752 -1.737,-1.752c-0.976,0 -1.753,0.777 -1.753,1.752l0,0.809c-1.555,0.662 -2.63,2.199 -2.63,4l0,2.459l8.75,0l0,-2.459" style="fill:#fff;"/></g></svg>