<?xml version="1.0" encoding="UTF-8" standalone="no"?><!DOCTYPE svg PUBLIC "-//W3C//DTD SVG 1.1//EN" "http://www.w3.org/Graphics/SVG/1.1/DTD/svg11.dtd"><svg width="16px" height="16px" version="1.1" xmlns="http://www.w3.org/2000/svg" xmlns:xlink="http://www.w3.org/1999/xlink" xml:space="preserve" style="fill-rule:evenodd;clip-rule:evenodd;stroke-linejoin:round;stroke-miterlimit:1.41421;"><g id="status"><path d="M0,0l16,0l0,16l-16,0l0,-16" style="fill:#3f7ab7;fill-rule:nonzero;"/><path d="M8.09,1.001c0.327,0.006 0.652,0.031 0.975,0.08c0.654,0.1 1.294,0.294 1.893,0.574c1.352,0.631 2.484,1.697 3.196,3.008c0.328,0.603 0.566,1.255 0.703,1.927c0.155,0.755 0.183,1.536 0.086,2.301c-0.091,0.715 -0.293,1.414 -0.598,2.068c-0.356,0.764 -0.852,1.461 -1.455,2.05c-0.624,0.61 -1.362,1.101 -2.165,1.441c-0.832,0.352 -1.731,0.539 -2.635,0.55c-0.906,0.012 -1.813,-0.152 -2.657,-0.485c-0.813,-0.321 -1.563,-0.795 -2.202,-1.39c-0.617,-0.574 -1.129,-1.259 -1.504,-2.013c-0.319,-0.644 -0.539,-1.336 -0.647,-2.047c-0.112,-0.733 -0.108,-1.485 0.014,-2.217c0.112,-0.68 0.327,-1.342 0.633,-1.959c0.677,-1.362 1.8,-2.484 3.161,-3.161c0.591,-0.293 1.224,-0.502 1.874,-0.618c0.32,-0.057 0.643,-0.09 0.968,-0.104c0.12,-0.004 0.24,-0.006 0.36,-0.005Zm-0.161,1.5c-0.779,0.015 -1.546,0.183 -2.253,0.513c-1.043,0.487 -1.92,1.303 -2.481,2.307c-0.263,0.469 -0.455,0.977 -0.57,1.503c-0.134,0.615 -0.161,1.253 -0.081,1.877c0.071,0.561 0.23,1.111 0.469,1.623c0.28,0.601 0.67,1.149 1.144,1.612c0.491,0.479 1.071,0.866 1.702,1.133c0.654,0.276 1.36,0.422 2.07,0.431c0.712,0.009 1.425,-0.119 2.088,-0.381c0.638,-0.251 1.227,-0.624 1.729,-1.092c0.485,-0.451 0.888,-0.99 1.182,-1.583c0.251,-0.505 0.423,-1.048 0.508,-1.605c0.092,-0.6 0.084,-1.216 -0.023,-1.814c-0.094,-0.531 -0.269,-1.048 -0.515,-1.528c-0.534,-1.044 -1.404,-1.904 -2.454,-2.425c-0.696,-0.346 -1.456,-0.533 -2.231,-0.567c-0.095,-0.003 -0.189,-0.004 -0.284,-0.004Zm1.071,4.46l3.991,0l0,2l-4.715,0c-0.088,0.026 -0.18,0.039 -0.276,0.039c-0.478,0 -0.878,-0.336 -0.977,-0.784c-0.021,-0.081 -0.032,-0.167 -0.032,-0.255c0,-0.046 0.003,-0.092 0.009,-0.137l0,-4.824l2,0l0,3.961Z" style="fill:#fff;"/></g></svg>