<?xml version="1.0" encoding="UTF-8" standalone="no"?>
<!DOCTYPE svg PUBLIC "-//W3C//DTD SVG 1.1//EN" "http://www.w3.org/Graphics/SVG/1.1/DTD/svg11.dtd">
<svg width="16px" height="16px" version="1.1" xmlns="http://www.w3.org/2000/svg" xmlns:xlink="http://www.w3.org/1999/xlink" xml:space="preserve" style="fill-rule:evenodd;clip-rule:evenodd;stroke-linejoin:round;stroke-miterlimit:1.41421;">
    <g id="status">
        <path d="M0,0l16,0l0,16l-16,0l0,-16" style="fill:#cc4c33;fill-rule:nonzero;"/>
        <path d="M5.228,12.804c-0.376,0.375 -0.981,0.375 -1.355,0.001l-0.677,-0.677c-0.375,-0.374 -0.375,-0.981 0,-1.356l2.195,-2.195l-1.354,-1.354l-2.195,2.196c-1.123,1.121 -1.123,2.941 0,4.063l0.677,0.677c1.122,1.122 2.941,1.121 4.062,0l2.195,-2.196l-1.354,-1.354l-2.194,2.195Zm9.682,-8.713l-0.235,-0.929c-0.393,-1.537 -1.959,-2.464 -3.495,-2.072l-3.01,0.767l0.475,1.855l3.008,-0.766c0.514,-0.132 1.034,0.178 1.166,0.69l0.235,0.928c0.132,0.512 -0.177,1.035 -0.691,1.165l-3.008,0.769l0.473,1.855l3.01,-0.768c1.535,-0.392 2.465,-1.958 2.072,-3.494Z" style="fill:#fff;"/>
    </g>
</svg>
