<?xml version="1.0" encoding="UTF-8" standalone="no"?><!DOCTYPE svg PUBLIC "-//W3C//DTD SVG 1.1//EN" "http://www.w3.org/Graphics/SVG/1.1/DTD/svg11.dtd"><svg width="16px" height="16px" version="1.1" xmlns="http://www.w3.org/2000/svg" xmlns:xlink="http://www.w3.org/1999/xlink" xml:space="preserve" style="fill-rule:evenodd;clip-rule:evenodd;stroke-linejoin:round;stroke-miterlimit:1.41421;"><g id="status"><path d="M0,0l16,0l0,16l-16,0l0,-16" style="fill:#3f7ab7;fill-rule:nonzero;"/><path d="M4.5,15l-3.5,0l0,-3.5l3.5,3.5Zm1.375,-2.4l1.238,1.238l5.93,-5.932l-1.238,-1.237l-5.93,5.931l0,0Zm4.075,-7.787l-5.932,5.93l1.239,1.238l5.93,-5.931l-1.237,-1.237l0,0Zm-0.619,-0.618l-1.237,-1.239l-5.932,5.932l1.239,1.237l5.93,-5.93l0,0Zm5.156,-0.207l-2.474,-2.475c-0.682,-0.684 -1.791,-0.684 -2.475,-0.001l-0.618,0.619l4.949,4.95l0.618,-0.618c0.328,-0.329 0.513,-0.774 0.513,-1.238c0,-0.463 -0.185,-0.909 -0.513,-1.237Z" style="fill:#fff;"/></g></svg>