<?xml version="1.0" encoding="UTF-8" standalone="no"?><!DOCTYPE svg PUBLIC "-//W3C//DTD SVG 1.1//EN" "http://www.w3.org/Graphics/SVG/1.1/DTD/svg11.dtd"><svg width="16px" height="16px" version="1.1" xmlns="http://www.w3.org/2000/svg" xmlns:xlink="http://www.w3.org/1999/xlink" xml:space="preserve" style="fill-rule:evenodd;clip-rule:evenodd;stroke-linejoin:round;stroke-miterlimit:1.41421;"><g id="status"><path d="M0,0l16,0l0,16l-16,0l0,-16" style="fill:#50b289;fill-rule:nonzero;"/><path d="M2.264,1.4l1.716,0.951l0.547,0.302l2.42,6.243c2.128,0.031 4.256,0.063 5.286,-0.771c0.964,-0.78 0.966,-2.317 0.906,-3.902l0.004,0c0.045,-0.402 0.393,-0.707 0.804,-0.692c0.433,0.014 0.77,0.377 0.756,0.809l-0.003,0.077c0,1.964 0,3.928 -1.468,4.91c-1.468,0.981 -4.404,0.981 -7.34,0.981l-0.316,-0.789l-0.001,0.001l-2.367,-5.807l-1.703,-0.944c-0.378,-0.209 -0.514,-0.685 -0.305,-1.064c0.209,-0.378 0.687,-0.514 1.064,-0.305Zm3.901,9.577c0.974,0 1.763,0.788 1.763,1.762c0,0.973 -0.789,1.761 -1.763,1.761c-0.972,0 -1.761,-0.788 -1.761,-1.761c0,-0.974 0.789,-1.762 1.761,-1.762Zm6.343,0c0.973,0 1.761,0.788 1.761,1.762c0,0.973 -0.788,1.761 -1.761,1.761c-0.973,0 -1.761,-0.788 -1.761,-1.761c0,-0.974 0.788,-1.762 1.761,-1.762" style="fill:#fff;fill-rule:nonzero;"/></g></svg>