<?xml version="1.0" encoding="UTF-8" standalone="no"?>
<!DOCTYPE svg PUBLIC "-//W3C//DTD SVG 1.1//EN" "http://www.w3.org/Graphics/SVG/1.1/DTD/svg11.dtd">
<svg width="16px" height="16px" version="1.1" xmlns="http://www.w3.org/2000/svg" xmlns:xlink="http://www.w3.org/1999/xlink" xml:space="preserve" style="fill-rule:evenodd;clip-rule:evenodd;stroke-linejoin:round;stroke-miterlimit:1.41421;">
    <g id="status">
        <rect x="0" y="0" width="16" height="16" style="fill:#3f7ab7;"/>
        <path d="M8.045,1l0.045,0.001l0.115,0.003l0.115,0.004l0.114,0.006l0.115,0.008l0.015,0.001l0.12,0.011l0.121,0.012l0.119,0.015l0.12,0.017l0.021,0.003l0.094,0.015l0.093,0.016l0.093,0.017l0.092,0.019l0.092,0.02l0.092,0.021l0.092,0.023l0.092,0.023l0.063,0.018l0.106,0.03l0.105,0.031l0.104,0.034l0.104,0.035l0.085,0.03l0.085,0.031l0.085,0.033l0.084,0.033l0.083,0.034l0.083,0.036l0.083,0.037l0.082,0.037l0.098,0.047l0.098,0.048l0.096,0.05l0.096,0.052l0.095,0.053l0.094,0.054l0.093,0.056l0.092,0.057l0.092,0.058l0.09,0.06l0.09,0.062l0.088,0.062l0.088,0.065l0.086,0.065l0.086,0.067l0.084,0.068l0.064,0.052l0.063,0.054l0.063,0.054l0.061,0.055l0.062,0.056l0.06,0.056l0.06,0.057l0.059,0.058l0.059,0.059l0.058,0.059l0.057,0.06l0.057,0.06l0.055,0.061l0.055,0.062l0.055,0.062l0.053,0.063l0.053,0.064l0.052,0.064l0.052,0.065l0.05,0.066l0.05,0.066l0.049,0.067l0.049,0.067l0.047,0.068l0.047,0.068l0.046,0.069l0.045,0.07l0.044,0.07l0.044,0.071l0.042,0.071l0.042,0.072l0.041,0.072l0.038,0.069l0.059,0.111l0.057,0.113l0.055,0.113l0.054,0.115l0.051,0.116l0.049,0.116l0.047,0.117l0.044,0.119l0.043,0.118l0.04,0.12l0.038,0.121l0.036,0.121l0.034,0.121l0.032,0.123l0.029,0.123l0.027,0.123l0.008,0.035l0.018,0.094l0.017,0.093l0.016,0.095l0.015,0.094l0.013,0.094l0.012,0.095l0.011,0.095l0.01,0.095l0.008,0.095l0.007,0.095l0.005,0.095l0.005,0.096l0.003,0.095l0.002,0.096l0,0.095l-0.001,0.096l-0.002,0.097l-0.001,0.034l-0.006,0.14l-0.009,0.139l-0.012,0.14l-0.014,0.139l-0.011,0.094l-0.011,0.082l-0.012,0.082l-0.001,0.003l0,0.005l-0.02,0.121l-0.022,0.122l-0.024,0.121l-0.026,0.12l-0.028,0.12l-0.031,0.12l-0.032,0.119l-0.035,0.118l-0.037,0.118l-0.038,0.117l-0.041,0.117l-0.043,0.115l-0.045,0.115l-0.047,0.114l-0.049,0.114l-0.051,0.112l-0.005,0.011l-0.041,0.087l-0.043,0.086l-0.043,0.085l-0.045,0.085l-0.046,0.084l-0.047,0.084l-0.048,0.082l-0.05,0.083l-0.05,0.081l-0.052,0.081l-0.052,0.08l-0.054,0.08l-0.055,0.078l-0.056,0.078l-0.057,0.077l-0.058,0.077l-0.054,0.07l-0.055,0.069l-0.057,0.068l-0.057,0.068l-0.058,0.067l-0.058,0.066l-0.06,0.066l-0.06,0.065l-0.1,0.103l-0.101,0.101l-0.086,0.082l-0.087,0.081l-0.089,0.08l-0.09,0.078l-0.092,0.077l-0.092,0.075l-0.094,0.073l-0.095,0.072l-0.097,0.07l-0.097,0.068l-0.099,0.067l-0.1,0.066l-0.101,0.063l-0.101,0.062l-0.103,0.06l-0.104,0.058l-0.049,0.026l-0.083,0.045l-0.084,0.043l-0.104,0.051l-0.105,0.05l-0.107,0.048l-0.106,0.047l-0.073,0.03l-0.072,0.029l-0.073,0.028l-0.073,0.028l-0.074,0.027l-0.074,0.026l-0.074,0.025l-0.074,0.024l-0.075,0.023l-0.075,0.023l-0.075,0.022l-0.075,0.021l-0.076,0.02l-0.076,0.019l-0.076,0.018l-0.076,0.018l-0.076,0.016l-0.077,0.016l-0.077,0.015l-0.077,0.014l-0.077,0.013l-0.077,0.013l-0.077,0.011l-0.078,0.011l-0.077,0.01l-0.078,0.009l-0.078,0.008l-0.078,0.007l-0.078,0.006l-0.078,0.006l-0.078,0.004l-0.078,0.004l-0.102,0.003l-0.102,0.002l-0.085,0.001l-0.082,0l-0.082,-0.002l-0.082,-0.002l-0.083,-0.004l-0.082,-0.004l-0.082,-0.005l-0.082,-0.006l-0.082,-0.007l-0.082,-0.008l-0.081,-0.01l-0.082,-0.01l-0.081,-0.011l-0.082,-0.011l-0.081,-0.013l-0.081,-0.014l-0.081,-0.015l-0.081,-0.016l-0.08,-0.016l-0.081,-0.018l-0.08,-0.018l-0.079,-0.02l-0.08,-0.02l-0.08,-0.022l-0.079,-0.022l-0.079,-0.023l-0.078,-0.024l-0.079,-0.025l-0.078,-0.026l-0.077,-0.027l-0.078,-0.028l-0.077,-0.029l-0.077,-0.03l-0.121,-0.049l-0.121,-0.052l-0.12,-0.054l-0.118,-0.056l-0.118,-0.058l-0.116,-0.061l-0.115,-0.063l-0.114,-0.064l-0.097,-0.057l-0.004,-0.003l-0.009,-0.006l-0.078,-0.048l-0.078,-0.049l-0.092,-0.06l-0.119,-0.081l-0.117,-0.083l-0.115,-0.085l-0.114,-0.088l-0.112,-0.09l-0.109,-0.092l-0.108,-0.095l-0.106,-0.096l-0.062,-0.058l-0.061,-0.059l-0.06,-0.059l-0.059,-0.06l-0.094,-0.098l-0.092,-0.1l-0.09,-0.102l-0.088,-0.104l-0.086,-0.105l-0.084,-0.106l-0.082,-0.109l-0.08,-0.11l-0.078,-0.111l-0.076,-0.113l-0.073,-0.114l-0.071,-0.116l-0.069,-0.117l-0.067,-0.118l-0.064,-0.12l-0.062,-0.121l-0.007,-0.014l-0.038,-0.078l-0.037,-0.079l-0.036,-0.078l-0.036,-0.08l-0.034,-0.08l-0.033,-0.08l-0.032,-0.08l-0.032,-0.081l-0.03,-0.082l-0.029,-0.081l-0.028,-0.083l-0.027,-0.082l-0.026,-0.083l-0.025,-0.083l-0.024,-0.083l-0.023,-0.084l-0.023,-0.087l-0.022,-0.088l-0.02,-0.088l-0.02,-0.088l-0.02,-0.099l-0.019,-0.099l-0.017,-0.099l-0.016,-0.1l-0.02,-0.137l-0.017,-0.138l-0.014,-0.139l-0.012,-0.139l-0.008,-0.139l-0.006,-0.139l-0.003,-0.139l-0.001,-0.139l0.002,-0.139l0.005,-0.139l0.008,-0.139l0.01,-0.139l0.014,-0.138l0.015,-0.139l0.019,-0.138l0.022,-0.137l0.021,-0.122l0.023,-0.122l0.026,-0.121l0.028,-0.12l0.03,-0.12l0.032,-0.12l0.034,-0.119l0.037,-0.118l0.038,-0.118l0.041,-0.117l0.042,-0.116l0.045,-0.115l0.046,-0.115l0.049,-0.114l0.051,-0.113l0.053,-0.112l0.032,-0.065l0.032,-0.065l0.033,-0.064l0.034,-0.064l0.035,-0.064l0.035,-0.064l0.036,-0.063l0.036,-0.062l0.038,-0.062l0.037,-0.062l0.039,-0.062l0.039,-0.061l0.08,-0.12l0.082,-0.119l0.085,-0.118l0.088,-0.115l0.089,-0.114l0.092,-0.112l0.094,-0.11l0.096,-0.108l0.099,-0.106l0.1,-0.104l0.103,-0.101l0.105,-0.1l0.107,-0.098l0.109,-0.095l0.11,-0.093l0.113,-0.091l0.114,-0.089l0.117,-0.086l0.118,-0.084l0.119,-0.082l0.061,-0.039l0.061,-0.04l0.061,-0.038l0.062,-0.038l0.062,-0.037l0.063,-0.037l0.063,-0.036l0.063,-0.035l0.064,-0.035l0.064,-0.034l0.064,-0.033l0.065,-0.033l0.071,-0.034l0.07,-0.034l0.071,-0.033l0.072,-0.032l0.072,-0.031l0.072,-0.031l0.073,-0.03l0.073,-0.028l0.073,-0.028l0.073,-0.028l0.074,-0.026l0.074,-0.026l0.075,-0.024l0.074,-0.024l0.075,-0.023l0.075,-0.022l0.13,-0.036l0.13,-0.034l0.131,-0.031l0.131,-0.028l0.091,-0.019l0.092,-0.017l0.12,-0.02l0.12,-0.018l0.121,-0.016l0.121,-0.014l0.121,-0.012l0.121,-0.01l0.122,-0.008l0.122,-0.006l0.009,0l0.131,-0.003l0.13,-0.002l0.023,0l0.022,0Zm-0.116,1.5l-0.097,0.003l-0.096,0.004l-0.096,0.005l-0.096,0.007l-0.096,0.009l-0.096,0.01l-0.095,0.012l-0.096,0.014l-0.096,0.015l-0.095,0.017l-0.096,0.019l-0.095,0.021l-0.094,0.022l-0.094,0.024l-0.094,0.026l-0.093,0.027l-0.093,0.03l-0.092,0.03l-0.092,0.033l-0.091,0.033l-0.091,0.036l-0.089,0.037l-0.09,0.039l-0.088,0.04l-0.097,0.047l-0.097,0.049l-0.095,0.05l-0.094,0.052l-0.093,0.054l-0.092,0.056l-0.091,0.058l-0.09,0.059l-0.088,0.062l-0.088,0.062l-0.086,0.065l-0.085,0.066l-0.083,0.068l-0.082,0.069l-0.081,0.071l-0.08,0.073l-0.078,0.074l-0.076,0.076l-0.075,0.077l-0.074,0.078l-0.072,0.08l-0.071,0.081l-0.069,0.083l-0.067,0.083l-0.066,0.086l-0.064,0.086l-0.063,0.088l-0.06,0.089l-0.059,0.09l-0.058,0.091l-0.055,0.093l-0.054,0.094l-0.048,0.088l-0.047,0.089l-0.045,0.09l-0.043,0.091l-0.042,0.092l-0.04,0.092l-0.038,0.094l-0.037,0.093l-0.035,0.095l-0.033,0.095l-0.031,0.096l-0.03,0.096l-0.027,0.097l-0.026,0.097l-0.025,0.098l-0.022,0.098l-0.024,0.116l-0.021,0.116l-0.019,0.116l-0.016,0.117l-0.014,0.117l-0.012,0.118l-0.009,0.118l-0.006,0.117l-0.004,0.118l-0.001,0.118l0.001,0.118l0.004,0.118l0.006,0.118l0.009,0.118l0.011,0.117l0.013,0.118l0.014,0.1l0.016,0.101l0.017,0.1l0.02,0.1l0.021,0.099l0.023,0.099l0.025,0.099l0.027,0.098l0.028,0.097l0.031,0.097l0.032,0.097l0.034,0.096l0.036,0.095l0.037,0.094l0.039,0.094l0.041,0.093l0.053,0.113l0.055,0.111l0.058,0.111l0.06,0.108l0.062,0.108l0.065,0.106l0.068,0.104l0.069,0.103l0.072,0.102l0.074,0.1l0.077,0.098l0.078,0.096l0.081,0.095l0.083,0.092l0.085,0.091l0.087,0.089l0.092,0.09l0.094,0.088l0.096,0.085l0.098,0.083l0.1,0.081l0.101,0.079l0.104,0.076l0.105,0.074l0.107,0.071l0.108,0.069l0.111,0.066l0.055,0.032l0.056,0.032l0.056,0.03l0.057,0.031l0.057,0.029l0.058,0.029l0.057,0.028l0.059,0.028l0.058,0.027l0.059,0.026l0.061,0.026l0.061,0.025l0.061,0.025l0.062,0.024l0.062,0.023l0.063,0.023l0.062,0.021l0.063,0.021l0.063,0.02l0.064,0.02l0.063,0.018l0.064,0.018l0.064,0.017l0.064,0.016l0.065,0.016l0.064,0.015l0.065,0.014l0.065,0.013l0.065,0.012l0.065,0.012l0.066,0.011l0.065,0.01l0.066,0.009l0.066,0.008l0.066,0.008l0.065,0.007l0.066,0.006l0.067,0.005l0.066,0.005l0.066,0.003l0.066,0.003l0.066,0.002l0.067,0.001l0.067,0.001l0.067,0l0.067,-0.001l0.067,-0.002l0.066,-0.003l0.067,-0.004l0.067,-0.004l0.067,-0.005l0.066,-0.006l0.067,-0.007l0.066,-0.007l0.066,-0.009l0.066,-0.009l0.066,-0.01l0.066,-0.01l0.066,-0.012l0.066,-0.012l0.065,-0.013l0.066,-0.014l0.065,-0.015l0.065,-0.016l0.065,-0.016l0.064,-0.017l0.064,-0.018l0.065,-0.018l0.064,-0.02l0.063,-0.02l0.064,-0.021l0.063,-0.022l0.063,-0.023l0.063,-0.023l0.06,-0.023l0.059,-0.024l0.06,-0.025l0.059,-0.025l0.059,-0.026l0.058,-0.027l0.059,-0.027l0.057,-0.029l0.058,-0.028l0.057,-0.03l0.057,-0.03l0.057,-0.031l0.056,-0.031l0.055,-0.032l0.111,-0.067l0.109,-0.068l0.107,-0.071l0.105,-0.074l0.104,-0.076l0.102,-0.079l0.1,-0.081l0.05,-0.041l0.048,-0.042l0.049,-0.042l0.048,-0.043l0.091,-0.085l0.089,-0.087l0.087,-0.088l0.085,-0.091l0.083,-0.092l0.081,-0.094l0.079,-0.096l0.076,-0.098l0.075,-0.099l0.072,-0.101l0.07,-0.103l0.067,-0.104l0.066,-0.106l0.062,-0.107l0.061,-0.109l0.058,-0.11l0.047,-0.094l0.045,-0.095l0.044,-0.096l0.041,-0.097l0.04,-0.097l0.038,-0.099l0.036,-0.099l0.034,-0.1l0.032,-0.1l0.03,-0.101l0.028,-0.101l0.027,-0.103l0.024,-0.102l0.022,-0.103l0.02,-0.104l0.019,-0.103l0.017,-0.113l0.015,-0.113l0.013,-0.113l0.011,-0.113l0.008,-0.114l0.005,-0.113l0.004,-0.114l0.001,-0.114l-0.001,-0.114l-0.004,-0.114l-0.005,-0.113l-0.008,-0.114l-0.011,-0.113l-0.013,-0.113l-0.015,-0.113l-0.017,-0.113l-0.018,-0.099l-0.019,-0.1l-0.021,-0.099l-0.023,-0.098l-0.025,-0.098l-0.027,-0.098l-0.028,-0.097l-0.031,-0.097l-0.032,-0.096l-0.034,-0.095l-0.035,-0.095l-0.038,-0.094l-0.039,-0.093l-0.04,-0.093l-0.043,-0.092l-0.044,-0.091l-0.05,-0.098l-0.052,-0.097l-0.054,-0.096l-0.056,-0.094l-0.057,-0.094l-0.06,-0.092l-0.061,-0.091l-0.063,-0.09l-0.065,-0.088l-0.066,-0.088l-0.069,-0.085l-0.069,-0.085l-0.072,-0.083l-0.073,-0.082l-0.075,-0.08l-0.076,-0.079l-0.078,-0.077l-0.079,-0.076l-0.081,-0.074l-0.082,-0.072l-0.084,-0.071l-0.085,-0.069l-0.086,-0.068l-0.088,-0.066l-0.089,-0.064l-0.09,-0.062l-0.092,-0.061l-0.093,-0.059l-0.094,-0.057l-0.095,-0.055l-0.096,-0.053l-0.097,-0.051l-0.065,-0.032l-0.066,-0.032l-0.065,-0.031l-0.066,-0.03l-0.066,-0.029l-0.067,-0.028l-0.067,-0.027l-0.067,-0.026l-0.068,-0.026l-0.068,-0.024l-0.068,-0.024l-0.068,-0.022l-0.069,-0.022l-0.069,-0.021l-0.07,-0.02l-0.069,-0.019l-0.07,-0.018l-0.07,-0.017l-0.07,-0.016l-0.071,-0.016l-0.07,-0.014l-0.071,-0.014l-0.071,-0.012l-0.072,-0.012l-0.071,-0.011l-0.072,-0.01l-0.071,-0.009l-0.072,-0.008l-0.072,-0.007l-0.072,-0.007l-0.073,-0.005l-0.072,-0.005l-0.089,-0.003l-0.089,-0.002l-0.089,-0.002l-0.088,0Zm0.161,5.501l0.09,0.004l0.089,0.005l0.089,0.008l0.088,0.01l0.087,0.012l0.087,0.015l0.085,0.016l0.085,0.019l0.085,0.02l0.083,0.023l0.083,0.024l0.082,0.027l0.08,0.028l0.08,0.031l0.079,0.032l0.078,0.034l0.077,0.036l0.076,0.038l0.075,0.039l0.074,0.042l0.073,0.043l0.071,0.044l0.071,0.047l0.069,0.048l0.068,0.049l0.067,0.051l0.065,0.053l0.064,0.054l0.063,0.056l0.062,0.057l0.06,0.059l0.059,0.06l0.057,0.062l0.056,0.063l0.054,0.064l0.052,0.065l0.052,0.067l0.049,0.068l0.048,0.069l0.047,0.071l0.044,0.071l0.043,0.073l0.042,0.074l0.039,0.075l0.038,0.076l0.036,0.077l0.034,0.078l0.032,0.079l0.031,0.08l0.028,0.08l0.027,0.082l0.024,0.083l0.023,0.083l0.02,0.085l0.019,0.085l0.016,0.085l0.015,0.087l0.012,0.087l0.01,0.088l0.008,0.089l0.005,0.089l0.004,0.09l0.001,0.09l-1.33,0l-0.001,-0.056l-0.002,-0.056l-0.003,-0.055l-0.005,-0.055l-0.006,-0.054l-0.008,-0.054l-0.009,-0.054l-0.01,-0.053l-0.012,-0.053l-0.012,-0.052l-0.014,-0.052l-0.016,-0.051l-0.016,-0.051l-0.018,-0.05l-0.019,-0.05l-0.02,-0.049l-0.021,-0.048l-0.022,-0.048l-0.023,-0.047l-0.025,-0.046l-0.026,-0.046l-0.026,-0.045l-0.028,-0.045l-0.029,-0.043l-0.029,-0.043l-0.031,-0.042l-0.032,-0.042l-0.033,-0.04l-0.033,-0.04l-0.035,-0.039l-0.035,-0.038l-0.037,-0.037l-0.037,-0.037l-0.038,-0.035l-0.039,-0.035l-0.04,-0.033l-0.04,-0.033l-0.042,-0.032l-0.042,-0.031l-0.043,-0.029l-0.043,-0.029l-0.045,-0.028l-0.045,-0.026l-0.046,-0.026l-0.046,-0.025l-0.047,-0.023l-0.048,-0.022l-0.048,-0.021l-0.049,-0.02l-0.05,-0.019l-0.05,-0.018l-0.051,-0.016l-0.051,-0.016l-0.052,-0.014l-0.052,-0.012l-0.053,-0.012l-0.053,-0.01l-0.054,-0.009l-0.054,-0.008l-0.054,-0.006l-0.055,-0.005l-0.055,-0.003l-0.056,-0.002l-0.056,-0.001l-0.056,0.001l-0.056,0.002l-0.055,0.003l-0.055,0.005l-0.054,0.006l-0.054,0.008l-0.054,0.009l-0.053,0.01l-0.053,0.012l-0.052,0.012l-0.052,0.014l-0.051,0.016l-0.051,0.016l-0.05,0.018l-0.05,0.019l-0.049,0.02l-0.048,0.021l-0.048,0.022l-0.047,0.023l-0.046,0.025l-0.046,0.026l-0.045,0.026l-0.045,0.028l-0.043,0.029l-0.043,0.029l-0.042,0.031l-0.042,0.032l-0.04,0.033l-0.04,0.033l-0.039,0.035l-0.038,0.035l-0.037,0.037l-0.037,0.037l-0.035,0.038l-0.035,0.039l-0.033,0.04l-0.033,0.04l-0.032,0.042l-0.031,0.042l-0.029,0.043l-0.029,0.043l-0.028,0.045l-0.027,0.045l-0.025,0.046l-0.025,0.046l-0.023,0.047l-0.022,0.048l-0.021,0.048l-0.02,0.049l-0.019,0.05l-0.018,0.05l-0.016,0.051l-0.016,0.051l-0.014,0.052l-0.012,0.052l-0.012,0.053l-0.01,0.053l-0.009,0.054l-0.008,0.054l-0.006,0.054l-0.005,0.055l-0.003,0.055l-0.002,0.056l-0.001,0.056l-1.33,0l0.001,-0.09l0.004,-0.09l0.005,-0.089l0.008,-0.089l0.01,-0.088l0.012,-0.087l0.015,-0.087l0.016,-0.085l0.019,-0.085l0.02,-0.085l0.023,-0.083l0.024,-0.083l0.027,-0.082l0.028,-0.08l0.031,-0.08l0.032,-0.079l0.034,-0.078l0.036,-0.077l0.038,-0.076l0.039,-0.075l0.042,-0.074l0.043,-0.073l0.044,-0.071l0.047,-0.071l0.048,-0.069l0.049,-0.068l0.052,-0.067l0.052,-0.065l0.054,-0.064l0.056,-0.063l0.057,-0.062l0.059,-0.06l0.06,-0.059l0.062,-0.057l0.063,-0.056l0.064,-0.054l0.065,-0.052l0.067,-0.052l0.068,-0.049l0.069,-0.048l0.071,-0.047l0.071,-0.044l0.073,-0.043l0.074,-0.042l0.075,-0.039l0.076,-0.038l0.077,-0.036l0.078,-0.034l0.079,-0.032l0.08,-0.031l0.08,-0.028l0.082,-0.027l0.083,-0.024l0.083,-0.023l0.085,-0.02l0.085,-0.019l0.085,-0.016l0.087,-0.015l0.087,-0.012l0.088,-0.01l0.089,-0.008l0.089,-0.005l0.09,-0.004l0.09,-0.001l0.09,0.001Zm-2.064,-3.501l0.025,0.002l0.026,0.002l0.025,0.004l0.025,0.004l0.025,0.005l0.025,0.006l0.024,0.007l0.025,0.008l0.024,0.009l0.024,0.01l0.023,0.01l0.024,0.012l0.023,0.012l0.023,0.013l0.022,0.014l0.022,0.015l0.022,0.015l0.022,0.016l0.021,0.017l0.022,0.018l0.02,0.018l0.041,0.039l0.039,0.042l0.038,0.045l0.036,0.047l0.035,0.05l0.033,0.052l0.032,0.054l0.029,0.057l0.028,0.059l0.026,0.06l0.024,0.063l0.022,0.065l0.02,0.066l0.018,0.068l0.016,0.07l0.013,0.071l0.012,0.073l0.008,0.074l0.007,0.075l0.004,0.076l0.001,0.077l-0.001,0.077l-0.004,0.076l-0.007,0.075l-0.008,0.074l-0.012,0.073l-0.013,0.071l-0.016,0.07l-0.018,0.068l-0.02,0.066l-0.022,0.065l-0.024,0.063l-0.026,0.06l-0.028,0.059l-0.029,0.057l-0.032,0.054l-0.033,0.052l-0.035,0.05l-0.036,0.047l-0.038,0.045l-0.039,0.042l-0.041,0.039l-0.02,0.018l-0.022,0.018l-0.021,0.017l-0.022,0.016l-0.022,0.015l-0.022,0.015l-0.022,0.014l-0.023,0.013l-0.023,0.012l-0.024,0.012l-0.023,0.01l-0.024,0.01l-0.024,0.009l-0.025,0.008l-0.024,0.007l-0.025,0.006l-0.025,0.005l-0.025,0.004l-0.025,0.004l-0.026,0.002l-0.025,0.002l-0.026,0l-0.026,0l-0.025,-0.002l-0.026,-0.002l-0.025,-0.004l-0.025,-0.004l-0.025,-0.005l-0.025,-0.006l-0.024,-0.007l-0.025,-0.008l-0.024,-0.009l-0.024,-0.01l-0.023,-0.01l-0.024,-0.012l-0.023,-0.012l-0.023,-0.013l-0.022,-0.014l-0.022,-0.015l-0.022,-0.015l-0.022,-0.016l-0.021,-0.017l-0.022,-0.018l-0.02,-0.018l-0.041,-0.039l-0.039,-0.042l-0.038,-0.045l-0.036,-0.047l-0.035,-0.05l-0.033,-0.052l-0.032,-0.054l-0.029,-0.057l-0.028,-0.059l-0.026,-0.06l-0.024,-0.063l-0.022,-0.065l-0.02,-0.066l-0.018,-0.068l-0.016,-0.07l-0.013,-0.071l-0.012,-0.073l-0.008,-0.074l-0.007,-0.075l-0.004,-0.076l-0.001,-0.077l0.001,-0.077l0.004,-0.076l0.007,-0.075l0.008,-0.074l0.012,-0.073l0.013,-0.071l0.016,-0.07l0.018,-0.068l0.02,-0.066l0.022,-0.065l0.024,-0.063l0.026,-0.06l0.028,-0.059l0.029,-0.057l0.032,-0.054l0.033,-0.052l0.035,-0.05l0.036,-0.047l0.038,-0.045l0.039,-0.042l0.041,-0.039l0.02,-0.018l0.022,-0.018l0.021,-0.017l0.022,-0.016l0.022,-0.015l0.022,-0.015l0.022,-0.014l0.023,-0.013l0.023,-0.012l0.024,-0.012l0.023,-0.01l0.024,-0.01l0.024,-0.009l0.025,-0.008l0.024,-0.007l0.025,-0.006l0.025,-0.005l0.025,-0.004l0.025,-0.004l0.026,-0.002l0.025,-0.002l0.026,0l0.026,0Zm4,0l0.025,0.002l0.026,0.002l0.025,0.004l0.025,0.004l0.025,0.005l0.025,0.006l0.024,0.007l0.025,0.008l0.024,0.009l0.024,0.01l0.023,0.01l0.024,0.012l0.023,0.012l0.023,0.013l0.022,0.014l0.022,0.015l0.022,0.015l0.022,0.016l0.021,0.017l0.022,0.018l0.02,0.018l0.041,0.039l0.039,0.042l0.038,0.045l0.036,0.047l0.035,0.05l0.033,0.052l0.032,0.054l0.029,0.057l0.028,0.059l0.026,0.06l0.024,0.063l0.022,0.065l0.02,0.066l0.018,0.068l0.016,0.07l0.013,0.071l0.012,0.073l0.008,0.074l0.007,0.075l0.004,0.076l0.001,0.077l-0.001,0.077l-0.004,0.076l-0.007,0.075l-0.008,0.074l-0.012,0.073l-0.013,0.071l-0.016,0.07l-0.018,0.068l-0.02,0.066l-0.022,0.065l-0.024,0.063l-0.026,0.06l-0.028,0.059l-0.029,0.057l-0.032,0.054l-0.033,0.052l-0.035,0.05l-0.036,0.047l-0.038,0.045l-0.039,0.042l-0.041,0.039l-0.02,0.018l-0.022,0.018l-0.021,0.017l-0.022,0.016l-0.022,0.015l-0.022,0.015l-0.022,0.014l-0.023,0.013l-0.023,0.012l-0.024,0.012l-0.023,0.01l-0.024,0.01l-0.024,0.009l-0.025,0.008l-0.024,0.007l-0.025,0.006l-0.025,0.005l-0.025,0.004l-0.025,0.004l-0.026,0.002l-0.025,0.002l-0.026,0l-0.026,0l-0.025,-0.002l-0.026,-0.002l-0.025,-0.004l-0.025,-0.004l-0.025,-0.005l-0.025,-0.006l-0.024,-0.007l-0.025,-0.008l-0.024,-0.009l-0.024,-0.01l-0.023,-0.01l-0.024,-0.012l-0.023,-0.012l-0.023,-0.013l-0.022,-0.014l-0.022,-0.015l-0.022,-0.015l-0.022,-0.016l-0.021,-0.017l-0.022,-0.018l-0.02,-0.018l-0.041,-0.039l-0.039,-0.042l-0.038,-0.045l-0.036,-0.047l-0.035,-0.05l-0.033,-0.052l-0.032,-0.054l-0.029,-0.057l-0.028,-0.059l-0.026,-0.06l-0.024,-0.063l-0.022,-0.065l-0.02,-0.066l-0.018,-0.068l-0.016,-0.07l-0.013,-0.071l-0.012,-0.073l-0.008,-0.074l-0.007,-0.075l-0.004,-0.076l-0.001,-0.077l0.001,-0.077l0.004,-0.076l0.007,-0.075l0.008,-0.074l0.012,-0.073l0.013,-0.071l0.016,-0.07l0.018,-0.068l0.02,-0.066l0.022,-0.065l0.024,-0.063l0.026,-0.06l0.028,-0.059l0.029,-0.057l0.032,-0.054l0.033,-0.052l0.035,-0.05l0.036,-0.047l0.038,-0.045l0.039,-0.042l0.041,-0.039l0.02,-0.018l0.022,-0.018l0.021,-0.017l0.022,-0.016l0.022,-0.015l0.022,-0.015l0.022,-0.014l0.023,-0.013l0.023,-0.012l0.024,-0.012l0.023,-0.01l0.024,-0.01l0.024,-0.009l0.025,-0.008l0.024,-0.007l0.025,-0.006l0.025,-0.005l0.025,-0.004l0.025,-0.004l0.026,-0.002l0.025,-0.002l0.026,0l0.026,0Z" style="fill:#fff;"/>
    </g>
</svg>
