<?xml version="1.0" encoding="UTF-8" standalone="no"?><!DOCTYPE svg PUBLIC "-//W3C//DTD SVG 1.1//EN" "http://www.w3.org/Graphics/SVG/1.1/DTD/svg11.dtd"><svg width="16px" height="16px" version="1.1" xmlns="http://www.w3.org/2000/svg" xmlns:xlink="http://www.w3.org/1999/xlink" xml:space="preserve" style="fill-rule:evenodd;clip-rule:evenodd;stroke-linejoin:round;stroke-miterlimit:1.41421;"><g id="status"><path d="M0,0l16,0l0,16l-16,0l0,-16" style="fill:#cc4c33;fill-rule:nonzero;"/><path d="M8,3c3.313,0 6,2.687 6,6c0,3.313 -2.687,6 -6,6c-3.313,0 -6,-2.687 -6,-6c0,-3.313 2.687,-6 6,-6Zm0,1.5c-2.485,0 -4.5,2.015 -4.5,4.5c0,2.485 2.015,4.5 4.5,4.5c2.485,0 4.5,-2.015 4.5,-4.5c0,-2.485 -2.015,-4.5 -4.5,-4.5Zm0,5.5l-4,0l0,-2l4,0c0.551,0 1.011,0.468 1,1c0,0.552 -0.449,1 -1,1Zm-2,-9l4,0l0,2l-4,0l0,-2Z" style="fill:#fff;"/></g></svg>