<?xml version="1.0" encoding="UTF-8" standalone="no"?>
<!DOCTYPE svg PUBLIC "-//W3C//DTD SVG 1.1//EN" "http://www.w3.org/Graphics/SVG/1.1/DTD/svg11.dtd">
<svg width="16px" height="16px" version="1.1" xmlns="http://www.w3.org/2000/svg" xmlns:xlink="http://www.w3.org/1999/xlink" xml:space="preserve" style="fill-rule:evenodd;clip-rule:evenodd;stroke-linejoin:round;stroke-miterlimit:1.41421;">
    <g id="status">
        <rect x="0" y="0" width="16" height="16" style="fill:#3f7ab7;"/>
        <path d="M15.407,11.094c0.041,0 0.077,0.027 0.089,0.066c0.012,0.04 -0.003,0.083 -0.038,0.105l-1.996,1.347c-0.039,0.025 -0.052,0.075 -0.033,0.117l1.082,2.365c0.017,0.039 0.008,0.083 -0.024,0.11c-0.031,0.028 -0.076,0.031 -0.111,0.009l-2.363,-1.486c-0.031,-0.019 -0.069,-0.019 -0.1,0l-2.363,1.486c-0.034,0.022 -0.079,0.019 -0.111,-0.009c-0.031,-0.027 -0.041,-0.071 -0.024,-0.11l1.083,-2.365c0.019,-0.042 0.005,-0.092 -0.033,-0.117l-1.998,-1.347c-0.033,-0.022 -0.049,-0.065 -0.037,-0.105c0.012,-0.039 0.049,-0.066 0.09,-0.066l2.488,0c0.041,0 0.078,-0.027 0.09,-0.066l0.775,-2.494c0.013,-0.039 0.049,-0.065 0.09,-0.065c0.042,0 0.077,0.026 0.089,0.065l0.777,2.494c0.012,0.039 0.047,0.066 0.089,0.066l2.489,0Zm-11.459,-2.756c0.012,-0.039 0.048,-0.065 0.09,-0.065c0.041,0 0.077,0.026 0.089,0.065l0.776,2.494c0.012,0.04 0.048,0.066 0.089,0.066l2.489,0c0.041,0 0.077,0.027 0.089,0.066c0.012,0.04 -0.003,0.083 -0.037,0.106l-1.997,1.346c-0.039,0.025 -0.052,0.075 -0.033,0.117l1.082,2.366c0.018,0.038 0.008,0.082 -0.024,0.11c-0.031,0.027 -0.076,0.031 -0.111,0.008l-2.363,-1.485c-0.031,-0.02 -0.069,-0.02 -0.1,0l-2.363,1.485c-0.034,0.023 -0.079,0.019 -0.111,-0.008c-0.031,-0.028 -0.04,-0.072 -0.024,-0.11l1.083,-2.366c0.019,-0.042 0.005,-0.092 -0.032,-0.117l-1.998,-1.346c-0.034,-0.023 -0.05,-0.066 -0.038,-0.106c0.012,-0.039 0.049,-0.066 0.09,-0.066l2.488,0c0.042,0 0.078,-0.026 0.09,-0.066l0.776,-2.494l0,0Zm3.963,-7.5c0.012,-0.039 0.048,-0.065 0.09,-0.065c0.041,0 0.076,0.026 0.089,0.065l0.776,2.494c0.012,0.039 0.048,0.066 0.089,0.066l2.489,0c0.041,0 0.077,0.027 0.089,0.066c0.012,0.04 -0.003,0.083 -0.037,0.106l-1.997,1.346c-0.039,0.025 -0.052,0.075 -0.033,0.117l1.082,2.366c0.018,0.037 0.008,0.082 -0.024,0.11c-0.031,0.027 -0.076,0.031 -0.111,0.008l-2.363,-1.485c-0.031,-0.02 -0.069,-0.02 -0.1,0l-2.363,1.485c-0.034,0.023 -0.079,0.019 -0.111,-0.008c-0.031,-0.028 -0.041,-0.073 -0.024,-0.11l1.083,-2.366c0.019,-0.042 0.005,-0.092 -0.033,-0.117l-1.997,-1.346c-0.034,-0.023 -0.05,-0.066 -0.038,-0.106c0.012,-0.039 0.049,-0.066 0.09,-0.066l2.488,0c0.041,0 0.078,-0.027 0.09,-0.066l0.776,-2.494l0,0Z" style="fill:#fff;"/>
    </g>
</svg>
