<?xml version="1.0" encoding="UTF-8" standalone="no"?>
<!DOCTYPE svg PUBLIC "-//W3C//DTD SVG 1.1//EN" "http://www.w3.org/Graphics/SVG/1.1/DTD/svg11.dtd">
<svg width="16px" height="16px" version="1.1" xmlns="http://www.w3.org/2000/svg" xmlns:xlink="http://www.w3.org/1999/xlink" xml:space="preserve" style="fill-rule:evenodd;clip-rule:evenodd;stroke-linejoin:round;stroke-miterlimit:1.41421;">
    <g id="status">
        <path d="M0,0l16,0l0,16l-16,0l0,-16" style="fill:#3f7ab7;fill-rule:nonzero;"/>
        <path d="M7.502,14c-0.275,0 -0.5,0.225 -0.5,0.5l-0.001,1c0,0.275 0.225,0.5 0.5,0.5c0.274,0.002 0.5,-0.223 0.5,-0.498l0.001,-1.002c0,-0.275 -0.225,-0.5 -0.5,-0.5Zm5.095,-1.404c-0.194,-0.193 -0.512,-0.195 -0.706,0c-0.194,0.193 -0.194,0.512 0,0.707l0.706,0.707c0.195,0.195 0.513,0.195 0.708,0c0.194,-0.193 0.194,-0.512 0,-0.705l-0.708,-0.709Zm-9.899,-0.705l-0.708,0.707c-0.194,0.195 -0.194,0.514 0,0.707c0.194,0.195 0.513,0.195 0.707,0l0.708,-0.707c0.194,-0.193 0.194,-0.512 0,-0.707c-0.194,-0.193 -0.513,-0.193 -0.707,0Zm5.303,-8.891m0,0c-2.761,0 -5,2.238 -5,5c0,2.762 2.239,5 5,5c2.761,0 5,-2.238 5,-5c0,-2.762 -2.239,-5 -5,-5Zm7.5,5c0.275,0 0.5,0.225 0.499,0.5c0,0.275 -0.226,0.5 -0.501,0.5l-0.999,-0.002c-0.275,0 -0.5,-0.225 -0.5,-0.5c0,-0.273 0.225,-0.498 0.5,-0.498l1.001,0Zm-14.001,-0.998c0.275,0 0.5,0.225 0.5,0.5c0,0.275 -0.225,0.5 -0.5,0.5l-1,0c-0.275,0 -0.5,-0.225 -0.5,-0.5c0,-0.275 0.225,-0.5 0.5,-0.5l1,0Zm11.801,-2.893l0.707,-0.705c0.195,-0.193 0.195,-0.512 0.001,-0.707c-0.193,-0.195 -0.511,-0.195 -0.706,0l-0.708,0.707c-0.194,0.195 -0.194,0.512 -0.001,0.707c0.194,0.193 0.512,0.193 0.707,-0.002Zm-9.898,-0.705c0.194,0.195 0.513,0.195 0.707,0c0.194,-0.193 0.194,-0.512 0,-0.707l-0.707,-0.707c-0.194,-0.193 -0.513,-0.193 -0.707,0c-0.194,0.195 -0.194,0.514 0,0.707l0.707,0.707Zm5.097,-1.404c0.275,0.002 0.5,-0.223 0.5,-0.498l0.001,-1.002c0,-0.275 -0.225,-0.5 -0.5,-0.5c-0.274,0 -0.499,0.225 -0.5,0.5l-0.001,1c0,0.275 0.225,0.5 0.5,0.5Z" style="fill:#fff;"/>
    </g>
</svg>
