<?xml version="1.0" encoding="UTF-8" standalone="no"?>
<!DOCTYPE svg PUBLIC "-//W3C//DTD SVG 1.1//EN" "http://www.w3.org/Graphics/SVG/1.1/DTD/svg11.dtd">
<svg width="16px" height="16px" version="1.1" xmlns="http://www.w3.org/2000/svg" xmlns:xlink="http://www.w3.org/1999/xlink" xml:space="preserve" style="fill-rule:evenodd;clip-rule:evenodd;stroke-linejoin:round;stroke-miterlimit:1.41421;">
    <g id="status">
        <path d="M0,0l16,0l0,16l-16,0l0,-16" style="fill:#3f7ab7;fill-rule:nonzero;"/>
        <path d="M12.214,14.396c-0.804,0.803 -1.489,0.803 -2.293,0c-1.178,-1.178 -2.493,-1.18 -3.702,-0.004c-0.807,0.783 -1.496,0.783 -2.303,0c-1.226,-1.193 -2.471,-1.193 -3.697,0c-0.074,0.072 -0.147,0.129 -0.219,0.19l0,1.179c0.31,-0.144 0.616,-0.361 0.916,-0.652c0.839,-0.817 1.464,-0.817 2.303,0c1.192,1.158 2.505,1.158 3.697,0c0.829,-0.807 1.495,-0.807 2.298,-0.006c0.598,0.598 1.226,0.897 1.854,0.897c0.627,0 1.255,-0.299 1.853,-0.897c0.802,-0.801 1.468,-0.801 2.298,0.006c0.26,0.252 0.52,0.43 0.781,0.562l0,-1.207c-0.029,-0.025 -0.055,-0.045 -0.084,-0.072c-1.227,-1.193 -2.506,-1.191 -3.702,0.004" style="fill:#fff;fill-rule:nonzero;"/>
        <path d="M10.999,6l-3,-1l-3,1l0,-2l1,0l0,-1l4,0l0,1l1,0l0,2Zm4.917,5.393c-1.228,-1.194 -2.507,-1.192 -3.703,0.003c-0.072,0.073 -0.143,0.131 -0.214,0.192l0,-2.588l1.428,-1.428c0.122,-0.123 0.173,-0.299 0.133,-0.468c-0.04,-0.168 -0.164,-0.305 -0.329,-0.36l-1.232,-0.41l0,-0.334l0,-2l0,-1l-1,0l0,-1l-1,0l-1,0l0,-1.5c0,-0.275 -0.224,-0.5 -0.5,-0.5l-1,0c-0.276,0 -0.5,0.225 -0.5,0.5l0,1.5l-1,0l-1,0l0,1l-1,0l0,3.334l-1.232,0.41c-0.165,0.055 -0.289,0.192 -0.329,0.36c-0.04,0.169 0.011,0.345 0.133,0.468l1.428,1.428l0,2.465c-0.028,-0.026 -0.055,-0.045 -0.083,-0.072c-1.227,-1.194 -2.471,-1.194 -3.698,0c-0.074,0.072 -0.147,0.128 -0.219,0.189l0,1.18c0.31,-0.145 0.617,-0.362 0.917,-0.653c0.838,-0.816 1.463,-0.816 2.302,0c1.193,1.159 2.505,1.159 3.698,0c0.042,-0.041 0.083,-0.072 0.124,-0.109c0.731,-0.65 1.347,-0.65 2.057,0c0.039,0.035 0.077,0.064 0.116,0.104c0.598,0.597 1.226,0.896 1.854,0.896c0.628,0 1.256,-0.299 1.853,-0.896c0.803,-0.801 1.469,-0.801 2.298,0.005c0.26,0.252 0.521,0.43 0.781,0.563l0,-1.207c-0.028,-0.026 -0.055,-0.045 -0.083,-0.072" style="fill:#fff;fill-rule:nonzero;"/>
    </g>
</svg>
