<?xml version="1.0" encoding="UTF-8" standalone="no"?>
<!DOCTYPE svg PUBLIC "-//W3C//DTD SVG 1.1//EN" "http://www.w3.org/Graphics/SVG/1.1/DTD/svg11.dtd">
<svg width="16px" height="16px" version="1.1" xmlns="http://www.w3.org/2000/svg" xmlns:xlink="http://www.w3.org/1999/xlink" xml:space="preserve" style="fill-rule:evenodd;clip-rule:evenodd;stroke-linejoin:round;stroke-miterlimit:1.41421;">
    <g id="status">
        <path d="M0,0l16,0l0,16l-16,0l0,-16" style="fill:#50b289;fill-rule:nonzero;"/>
        <path d="M5.924,12.049l-0.801,0.804c-0.365,0.366 -0.957,0.366 -1.321,0l-0.661,-0.663c-0.365,-0.365 -0.365,-0.958 0,-1.324l3.962,-3.972c0.365,-0.367 0.956,-0.367 1.32,0l0.548,0.549l1.361,-1.284l-0.588,-0.59c-1.094,-1.097 -2.867,-1.097 -3.962,0l-3.962,3.973c-1.093,1.098 -1.093,2.876 0,3.973l0.66,0.662c1.095,1.097 2.869,1.097 3.962,0.001l1.96,-1.966c-0.801,0.327 -1.713,0.264 -2.478,-0.163Zm8.256,-9.564l-0.66,-0.662c-1.095,-1.097 -2.868,-1.097 -3.962,-0.001l-1.96,1.965c0.801,-0.326 1.714,-0.264 2.478,0.164l0.802,-0.803c0.364,-0.367 0.956,-0.367 1.321,0l0.66,0.661c0.365,0.365 0.365,0.959 0,1.325l-3.962,3.973c-0.364,0.365 -0.956,0.365 -1.32,0l-0.548,-0.551l-1.36,1.286l0.588,0.588c1.093,1.098 2.867,1.098 3.961,0l3.962,-3.973c1.093,-1.096 1.093,-2.876 0,-3.972Z" style="fill:#fff;"/>
    </g>
</svg>
