<?xml version="1.0" encoding="UTF-8" standalone="no"?>
<!DOCTYPE svg PUBLIC "-//W3C//DTD SVG 1.1//EN" "http://www.w3.org/Graphics/SVG/1.1/DTD/svg11.dtd">
<svg width="16px" height="16px" version="1.1" xmlns="http://www.w3.org/2000/svg" xmlns:xlink="http://www.w3.org/1999/xlink" xml:space="preserve" style="fill-rule:evenodd;clip-rule:evenodd;stroke-linejoin:round;stroke-miterlimit:1.41421;">
    <g id="status">
        <path d="M0,0l16,0l0,16l-16,0l0,-16" style="fill:#3f7ab7;fill-rule:nonzero;"/>
        <path d="M3.951,14.478c-0.541,0 -1.075,-0.25 -1.576,-0.752l-0.073,-0.072c-0.517,-0.509 -2.656,-2.288 0.007,-4.752c1.095,-1.013 2.442,-2.48 3.941,-3.961c0.806,-0.796 1.644,-1.624 2.478,-2.458c1.506,-1.505 2.607,-1.161 4.315,0.465c2.017,1.921 2.386,3.81 1.513,4.817c-1.158,1.335 -5.54,5.719 -5.726,5.904c-0.245,0.246 -0.643,0.246 -0.889,0c-0.245,-0.244 -0.245,-0.642 0,-0.888c0.045,-0.045 4.537,-4.538 5.666,-5.841c0.259,-0.298 0.299,-1.435 -1.431,-3.082c-0.996,-0.949 -1.292,-1.754 -2.559,-0.486c-0.836,0.836 -1.676,1.666 -2.484,2.462c-1.491,1.475 -2.873,2.893 -3.913,3.933c-1.649,1.65 -0.578,2.458 -0.036,2.994l0.079,0.077c0.462,0.461 0.84,0.586 1.515,-0.09c0.188,-0.188 0.577,-0.567 1.068,-1.044c1.361,-1.322 3.892,-3.782 4.403,-4.422c0.162,-0.202 0.398,-0.692 0.173,-0.891c-0.311,-0.272 -0.884,0.278 -1.051,0.453c-1.774,1.862 -4.091,4.093 -4.114,4.115c-0.249,0.24 -0.647,0.233 -0.887,-0.017c-0.241,-0.25 -0.234,-0.647 0.016,-0.889c0.023,-0.021 2.321,-2.234 4.075,-4.075c1.137,-1.196 2.186,-1.059 2.788,-0.533c0.732,0.64 0.56,1.899 -0.019,2.623c-0.516,0.647 -2.51,2.595 -4.507,4.537c-0.485,0.471 -0.871,0.846 -1.057,1.031c-0.56,0.562 -1.142,0.842 -1.715,0.842" style="fill:#fff;fill-rule:nonzero;"/>
    </g>
</svg>
